<svg width="20" height="20" viewBox="0 0 20 20" fill="none" xmlns="http://www.w3.org/2000/svg">
<path fill-rule="evenodd" clip-rule="evenodd" d="M15.0909 4.54545H3.10402L6.09727 1.55182C6.45242 1.19697 6.45242 0.621439 6.09727 0.266288C5.7425 -0.0887879 5.16689 -0.0887879 4.81182 0.266288L0.266364 4.81174C-0.0887879 5.16659 -0.0887879 5.74212 0.266364 6.09727L4.81182 10.6427C4.98932 10.8203 5.22197 10.9091 5.45455 10.9091C5.68712 10.9091 5.92008 10.8203 6.09727 10.6427C6.45242 10.2879 6.45242 9.71235 6.09727 9.3572L3.10402 6.36364H15.0909C15.5931 6.36364 16 5.95674 16 5.45455C16 4.95265 15.5931 4.54545 15.0909 4.54545Z" fill="#9AADC2"/>
<path fill-rule="evenodd" clip-rule="evenodd" d="M15.1882 9.3572C14.8334 9.00212 14.2578 9.00212 13.9027 9.3572C13.5476 9.71205 13.5476 10.2876 13.9027 10.6427L16.8963 13.6364H4.90909C4.4072 13.6364 4 14.0436 4 14.5455C4 15.0477 4.4072 15.4545 4.90909 15.4545H16.8963L13.9027 18.4481C13.5476 18.8033 13.5476 19.3788 13.9027 19.7336C14.0802 19.9112 14.3129 20 14.5455 20C14.778 20 15.011 19.9112 15.1882 19.7336L19.7336 15.1882C20.0888 14.8333 20.0888 14.2578 19.7336 13.9027L15.1882 9.3572Z" fill="#9AADC2"/>
</svg>
