<svg width="25" height="18" viewBox="0 0 25 18" fill="none" xmlns="http://www.w3.org/2000/svg">
<path fill-rule="evenodd" clip-rule="evenodd" d="M2.11419 1.41505H21.9406C22.3292 1.41505 22.6453 1.73119 22.6453 2.11978V3.50128H1.40946V2.11978C1.40946 1.73119 1.7256 1.41505 2.11419 1.41505ZM21.9406 15.739H2.11419C1.7256 15.739 1.40946 15.4229 1.40946 15.0343V4.91079H22.6453V15.0343C22.6453 15.4229 22.3292 15.739 21.9406 15.739ZM21.9406 0.00558472H2.11419C0.948426 0.00558472 0 0.954011 0 2.11978V15.0342C0 16.2 0.948426 17.1484 2.11419 17.1484H21.9406C23.1064 17.1484 24.0548 16.2 24.0548 15.0342V2.11978C24.0548 0.954011 23.1064 0.00558472 21.9406 0.00558472Z" fill="#98ACC1"/>
<path fill-rule="evenodd" clip-rule="evenodd" d="M7.19852 9.03638C7.19852 8.55679 7.58871 8.16665 8.06825 8.16665C8.5478 8.16665 8.93799 8.55679 8.93799 9.03638V9.36648H7.19857V9.03638H7.19852ZM8.06825 6.75714C6.81153 6.75714 5.78906 7.77961 5.78906 9.03633V12.1118C5.78906 12.501 6.10459 12.8166 6.49379 12.8166C6.88299 12.8166 7.19852 12.501 7.19852 12.1118V10.7759H8.93794V12.1118C8.93794 12.501 9.25347 12.8166 9.64267 12.8166C10.0319 12.8166 10.3474 12.501 10.3474 12.1118V9.03633C10.3474 7.77961 9.32498 6.75714 8.06825 6.75714Z" fill="#98ACC1"/>
<path fill-rule="evenodd" clip-rule="evenodd" d="M13.8713 9.36648H12.7317V8.16665H13.8713C14.2021 8.16665 14.4712 8.43581 14.4712 8.76661C14.4712 9.09741 14.2021 9.36648 13.8713 9.36648ZM13.8713 6.75714H12.027C11.6378 6.75714 11.3223 7.07267 11.3223 7.46187V12.1118C11.3223 12.501 11.6378 12.8166 12.027 12.8166C12.4162 12.8166 12.7317 12.501 12.7317 12.1118V10.7759H13.8713C14.9793 10.7759 15.8807 9.87445 15.8807 8.76647C15.8807 7.65849 14.9793 6.75714 13.8713 6.75714Z" fill="#98ACC1"/>
<path fill-rule="evenodd" clip-rule="evenodd" d="M17.5602 6.75714C17.171 6.75714 16.8555 7.07267 16.8555 7.46187V12.1118C16.8555 12.501 17.171 12.8166 17.5602 12.8166C17.9494 12.8166 18.2649 12.501 18.2649 12.1118V7.46187C18.2649 7.07267 17.9494 6.75714 17.5602 6.75714Z" fill="#98ACC1"/>
</svg>
