<svg width="23" height="20" viewBox="0 0 23 20" fill="none" xmlns="http://www.w3.org/2000/svg">
<path fill-rule="evenodd" clip-rule="evenodd" d="M22.1687 7.91514L11.5474 0.138465C11.3426 -0.0114259 11.0644 -0.0114259 10.8596 0.138465L0.23829 7.91514C-0.0211409 8.10512 -0.0774648 8.46941 0.112513 8.72884C0.302448 8.98827 0.666824 9.04455 0.926168 8.85466L11.2035 1.32976L21.4808 8.85466C21.5845 8.93054 21.7049 8.96713 21.8243 8.96713C22.0035 8.96713 22.1804 8.88464 22.2945 8.72884C22.4845 8.46941 22.4281 8.10512 22.1687 7.91514Z" fill="#98ACC1"/>
<path d="M22.1687 7.91514L11.5474 0.138465C11.3426 -0.0114259 11.0644 -0.0114259 10.8596 0.138465L0.23829 7.91514C-0.0211409 8.10512 -0.0774648 8.46941 0.112513 8.72884C0.302448 8.98827 0.666824 9.04455 0.926168 8.85466L11.2035 1.32976L21.4808 8.85466C21.5845 8.93054 21.7049 8.96713 21.8243 8.96713C22.0035 8.96713 22.1804 8.88464 22.2945 8.72884C22.4845 8.46941 22.4281 8.10512 22.1687 7.91514" stroke="#98ACC1" stroke-width="0.5"/>
<path fill-rule="evenodd" clip-rule="evenodd" d="M19.3543 8.98648C19.0328 8.98648 18.7721 9.24709 18.7721 9.56867V18.8356H14.1147V13.7771C14.1147 12.1719 12.8087 10.8659 11.2035 10.8659C9.59834 10.8659 8.29234 12.1719 8.29234 13.7771V18.8356H3.63492V9.56867C3.63492 9.24709 3.37422 8.98648 3.05274 8.98648C2.73125 8.98648 2.4705 9.24709 2.4705 9.56867V19.4178C2.4705 19.7393 2.73125 20 3.05274 20H8.87453C9.18075 20 9.43125 19.7635 9.45449 19.4632C9.45589 19.4495 9.45676 19.4347 9.45676 19.4178V13.7771C9.45676 12.8139 10.2403 12.0303 11.2035 12.0303C12.1667 12.0303 12.9503 12.814 12.9503 13.7771V19.4178C12.9503 19.4346 12.9512 19.4492 12.9526 19.4626C12.9755 19.7632 13.2261 20 13.5325 20H19.3543C19.6758 20 19.9365 19.7393 19.9365 19.4178V9.56867C19.9365 9.24709 19.6758 8.98648 19.3543 8.98648Z" fill="#98ACC1"/>
<path d="M19.3543 8.98648C19.0328 8.98648 18.7721 9.24709 18.7721 9.56867V18.8356H14.1147V13.7771C14.1147 12.1719 12.8087 10.8659 11.2035 10.8659C9.59834 10.8659 8.29234 12.1719 8.29234 13.7771V18.8356H3.63492V9.56867C3.63492 9.24709 3.37422 8.98648 3.05274 8.98648C2.73125 8.98648 2.4705 9.24709 2.4705 9.56867V19.4178C2.4705 19.7393 2.73125 20 3.05274 20H8.87453C9.18075 20 9.43125 19.7635 9.45449 19.4632C9.45589 19.4495 9.45676 19.4347 9.45676 19.4178V13.7771C9.45676 12.8139 10.2403 12.0303 11.2035 12.0303C12.1667 12.0303 12.9503 12.814 12.9503 13.7771V19.4178C12.9503 19.4346 12.9512 19.4492 12.9526 19.4626C12.9755 19.7632 13.2261 20 13.5325 20H19.3543C19.6758 20 19.9365 19.7393 19.9365 19.4178V9.56867C19.9365 9.24709 19.6758 8.98648 19.3543 8.98648" stroke="#98ACC1" stroke-width="0.5"/>
</svg>
