<svg width="18" height="20" viewBox="0 0 18 20" fill="none" xmlns="http://www.w3.org/2000/svg">
<path fill-rule="evenodd" clip-rule="evenodd" d="M8.4187 10.7928H8.55095C9.76237 10.7722 10.7423 10.3463 11.4658 9.53189C13.0574 7.73741 12.7929 4.6615 12.7638 4.36796C12.6605 2.16429 11.6186 1.11013 10.7589 0.618138C10.1179 0.250128 9.36956 0.0516785 8.53441 0.035141H8.46413C8.00527 0.035141 7.10392 0.109611 6.23989 0.601601C5.37162 1.09354 4.31323 2.14775 4.20987 4.36796C4.18098 4.6615 3.91633 7.73741 5.50811 9.53189C6.22739 10.3463 7.20728 10.7722 8.4187 10.7928ZM5.31369 4.47132C5.31369 4.45902 5.31793 4.44646 5.31793 4.43819C5.45441 1.4739 7.55876 1.15555 8.4601 1.15555H8.50956C9.62594 1.18036 11.5235 1.63519 11.6517 4.43819C11.6517 4.4507 11.6517 4.46305 11.656 4.47132C11.66 4.50015 11.9495 7.31168 10.6347 8.79178C10.1138 9.37886 9.41922 9.66811 8.50553 9.67643H8.46413C7.55472 9.66811 6.85581 9.37886 6.33901 8.79178C5.02847 7.31995 5.30966 4.49612 5.31369 4.47132Z" fill="#FFFFFF"/>
<path d="M8.4187 10.7928L8.41446 11.0428H8.4187V10.7928ZM8.55095 10.7928V11.0428L8.5552 11.0427L8.55095 10.7928ZM11.4658 9.53189L11.6527 9.69793L11.6528 9.69777L11.4658 9.53189ZM12.7638 4.36796L12.5138 4.37969L12.515 4.39262L12.7638 4.36796ZM10.7589 0.618138L10.6344 0.834946L10.6347 0.835122L10.7589 0.618138ZM8.53441 0.035141L8.53937 -0.214859H8.53441V0.035141ZM6.23989 0.601601L6.36313 0.819116L6.3636 0.81885L6.23989 0.601601ZM4.20987 4.36796L4.459 4.39248L4.4596 4.37958L4.20987 4.36796ZM5.50811 9.53189L5.69549 9.36639L5.69513 9.36599L5.50811 9.53189ZM5.31369 4.47132L5.56045 4.51142L5.56369 4.4915V4.47132H5.31369ZM5.31793 4.43819L5.06793 4.42668V4.43819H5.31793ZM8.50956 1.15555L8.51511 0.905554H8.50956V1.15555ZM11.6517 4.43819H11.902L11.9015 4.42677L11.6517 4.43819ZM11.656 4.47132L11.9036 4.43671L11.8977 4.39488L11.8784 4.35729L11.656 4.47132ZM10.6347 8.79178L10.4478 8.62575L10.4477 8.62587L10.6347 8.79178ZM8.50553 9.67643L8.50553 9.92644L8.5078 9.92642L8.50553 9.67643ZM8.46413 9.67643L8.46184 9.92643H8.46413V9.67643ZM6.33901 8.79178L6.52667 8.62659L6.52573 8.62553L6.33901 8.79178ZM8.4187 11.0428H8.55095V10.5428H8.4187V11.0428ZM8.5552 11.0427C9.82836 11.0211 10.8775 10.5704 11.6527 9.69793L11.2789 9.36584C10.607 10.1221 9.69639 10.5233 8.54671 10.5428L8.5552 11.0427ZM11.6528 9.69777C12.4975 8.74542 12.8388 7.46873 12.9706 6.41819C13.103 5.36251 13.0281 4.49967 13.0126 4.3433L12.515 4.39262C12.5286 4.52978 12.6005 5.35167 12.4745 6.35596C12.3479 7.36538 12.0257 8.52388 11.2788 9.366L11.6528 9.69777ZM13.0135 4.35624C12.9059 2.0611 11.8115 0.932486 10.883 0.401155L10.6347 0.835122C11.4257 1.28777 12.415 2.26748 12.5141 4.37967L13.0135 4.35624ZM10.8833 0.401331C10.202 0.0101654 9.41176 -0.197535 8.53936 -0.21481L8.52947 0.285092C9.32736 0.300892 10.0337 0.490091 10.6344 0.834946L10.8833 0.401331ZM8.53441 -0.214859H8.46413V0.285141H8.53441V-0.214859ZM8.46413 -0.214859C7.98346 -0.214859 7.03304 -0.137716 6.11619 0.384352L6.3636 0.81885C7.1748 0.356939 8.02707 0.285141 8.46413 0.285141V-0.214859ZM6.11665 0.384087C5.18001 0.914764 4.06782 2.04327 3.96014 4.35633L4.4596 4.37958C4.55863 2.25223 5.56324 1.27231 6.36313 0.819115L6.11665 0.384087ZM3.96107 4.34347C3.9457 4.49966 3.87076 5.36249 4.00318 6.41819C4.13496 7.46873 4.4763 8.74543 5.32109 9.69778L5.69513 9.36599C4.94814 8.52387 4.62591 7.36538 4.49929 6.35596C4.37332 5.35169 4.44515 4.52979 4.45866 4.39244L3.96107 4.34347ZM5.32073 9.69738C6.09189 10.5705 7.14145 11.0211 8.41446 11.0427L8.42295 10.5428C7.27311 10.5233 6.36288 10.122 5.69549 9.36639L5.32073 9.69738ZM5.56369 4.47132C5.56369 4.48223 5.56277 4.49048 5.56224 4.49455C5.56173 4.49845 5.56124 4.50089 5.56162 4.49884C5.5617 4.49837 5.56178 4.49796 5.56194 4.49709C5.56208 4.49635 5.56228 4.49527 5.5625 4.4941C5.56291 4.49185 5.56357 4.48817 5.56425 4.48387C5.56492 4.47959 5.56579 4.47352 5.56651 4.46636C5.56721 4.45928 5.56793 4.44959 5.56793 4.43819H5.06793C5.06793 4.42885 5.06851 4.42137 5.06899 4.41661C5.06947 4.41177 5.07001 4.40813 5.07029 4.40638C5.07057 4.40461 5.07076 4.40356 5.07068 4.40403C5.07044 4.40531 5.07057 4.40457 5.07 4.40764C5.06932 4.4113 5.06777 4.41971 5.06647 4.42968C5.06514 4.43982 5.06369 4.45425 5.06369 4.47132H5.56369ZM5.56766 4.44969C5.63285 3.03384 6.1617 2.29082 6.74366 1.89138C7.33968 1.4823 8.03219 1.40555 8.4601 1.40555V0.905554C7.98667 0.905554 7.17633 0.987979 6.46072 1.47914C5.73105 1.97996 5.13949 2.87825 5.06819 4.42669L5.56766 4.44969ZM8.4601 1.40555H8.50956V0.905554H8.4601V1.40555ZM8.504 1.40549C9.03733 1.41734 9.73121 1.53235 10.3023 1.95586C10.8619 2.37083 11.3407 3.10975 11.402 4.44961L11.9015 4.42677C11.8345 2.96364 11.3005 2.07364 10.6001 1.55424C9.91126 1.04339 9.09816 0.918572 8.51511 0.905616L8.504 1.40549ZM11.4017 4.43819C11.4017 4.44175 11.4015 4.46011 11.4033 4.47954C11.405 4.49752 11.41 4.53959 11.4335 4.58534L11.8784 4.35729C11.8887 4.37733 11.894 4.39494 11.8968 4.4068C11.8996 4.41872 11.9007 4.4281 11.9012 4.43315C11.9019 4.4412 11.9017 4.44714 11.9017 4.43819H11.4017ZM11.4084 4.50593C11.4079 4.50257 11.4804 5.19238 11.3912 6.06181C11.3013 6.93771 11.052 7.94551 10.4478 8.62575L10.8216 8.95782C11.5321 8.15795 11.7955 7.01994 11.8886 6.11284C11.9823 5.19928 11.9081 4.4689 11.9036 4.43671L11.4084 4.50593ZM10.4477 8.62587C9.98147 9.15136 9.35878 9.41865 8.50325 9.42644L8.5078 9.92642C9.47966 9.91757 10.2462 9.60636 10.8217 8.95769L10.4477 8.62587ZM8.50553 9.42643H8.46413V9.92643H8.50553V9.42643ZM8.46642 9.42644C7.61472 9.41865 6.98839 9.15112 6.52667 8.6266L6.15136 8.95697C6.72323 9.60661 7.49473 9.91757 8.46184 9.92642L8.46642 9.42644ZM6.52573 8.62553C5.92379 7.94952 5.67348 6.94092 5.58204 6.06301C5.49108 5.18974 5.56233 4.49989 5.56045 4.51142L5.06693 4.43122C5.06102 4.46755 4.98966 5.20202 5.08473 6.11481C5.17933 7.02298 5.44369 8.16221 6.1523 8.95803L6.52573 8.62553Z" fill="#FFFFFF"/>
<path fill-rule="evenodd" clip-rule="evenodd" d="M16.981 15.8945V15.8822C16.981 15.8491 16.9767 15.816 16.9767 15.7789C16.9521 14.9603 16.8982 13.0461 15.104 12.4342C15.0916 12.43 15.0751 12.4259 15.0626 12.4217C13.1981 11.9463 11.6477 10.8713 11.6311 10.859C11.379 10.6811 11.0316 10.7431 10.8539 10.9952C10.6761 11.2476 10.738 11.5948 10.9902 11.7727C11.0606 11.8221 12.7061 12.9673 14.765 13.4966C15.7282 13.8398 15.8358 14.8692 15.8646 15.8119C15.8646 15.8491 15.8646 15.8822 15.8688 15.9153C15.8729 16.2873 15.8481 16.8621 15.7821 17.1928C15.1122 17.5731 12.4869 18.8879 8.49302 18.8879C4.51592 18.8879 1.874 17.569 1.20015 17.1887C1.1339 16.8579 1.10506 16.2831 1.11333 15.9111C1.11333 15.878 1.11736 15.8451 1.11736 15.8077C1.14646 14.8652 1.25385 13.8356 2.21716 13.4924C4.27607 12.9633 5.92155 11.8141 5.99178 11.7684C6.24393 11.5908 6.3061 11.2434 6.12827 10.9912C5.95044 10.7391 5.6032 10.6771 5.35106 10.8547C5.33452 10.8673 3.7924 11.942 1.91943 12.4177C1.90284 12.4217 1.89054 12.4259 1.87803 12.43C0.0837713 13.0461 0.0300763 14.9603 0.00527013 15.7746C0.00527013 15.8119 0.00527013 15.8451 0.00118744 15.878V15.8905C-0.00305028 16.1055 -0.00708129 17.2093 0.211988 17.7633C0.253332 17.8709 0.327647 17.9617 0.426976 18.0237C0.550903 18.1065 3.52372 20 8.49726 20C13.4708 20 16.4436 18.1024 16.5675 18.0237C16.6626 17.9617 16.7411 17.8709 16.7825 17.7633C16.9893 17.2133 16.985 16.1095 16.981 15.8945Z" fill="#FFFFFF" stroke="#FFFFFF" stroke-width="0.5"/>
</svg>
