<svg width="20" height="19" viewBox="0 0 20 19" fill="none" xmlns="http://www.w3.org/2000/svg">
<path fill-rule="evenodd" clip-rule="evenodd" d="M14.5876 9.79196V8.43593C14.5876 6.27895 13.1039 4.46878 11.1015 3.96945V2.59135C11.1015 1.97425 10.6013 1.47403 9.98416 1.47403C9.36723 1.47403 8.86684 1.97425 8.86684 2.59135V3.96923C6.8646 4.46855 5.38086 6.27895 5.38086 8.43593V9.79174C5.38086 11.2414 4.80499 12.632 3.77997 13.657C3.32935 14.1076 3.19449 14.7852 3.43823 15.374C3.6822 15.9627 4.25661 16.3466 4.89382 16.3466H7.67136C7.67136 17.6239 8.70689 18.6592 9.98416 18.6592C11.2614 18.6592 12.2969 17.6239 12.2969 16.3466H15.0745C15.7117 16.3466 16.2861 15.9627 16.5301 15.374C16.7738 14.7852 16.639 14.1076 16.1886 13.657C15.1635 12.632 14.5876 11.2416 14.5876 9.79196ZM9.98416 17.3184C9.44818 17.3184 9.01215 16.8824 9.01215 16.3466H10.9561C10.9561 16.8826 10.5201 17.3184 9.98416 17.3184ZM15.2914 14.8609C15.255 14.9489 15.1699 15.0058 15.0745 15.0058H4.89382C4.79868 15.0058 4.71354 14.9489 4.67712 14.8609C4.64064 14.773 4.66053 14.6724 4.72796 14.6051C6.01354 13.3194 6.72164 11.61 6.72164 9.79196V8.43593C6.72164 6.63682 8.18511 5.17341 9.98416 5.17341C11.7832 5.17341 13.2466 6.63682 13.2466 8.43593V9.79196C13.2466 11.61 13.9548 13.3194 15.2404 14.6051C15.3078 14.6724 15.3278 14.7727 15.2914 14.8609Z" fill="#98ACC1"/>
<path fill-rule="evenodd" clip-rule="evenodd" d="M3.85021 9.78408C4.20066 9.66475 4.38792 9.28391 4.26854 8.93346C3.52854 6.76056 4.69407 4.39084 6.86675 3.65084C7.21742 3.53151 7.40468 3.15067 7.2853 2.8C7.16597 2.44949 6.78491 2.26229 6.43446 2.38162C3.56195 3.36017 2.02105 6.49324 2.99938 9.36575C3.09429 9.64463 3.35485 9.82011 3.63396 9.82011C3.70552 9.82011 3.77865 9.80855 3.85021 9.78408Z" fill="#98ACC1"/>
<path fill-rule="evenodd" clip-rule="evenodd" d="M5.8135 1.3529C6.16401 1.23357 6.35144 0.852733 6.23188 0.502287C6.1125 0.151784 5.73172 -0.0356465 5.38121 0.083739C1.23646 1.49541 -0.987054 6.0162 0.424677 10.1609C0.519594 10.4399 0.780152 10.6153 1.05926 10.6153C1.13082 10.6153 1.20373 10.6037 1.27552 10.5793C1.62596 10.4599 1.81323 10.0792 1.69384 9.72865C0.520432 6.28374 2.36859 2.52631 5.8135 1.3529Z" fill="#98ACC1"/>
<path fill-rule="evenodd" clip-rule="evenodd" d="M13.5333 2.38163C13.1826 2.2623 12.8018 2.44973 12.6825 2.80001C12.5631 3.15068 12.7505 3.53151 13.101 3.65084C15.2736 4.39084 16.4392 6.76056 15.6992 8.93347C15.5798 9.28392 15.7673 9.66475 16.1178 9.78408C16.1893 9.80855 16.2622 9.82012 16.3338 9.82012C16.6129 9.82012 16.8735 9.64464 16.9684 9.36576C17.9469 6.49325 16.4058 3.36017 13.5333 2.38163Z" fill="#98ACC1"/>
<path fill-rule="evenodd" clip-rule="evenodd" d="M19.1511 4.09582C18.2151 2.19247 16.5937 0.767668 14.5859 0.0837576C14.2354 -0.0356278 13.8546 0.151635 13.7352 0.502082C13.6158 0.852752 13.8033 1.23359 14.1535 1.35292C15.8225 1.92141 17.1701 3.10555 17.948 4.68767C18.7263 6.26957 18.8417 8.0599 18.2732 9.72867C18.1539 10.0792 18.3413 10.46 18.6918 10.5793C18.7634 10.6038 18.8363 10.6153 18.9078 10.6153C19.1869 10.6153 19.4475 10.4397 19.5424 10.161C20.2263 8.15309 20.0873 5.99918 19.1511 4.09582Z" fill="#98ACC1"/>
</svg>
