<svg width="20" height="20" viewBox="0 0 20 20" fill="none" xmlns="http://www.w3.org/2000/svg">
<path fill-rule="evenodd" clip-rule="evenodd" d="M2.5773 13.8616C2.5773 13.8616 2.5773 13.8616 2.5773 13.862C2.5773 13.8616 2.5773 13.8616 2.5773 13.8616ZM2.59361 13.8853V13.8894C2.59361 13.8898 2.59361 13.8898 2.59361 13.8898C2.59361 13.8898 2.59361 13.8882 2.59361 13.8853ZM8.41294 17.8641C9.22447 17.9914 10.0808 17.9914 10.8924 17.8641V16.4714C10.8924 16.1131 11.1248 15.7967 11.4674 15.691C12.336 15.4233 13.1271 14.9661 13.8163 14.3326C14.0773 14.0902 14.4688 14.0477 14.7787 14.2282L15.9858 14.9339C16.2223 14.6465 16.4344 14.3437 16.6261 14.0282C16.675 13.9416 16.728 13.8486 16.7851 13.7551C16.9564 13.4457 17.1113 13.1224 17.2418 12.7902L16.0307 12.0841C15.7248 11.9037 15.5658 11.5429 15.6473 11.1943C15.7574 10.7204 15.8145 10.2502 15.8145 9.79632C15.8145 9.35306 15.7615 8.89428 15.6555 8.43346C15.578 8.08448 15.7371 7.72448 16.047 7.54612L17.2582 6.84857C17.1195 6.48244 16.9482 6.12571 16.7525 5.78285C16.7484 5.77714 16.7321 5.74489 16.728 5.73918C16.7199 5.7253 16.7035 5.69877 16.6954 5.68408C16.4956 5.34204 16.2713 5.01224 16.0184 4.69918L14.8073 5.39673C14.4973 5.5751 14.1058 5.53061 13.8449 5.28652C13.1597 4.64897 12.336 4.16979 11.4674 3.90163C11.1248 3.79591 10.8924 3.47959 10.8924 3.12122V1.72897C10.0808 1.60163 9.22447 1.60163 8.41294 1.72897V3.12122C8.41294 3.47959 8.17641 3.79591 7.83386 3.90163C6.96524 4.16979 6.17411 4.62693 5.489 5.2604C5.22393 5.50285 4.83244 5.5453 4.52251 5.36489L3.31542 4.65918C3.08298 4.94653 2.87092 5.24979 2.67925 5.56489C2.43457 5.95959 2.23067 6.37387 2.06347 6.80285L3.27056 7.50897C3.58049 7.68938 3.73546 8.0502 3.6539 8.39877C3.54379 8.87265 3.49078 9.34285 3.49078 9.79632C3.49078 10.24 3.54379 10.6988 3.64574 11.1596C3.72322 11.5086 3.56826 11.8686 3.25833 12.0469L2.04308 12.7445C2.16542 13.0551 2.30815 13.3657 2.47127 13.6731L2.58954 13.8804C2.59361 13.8898 2.60177 13.8996 2.60585 13.909C2.80567 14.251 3.03404 14.5808 3.2828 14.8939L4.49805 14.1963C4.80798 14.018 5.19539 14.0624 5.46046 14.3065C6.14149 14.9441 6.96524 15.4233 7.83386 15.691C8.17641 15.7967 8.41294 16.1131 8.41294 16.4714V17.8641ZM9.65266 19.5922C8.88599 19.5922 8.13156 19.5029 7.40159 19.3261C7.03865 19.2371 6.78173 18.9098 6.78173 18.5331V17.0482C6.07624 16.7669 5.41152 16.378 4.80798 15.9L3.51524 16.6441C3.189 16.8326 2.77305 16.771 2.51613 16.4951C2.01454 15.96 1.57411 15.3735 1.21117 14.751C1.19078 14.7216 1.17039 14.6898 1.15407 14.6514L1.03581 14.451C0.709571 13.8375 0.452656 13.2171 0.273224 12.5992C0.167195 12.2371 0.326238 11.8506 0.652479 11.6629L1.94113 10.92C1.88812 10.542 1.85957 10.1661 1.85957 9.79632C1.85957 9.41265 1.88812 9.02163 1.94929 8.62775L0.660635 7.8751C0.334394 7.68489 0.183507 7.2955 0.289536 6.93387C0.526061 6.15387 0.860458 5.40734 1.28457 4.7155C1.64344 4.12204 2.07163 3.56163 2.55691 3.05265C2.8179 2.77877 3.22978 2.71918 3.55603 2.9102L4.84876 3.66285C5.44007 3.19387 6.08847 2.81918 6.78173 2.54408V1.05999C6.78173 0.68326 7.03865 0.355913 7.40159 0.266933C8.85744 -0.0865363 10.4479 -0.0865363 11.8996 0.266933C12.2667 0.355913 12.5236 0.68326 12.5236 1.05999V2.54489C13.225 2.82612 13.8938 3.21469 14.4933 3.69306L15.786 2.94897C16.1163 2.75999 16.5282 2.82204 16.7892 3.09795C17.2908 3.63428 17.7312 4.22203 18.0941 4.84571C18.1186 4.88408 18.1431 4.92367 18.1635 4.96285C18.5346 5.61183 18.8241 6.29142 19.028 6.99265C19.134 7.35469 18.9791 7.74203 18.6528 7.9302L17.3601 8.67306C17.4172 9.05101 17.4457 9.42693 17.4457 9.79632C17.4457 10.1804 17.4131 10.5714 17.3519 10.9653L18.6406 11.718C18.9668 11.9082 19.1218 12.2967 19.0117 12.658C18.816 13.3163 18.5427 13.9567 18.2002 14.5624C18.139 14.6718 18.0819 14.7731 18.0207 14.8706C17.6578 15.471 17.2296 16.0318 16.7484 16.54C16.4874 16.8143 16.0715 16.8731 15.7452 16.6824L14.4566 15.9302C13.8612 16.3992 13.2168 16.7739 12.5236 17.049V18.5331C12.5236 18.9098 12.2667 19.2371 11.8996 19.3261C11.1738 19.5029 10.4152 19.5922 9.65266 19.5922Z" fill="#98ACC1"/>
<path fill-rule="evenodd" clip-rule="evenodd" d="M9.65265 7.77265C8.53528 7.77265 7.62996 8.68081 7.62996 9.79632C7.62996 10.9122 8.53528 11.8204 9.65265 11.8204C10.766 11.8204 11.6753 10.9122 11.6753 9.79632C11.6753 8.68081 10.766 7.77265 9.65265 7.77265ZM9.65265 13.0449C7.86241 13.0449 6.40656 11.5877 6.40656 9.79632C6.40656 8.0053 7.86241 6.54816 9.65265 6.54816C11.4429 6.54816 12.8988 8.0053 12.8988 9.79632C12.8988 11.5877 11.4429 13.0449 9.65265 13.0449Z" fill="#98ACC1"/>
</svg>
