<svg width="20" height="20" viewBox="0 0 20 20" fill="none" xmlns="http://www.w3.org/2000/svg">
<path fill-rule="evenodd" clip-rule="evenodd" d="M2.70005 4.17574C2.92005 4.34344 3.23411 4.30126 3.40214 4.08126C4.87963 2.14544 7.12047 1.0354 9.55051 1.0354C11.9806 1.0354 14.2213 2.14544 15.6989 4.08126C15.7975 4.21038 15.9466 4.27842 16.0976 4.27842C16.2036 4.27842 16.3104 4.24469 16.401 4.17574C16.621 4.0077 16.6631 3.69323 16.4954 3.47356C14.8267 1.28737 12.2954 0.0334778 9.55051 0.0334778C6.80566 0.0334778 4.27428 1.28737 2.60557 3.47356C2.43787 3.69323 2.48005 4.0077 2.70005 4.17574Z" fill="white"/>
<path fill-rule="evenodd" clip-rule="evenodd" d="M14.875 6.84769C14.875 7.71029 15.5768 8.41213 16.4394 8.41213C17.3021 8.41213 18.0039 7.71029 18.0039 6.84769C18.0039 5.98501 17.3021 5.28317 16.4394 5.28317C15.5768 5.28317 14.875 5.98501 14.875 6.84769Z" fill="white"/>
<path fill-rule="evenodd" clip-rule="evenodd" d="M18.0409 8.93121C18.0373 8.92987 17.6431 8.80895 17.6431 8.80895C17.5006 8.76552 17.3453 8.7923 17.226 8.88184L16.4398 9.47029L15.654 8.88184C15.5344 8.7923 15.3791 8.76552 15.2366 8.80895C15.2366 8.80895 14.8423 8.92987 14.8387 8.93121C14.2046 9.14267 13.7783 9.73405 13.7783 10.4025V12.7675C13.7783 12.8587 13.8052 12.9479 13.8551 13.0241L14.6485 14.2313V17.4014C14.6485 17.6597 14.8577 17.8689 15.116 17.8689H17.7637C18.0219 17.8689 18.2315 17.6597 18.2315 17.4014V14.2313L19.0245 13.0241C19.0746 12.9479 19.1013 12.8587 19.1013 12.7675V10.4025C19.1013 9.73405 18.6751 9.14267 18.0409 8.93121Z" fill="white"/>
<path fill-rule="evenodd" clip-rule="evenodd" d="M2.6612 8.41213C3.52379 8.41213 4.22563 7.71029 4.22563 6.84769C4.22563 5.98501 3.52379 5.28317 2.6612 5.28317C1.79852 5.28317 1.09668 5.98501 1.09668 6.84769C1.09668 7.71029 1.79852 8.41213 2.6612 8.41213Z" fill="white"/>
<path fill-rule="evenodd" clip-rule="evenodd" d="M4.26259 8.93121C4.259 8.92987 3.86477 8.80895 3.86477 8.80895C3.72192 8.76552 3.56695 8.7923 3.44728 8.88184L2.66151 9.47029L1.87531 8.88184C1.75598 8.7923 1.60075 8.76552 1.45824 8.80895C1.45824 8.80895 1.06402 8.92987 1.06042 8.93121C0.426276 9.14267 0 9.73405 0 10.4025V12.7675C0 12.8587 0.0267782 12.9479 0.0768201 13.0241L0.870126 14.2313V17.4014C0.870126 17.6597 1.07933 17.8689 1.33757 17.8689H3.98536C4.2436 17.8689 4.4528 17.6597 4.4528 17.4014V14.2313L5.24611 13.0241C5.29615 12.9479 5.32293 12.8587 5.32293 12.7675V10.4025C5.32293 9.73405 4.89674 9.14267 4.26259 8.93121Z" fill="white"/>
<path fill-rule="evenodd" clip-rule="evenodd" d="M11.5689 4.64284C11.5689 3.53012 10.6637 2.62502 9.55103 2.62502C8.43831 2.62502 7.5332 3.53012 7.5332 4.64284C7.5332 5.75556 8.43831 6.66066 9.55103 6.66066C10.6637 6.66066 11.5689 5.75556 11.5689 4.64284Z" fill="white"/>
<path fill-rule="evenodd" clip-rule="evenodd" d="M11.7671 7.6384L11.7638 7.6374L11.1878 7.46091C11.0969 7.4328 10.9999 7.48083 10.9672 7.57037L9.75643 10.8935C9.68647 11.085 9.41518 11.085 9.34555 10.8935L8.13442 7.57037C8.10798 7.49815 8.03961 7.45271 7.96639 7.45271C7.94907 7.45271 7.33844 7.63706 7.33844 7.63706C6.60263 7.88225 6.11133 8.56443 6.11133 9.33556V12.8505C6.11133 12.8855 6.12145 12.9198 6.14078 12.9489L7.40422 14.872V19.7373C7.40422 19.8364 7.4843 19.9165 7.58329 19.9165H11.5184C11.6174 19.9165 11.6974 19.8364 11.6974 19.7373V14.872L12.9609 12.9489C12.9801 12.9198 12.9902 12.8855 12.9902 12.8505V9.32644C12.9902 8.55857 12.497 7.87765 11.7671 7.6384Z" fill="white"/>
<path fill-rule="evenodd" clip-rule="evenodd" d="M10.024 7.56845C9.97435 7.51423 9.90104 7.48669 9.8269 7.48669H9.2751C9.20088 7.48669 9.12765 7.51423 9.0777 7.56845C9.00021 7.65314 8.98908 7.77506 9.04397 7.87013L9.3392 8.31506L9.20088 9.48008L9.47284 10.2038C9.49937 10.2763 9.6023 10.2763 9.62883 10.2038L9.90079 9.48008L9.7628 8.31506L10.058 7.87013C10.1129 7.77506 10.1015 7.65314 10.024 7.56845Z" fill="white"/>
</svg>
