<svg width="20" height="20" viewBox="0 0 20 20" fill="none" xmlns="http://www.w3.org/2000/svg">
<path fill-rule="evenodd" clip-rule="evenodd" d="M10 0C4.5025 0 0 4.5025 0 10C0 15.4975 4.5025 20 10 20C15.4975 20 20 15.4975 20 10C20 4.5025 15.4975 0 10 0ZM2.0025 10C2.0025 5.6 5.6 2.0025 10 2.0025C11.8013 2.0025 13.5012 2.5975 14.9025 3.70125L3.70125 14.9025C2.5975 13.5012 2.0025 11.8013 2.0025 10ZM10 17.9975C8.19875 17.9975 6.49875 17.4025 5.0975 16.2987L16.2987 5.0975C17.4025 6.49875 17.9975 8.19875 17.9975 10C17.9975 14.4 14.4 17.9975 10 17.9975Z" fill="#98ACC1"/>
</svg>
