<svg width="16" height="19" viewBox="0 0 16 19" fill="none" xmlns="http://www.w3.org/2000/svg">
<path fill-rule="evenodd" clip-rule="evenodd" d="M15.4733 17.8107C15.4307 15.5741 15.4023 14.0965 14.7045 12.9998C13.9047 11.7415 12.3885 11.2435 10.1986 10.848C10.1977 10.848 10.1968 10.8477 10.1965 10.8477C10.1711 10.8428 9.96695 10.8037 9.58972 10.7651C9.4561 10.7588 9.38724 10.488 9.5537 10.406C11.1765 9.56667 12.2585 7.59427 12.2585 5.45405C12.2585 3.68311 12.0117 2.51494 11.4583 1.66674C10.7721 0.61526 9.25589 0.0702057 7.77038 0.0702057C6.28531 0.0702057 4.76911 0.61526 4.08294 1.66674C3.52947 2.51494 3.28268 3.68311 3.28268 5.45405C3.28268 7.59427 4.36518 9.56667 5.98784 10.406C6.15385 10.488 6.08465 10.7588 5.95194 10.7651C5.57425 10.8037 5.37007 10.8428 5.34519 10.8477C5.34428 10.8477 5.34348 10.848 5.34303 10.848C3.15258 11.2435 1.6365 11.7415 0.836701 12.9998C0.139391 14.0965 0.110985 15.5741 0.0679215 17.8107L0.0616722 18.1462C0.0576954 18.3446 0.133596 18.5359 0.272104 18.6775C0.410952 18.8191 0.600931 18.8989 0.798864 18.8989H14.7422C14.9406 18.8989 15.1306 18.8191 15.2691 18.6775C15.4081 18.5359 15.484 18.3446 15.48 18.1462L15.4733 17.8107Z" fill="white"/>
</svg>
