<svg width="26" height="26" viewBox="0 0 26 26" fill="none" xmlns="http://www.w3.org/2000/svg">
<path fill-rule="evenodd" clip-rule="evenodd" d="M6.05432 17.791C5.76862 17.5053 5.26279 17.5053 4.9771 17.791L0.668408 22.1004C-0.222803 22.9916 -0.222803 24.4407 0.668408 25.3319C1.55876 26.2222 3.00871 26.2231 3.89992 25.3319L8.20937 21.0232C8.5069 20.7257 8.50675 20.2434 8.20937 19.946L7.67038 19.4071L8.69327 18.3842C9.86626 19.3225 11.3332 19.9074 12.9488 19.9074C16.7293 19.9074 19.8047 16.8321 19.8047 13.0516C19.8047 9.27099 16.7293 6.19568 12.9488 6.19568C9.16833 6.19568 6.09301 9.27099 6.09301 13.0516C6.09301 14.6671 6.67786 16.1341 7.61615 17.307L6.59326 18.3299L6.05432 17.791Z" fill="white"/>
<path fill-rule="evenodd" clip-rule="evenodd" d="M19.8047 0C17.4657 0 15.4748 1.98382 14.4506 4.81442C18.3557 5.52505 21.3283 8.94441 21.3283 13.0515C21.3283 16.8393 18.8003 20.0443 15.3442 21.0778C15.7937 23.0693 17.5499 24.4772 19.6024 24.4772C22.283 24.4772 24.1938 22.0421 23.9058 19.4492C23.9126 19.1736 23.41 17.3353 24.7048 14.7082C25.4859 13.1245 25.9496 11.2349 25.9496 9.24275C25.9496 4.11719 23.2223 0 19.8047 0Z" fill="white"/>
</svg>
