<svg width="16" height="20" viewBox="0 0 16 20" fill="none" xmlns="http://www.w3.org/2000/svg">
<path fill-rule="evenodd" clip-rule="evenodd" d="M14.6392 0.0336914H0.676891C0.302941 0.0336914 0 0.336633 0 0.710498V15.1755C0 15.355 0.0712605 15.5271 0.198235 15.6541L4.34706 19.8019C4.47412 19.9286 4.64613 19.9998 4.82571 19.9998H14.6392C15.0131 19.9998 15.3161 19.6969 15.3161 19.3234V0.710498C15.3161 0.336633 15.0131 0.0336914 14.6392 0.0336914ZM2.31092 15.8523H4.14882V17.6896L2.31092 15.8523ZM13.9627 18.6465H5.50252V15.1755C5.50252 14.8016 5.19924 14.4986 4.82571 14.4986H1.3537V1.38739H13.9627V18.6465Z" fill="#FFFFFF"/>
<path fill-rule="evenodd" clip-rule="evenodd" d="M3.00468 4.87739H8.82241C9.19628 4.87739 9.49888 4.57445 9.49888 4.20059C9.49888 3.82672 9.19594 3.5237 8.82241 3.5237H3.00468C2.63081 3.5237 2.32813 3.82672 2.32813 4.20059C2.32779 4.57445 2.63081 4.87739 3.00468 4.87739Z" fill="#FFFFFF"/>
<path fill-rule="evenodd" clip-rule="evenodd" d="M11.1495 4.87739H12.3132C12.6871 4.87739 12.9901 4.57445 12.9901 4.20059C12.9901 3.82672 12.6871 3.5237 12.3132 3.5237H11.1495C10.776 3.5237 10.4727 3.82672 10.4727 4.20059C10.4727 4.57445 10.776 4.87739 11.1495 4.87739Z" fill="#FFFFFF"/>
<path fill-rule="evenodd" clip-rule="evenodd" d="M3.00468 8.36715H8.82241C9.19628 8.36715 9.49888 8.06412 9.49888 7.69059C9.49888 7.31673 9.19594 7.0137 8.82241 7.0137H3.00468C2.63081 7.0137 2.32813 7.31673 2.32813 7.69059C2.32779 8.06412 2.63081 8.36715 3.00468 8.36715Z" fill="#FFFFFF"/>
<path fill-rule="evenodd" clip-rule="evenodd" d="M11.1495 8.36715H12.3132C12.6871 8.36715 12.9901 8.06412 12.9901 7.69059C12.9901 7.31673 12.6871 7.0137 12.3132 7.0137H11.1495C10.776 7.0137 10.4727 7.31673 10.4727 7.69059C10.4727 8.06412 10.776 8.36715 11.1495 8.36715Z" fill="#FFFFFF"/>
<path fill-rule="evenodd" clip-rule="evenodd" d="M3.00468 11.8568H8.82241C9.19628 11.8568 9.49888 11.5539 9.49888 11.1803C9.49888 10.8064 9.19594 10.5034 8.82241 10.5034H3.00468C2.63081 10.5034 2.32812 10.8064 2.32812 11.1803C2.32812 11.5539 2.63081 11.8568 3.00468 11.8568Z" fill="#FFFFFF"/>
<path fill-rule="evenodd" clip-rule="evenodd" d="M11.1495 11.8568H12.3132C12.6871 11.8568 12.9901 11.5539 12.9901 11.1803C12.9901 10.8064 12.6871 10.5034 12.3132 10.5034H11.1495C10.776 10.5034 10.4727 10.8064 10.4727 11.1803C10.4727 11.5539 10.776 11.8568 11.1495 11.8568Z" fill="#FFFFFF"/>
<path fill-rule="evenodd" clip-rule="evenodd" d="M9.9854 15.3468H12.3125C12.6863 15.3468 12.9893 15.0439 12.9893 14.67C12.9893 14.2964 12.6863 13.9934 12.3125 13.9934H9.9854C9.61153 13.9934 9.30859 14.2964 9.30859 14.67C9.30859 15.0439 9.61153 15.3468 9.9854 15.3468Z" fill="#FFFFFF"/>
</svg>
