<svg width="20" height="20" viewBox="0 0 20 20" fill="none" xmlns="http://www.w3.org/2000/svg">
<path fill-rule="evenodd" clip-rule="evenodd" d="M13.0836 6.64292C13.0836 7.0744 12.7339 7.42401 12.3025 7.42401H10.7404V8.98635C10.7404 9.41772 10.3906 9.76745 9.95926 9.76745C9.52773 9.76745 9.17816 9.41772 9.17816 8.98635V7.42401H7.61582C7.18445 7.42401 6.83473 7.0744 6.83473 6.64292C6.83473 6.21155 7.18445 5.86178 7.61582 5.86178H9.17816V4.2996C9.17816 3.86823 9.52773 3.5185 9.95926 3.5185C10.3906 3.5185 10.7404 3.86823 10.7404 4.2996V5.86178H12.3025C12.7339 5.86178 13.0836 6.21155 13.0836 6.64292ZM18.4343 12.9699V8.54249L11.6481 12.7623C11.1394 13.0786 10.5688 13.2368 9.99832 13.2368C9.42781 13.2368 8.85727 13.0786 8.3484 12.7623L1.56219 8.54249V16.8756C1.56219 17.7369 2.26305 18.4378 3.12438 18.4378H16.8721C17.7335 18.4378 18.4343 17.7369 18.4343 16.8756C18.4343 16.4441 18.784 16.0945 19.2154 16.0945C19.6468 16.0945 19.9965 16.4441 19.9965 16.8756C19.9965 18.5983 18.595 20 16.8721 20H3.12438C1.40168 20 0 18.5983 0 16.8756V7.52518C0 6.45417 0.538633 5.47026 1.4409 4.89303L8.34 0.480027C8.34273 0.478191 8.34551 0.476355 8.3484 0.474519C9.36602 -0.158254 10.6305 -0.158254 11.6481 0.474519C11.6512 0.476355 11.6541 0.478191 11.657 0.480183L18.557 4.8985C19.4583 5.47577 19.9965 6.45932 19.9965 7.5296V12.9699C19.9965 13.4013 19.6468 13.751 19.2154 13.751C18.784 13.751 18.4343 13.4013 18.4343 12.9699ZM18.2596 6.81135C18.1358 6.57194 17.9503 6.36503 17.7145 6.21413L10.8193 1.79885C10.3123 1.48557 9.68398 1.48557 9.17711 1.79901L2.28273 6.20909C2.04543 6.36093 1.85914 6.56921 1.73508 6.8103L9.17328 11.4355C9.68215 11.7519 10.3143 11.7519 10.8232 11.4355L18.2596 6.81135Z" fill="#98ACC1"/>
</svg>
