<svg width="19" height="16" viewBox="0 0 19 16" fill="none" xmlns="http://www.w3.org/2000/svg">
<path fill-rule="evenodd" clip-rule="evenodd" d="M9.08445 12.802C8.20373 12.802 7.4875 13.5184 7.4875 14.3989C7.4875 15.2795 8.20373 15.9957 9.08445 15.9957C9.96501 15.9957 10.6812 15.2795 10.6812 14.3989C10.6812 13.5184 9.96501 12.802 9.08445 12.802Z" fill="#FFFFFF"/>
<path fill-rule="evenodd" clip-rule="evenodd" d="M9.08445 0.0334473C5.79919 0.0334473 2.75336 1.10481 0.200965 3.13094C-0.0298614 3.31494 -0.0665192 3.6498 0.115134 3.87914L0.856539 4.81247C1.04072 5.04426 1.37291 5.07398 1.60417 4.88927C3.74127 3.18303 6.40335 2.15636 9.35055 2.15636C12.1549 2.15636 14.7102 3.08177 16.7876 4.64052C17.0182 4.81357 17.3446 4.77162 17.5239 4.54595L18.0536 3.87914C18.2357 3.6497 18.1985 3.31483 17.9679 3.13094C15.4155 1.10481 12.3697 0.0334473 9.08445 0.0334473Z" fill="#FFFFFF"/>
<path fill-rule="evenodd" clip-rule="evenodd" d="M9.08445 4.29004C6.76875 4.29004 4.59374 5.04631 2.79499 6.4777C2.56999 6.65687 2.53988 6.99297 2.71876 7.21825L3.4586 8.14977C3.64541 8.38476 3.9818 8.41032 4.21625 8.22284C5.62624 7.09491 7.40846 6.41448 9.35054 6.41448C11.1568 6.41448 12.8292 6.99809 14.1894 7.98629C14.4199 8.15379 14.7415 8.1102 14.9189 7.88698L15.45 7.21825C15.6321 6.98878 15.5948 6.65395 15.3643 6.47006C13.5674 5.04364 11.396 4.29004 9.08445 4.29004Z" fill="#FFFFFF"/>
<path fill-rule="evenodd" clip-rule="evenodd" d="M5.42738 9.82526C5.20669 10.0023 5.1861 10.3354 5.36196 10.5571L6.09974 11.4866C6.27958 11.713 6.61238 11.7612 6.83599 11.5776C7.52221 11.0146 8.39528 10.6729 9.35055 10.6729C10.1758 10.6729 10.9354 10.9336 11.5699 11.3673C11.7911 11.5184 12.0958 11.4529 12.2624 11.243L12.8069 10.5571C12.9825 10.3356 12.9618 10.0021 12.7413 9.82512C10.6617 8.15788 7.50696 8.15788 5.42738 9.82526Z" fill="#FFFFFF"/>
</svg>
