<svg width="27" height="25" viewBox="0 0 27 25" fill="none" xmlns="http://www.w3.org/2000/svg">
<path fill-rule="evenodd" clip-rule="evenodd" d="M9.54324 6.93677C7.18835 6.93677 5.27258 8.85253 5.27258 11.2073C5.27258 13.5621 7.18835 15.4779 9.54324 15.4779C11.898 15.4779 13.8137 13.5621 13.8137 11.2073C13.8137 8.85253 11.898 6.93677 9.54324 6.93677ZM12.0787 10.403L9.01928 13.4624C8.89088 13.5909 8.72242 13.6552 8.55415 13.6552C8.38591 13.6552 8.21763 13.591 8.08919 13.4624L6.92004 12.2933C6.6632 12.0366 6.6632 11.6202 6.92004 11.3634C7.17675 11.1065 7.59311 11.1065 7.84995 11.3634L8.55415 12.0676L11.1488 9.47312C11.4055 9.21623 11.8219 9.21623 12.0787 9.47312C12.3356 9.72978 12.3356 10.1462 12.0787 10.403Z" fill="white"/>
<path fill-rule="evenodd" clip-rule="evenodd" d="M19.0643 6.08141L19.0637 6.06398C19.0539 5.84869 19.0474 5.62087 19.0435 5.36745C19.0252 4.13163 18.0427 3.10935 16.8067 3.04027C14.2297 2.89646 12.2362 2.05616 10.5328 0.395877L10.5183 0.382044C9.96266 -0.127389 9.12459 -0.127389 8.5688 0.382044L8.55427 0.395877C6.85091 2.05616 4.85735 2.89646 2.28033 3.04044C1.04446 3.10935 0.0618913 4.13163 0.0435926 5.36762C0.0398277 5.61934 0.0331736 5.84711 0.0234114 6.06398L0.0224045 6.10448C-0.0277201 8.73232 -0.0899708 12.0028 1.00415 14.9712C1.60573 16.6036 2.51681 18.0226 3.71197 19.189C5.07317 20.5174 6.85603 21.572 9.01104 22.3234C9.08112 22.3478 9.15397 22.3676 9.22821 22.3825C9.33284 22.4034 9.43821 22.4138 9.54354 22.4138C9.64887 22.4138 9.75437 22.4034 9.85886 22.3825C9.93307 22.3676 10.0064 22.3476 10.0769 22.323C12.2293 21.5702 14.0103 20.5151 15.3703 19.187C16.565 18.0202 17.4761 16.6009 18.0782 14.9681C19.1763 11.9908 19.1143 8.7142 19.0643 6.08141ZM9.54319 16.7931C6.46309 16.7931 3.95734 14.2874 3.95734 11.2072C3.95734 8.1271 6.46309 5.6214 9.54319 5.6214C12.6232 5.6214 15.129 8.1271 15.129 11.2072C15.129 14.2874 12.6232 16.7931 9.54319 16.7931Z" fill="white"/>
<path d="M22.4586 16.8358C23.6025 17.1109 24.603 17.5448 25.2026 18.4882C25.5283 19.0001 25.6768 19.5706 25.7537 20.1774C25.8284 20.7667 25.8414 21.4494 25.8558 22.2049L25.8564 22.2348L25.8564 22.2355L25.861 22.4691C25.861 22.4691 25.861 22.4691 25.861 22.4691C25.8678 22.809 25.7377 23.1375 25.4992 23.3805C25.2613 23.6232 24.9356 23.7597 24.596 23.7597H14.8597C14.5196 23.7597 14.1941 23.6226 13.9564 23.3802L13.9558 23.3796C13.7185 23.137 13.5884 22.8093 13.5951 22.4697L13.5951 22.4701L14.345 22.4841L13.5951 22.4691L13.5994 22.2358L13.5995 22.2354L13.6001 22.203C13.6146 21.4483 13.6277 20.7662 13.7024 20.1774C13.7793 19.5706 13.9277 19.0001 14.2532 18.4882L22.4586 16.8358ZM22.4586 16.8358C23.1934 15.9856 23.6117 14.8161 23.6117 13.6215C23.6117 12.335 23.4368 11.3422 22.931 10.567L22.931 10.567C22.2541 9.52978 20.8865 9.11208 19.7278 9.11208C18.5693 9.11208 17.2017 9.52981 16.5248 10.567L16.5248 10.567C16.019 11.3422 15.8441 12.335 15.8441 13.6215C15.8441 14.8162 16.2626 15.9856 16.9974 16.8358M22.4586 16.8358L16.9974 16.8358M16.9974 16.8358C15.8533 17.1109 14.8529 17.5447 14.2532 18.4881L16.9974 16.8358Z" fill="white" stroke="#246CF2" stroke-width="1.5"/>
</svg>
