<svg width="18" height="18" viewBox="0 0 18 18" fill="none" xmlns="http://www.w3.org/2000/svg">
<path fill-rule="evenodd" clip-rule="evenodd" d="M9 0C4.03748 0 0 4.03748 0 9C0 13.9625 4.03748 18 9 18C13.9625 18 18 13.9625 18 9C18 4.03748 13.9625 0 9 0ZM2.25 9C2.25 7.54448 2.71767 6.19866 3.50428 5.09508L12.9049 14.4957C11.8013 15.2822 10.4555 15.75 9 15.75C5.27784 15.75 2.25 12.7222 2.25 9ZM14.4957 12.9049L5.09489 3.50428C6.19866 2.71781 7.54448 2.25 9 2.25C12.7222 2.25 15.75 5.27784 15.75 9C15.75 10.4555 15.2822 11.8013 14.4957 12.9049Z" fill="#DA473C"/>
</svg>
