<svg width="23" height="30" viewBox="0 0 23 30" fill="none" xmlns="http://www.w3.org/2000/svg">
<path fill-rule="evenodd" clip-rule="evenodd" d="M15.9046 0.130432H0.764348C0.341087 0.130432 0 0.471519 0 1.13413V28.8261C0 29.0067 0.341087 29.3485 0.764348 29.3485H21.6717C22.0924 29.3485 22.4335 29.0067 22.4335 28.8261V6.90195C22.4335 6.53739 22.3852 6.42065 22.3011 6.33652L16.2307 0.265432C16.1439 0.178693 16.0265 0.130432 15.9046 0.130432Z" fill="#E9E9E0"/>
<path fill-rule="evenodd" clip-rule="evenodd" d="M16.1738 0.209351V6.39261H22.3538L16.1738 0.209351Z" fill="#D9D7CA"/>
<path fill-rule="evenodd" clip-rule="evenodd" d="M6.7901 17.5174C6.60945 17.5174 6.43597 17.4587 6.28597 17.3465C5.74336 16.9389 5.66902 16.4857 5.70489 16.1772C5.79945 15.3267 6.8488 14.4378 8.82815 13.5333C9.61271 11.8135 10.3595 9.69391 10.8023 7.92326C10.2831 6.78978 9.77576 5.31978 10.1455 4.45891C10.2753 4.15565 10.4358 3.92348 10.7364 3.82435C10.8564 3.78391 11.1564 3.735 11.266 3.735C11.5314 3.735 11.7603 4.07413 11.926 4.28283C12.0792 4.47913 12.4281 4.89457 11.7297 7.83196C12.4327 9.2837 13.4318 10.7641 14.3847 11.775C15.0695 11.653 15.6584 11.5891 16.1371 11.5891C16.9549 11.5891 17.4492 11.7802 17.6501 12.1728C17.8184 12.4963 17.7499 12.8759 17.4492 13.2985C17.1564 13.7061 16.756 13.9207 16.2903 13.9207C15.6558 13.9207 14.9168 13.5202 14.0912 12.7278C12.6114 13.0389 10.8845 13.5893 9.48554 14.2004C9.04989 15.1252 8.63184 15.872 8.2425 16.4198C7.70967 17.1685 7.24597 17.5174 6.7901 17.5174ZM8.17858 14.8428C7.06532 15.4696 6.60945 15.9841 6.5788 16.2743C6.57097 16.3226 6.55858 16.4478 6.80315 16.6363C6.87945 16.6109 7.33271 16.4041 8.17858 14.8428ZM15.2938 12.5243C15.7197 12.853 15.824 13.0187 16.1018 13.0187C16.2238 13.0187 16.5727 13.0135 16.7331 12.7865C16.8095 12.677 16.8401 12.6085 16.8531 12.57C16.7892 12.5367 16.7025 12.4683 16.2388 12.4683C15.9766 12.4683 15.6453 12.4813 15.2938 12.5243ZM11.3964 9.09C11.024 10.382 10.5323 11.775 10.0027 13.0363C11.0931 12.6137 12.2775 12.2439 13.3908 11.9843C12.6877 11.1665 11.9821 10.1446 11.3964 9.09ZM11.0801 4.67544C11.0292 4.69304 10.3875 5.59239 11.131 6.35413C11.6253 5.2513 11.1029 4.66761 11.0801 4.67544Z" fill="#CC4B4C"/>
<path fill-rule="evenodd" clip-rule="evenodd" d="M21.6717 29.3485H0.764348C0.341087 29.3485 0 29.0067 0 28.5841V20.4776H22.4335V28.5841C22.4335 29.0067 22.0924 29.3485 21.6717 29.3485Z" fill="#CC4B4C"/>
<path fill-rule="evenodd" clip-rule="evenodd" d="M5.67792 27.7813H4.82227V22.5261H6.33531C6.55705 22.5261 6.77879 22.562 6.99727 22.633C7.2164 22.7041 7.4127 22.8111 7.58618 22.9539C7.759 23.0967 7.89922 23.2676 8.00618 23.4711C8.11314 23.6726 8.16661 23.8989 8.16661 24.1513C8.16661 24.4187 8.12357 24.658 8.03161 24.8746C7.94292 25.0911 7.81509 25.275 7.65466 25.4224C7.49161 25.5678 7.29792 25.6826 7.069 25.7641C6.84205 25.8457 6.5877 25.8861 6.31248 25.8861H5.67792V27.7813ZM5.67792 23.1757V25.2567H6.46248C6.56683 25.2567 6.67118 25.2391 6.77357 25.2033C6.87531 25.168 6.96987 25.1094 7.05596 25.0278C7.14009 24.9489 7.20922 24.8341 7.2627 24.6913C7.31357 24.5465 7.34161 24.3652 7.34161 24.1513C7.34161 24.0672 7.32857 23.968 7.30574 23.8559C7.28031 23.7437 7.23205 23.6367 7.15835 23.535C7.084 23.4326 6.98227 23.3465 6.84727 23.2774C6.71487 23.2089 6.53879 23.1757 6.31966 23.1757H5.67792Z" fill="white"/>
<path fill-rule="evenodd" clip-rule="evenodd" d="M13.4182 25.0076C13.4182 25.4407 13.3725 25.8098 13.2806 26.1183C13.1867 26.4235 13.0693 26.6811 12.9264 26.8872C12.7843 27.0939 12.6232 27.257 12.4451 27.3763C12.2671 27.4963 12.0936 27.5857 11.928 27.6444C11.7623 27.7024 11.6097 27.7409 11.4721 27.7585C11.3345 27.7741 11.2327 27.7813 11.1636 27.7813H9.17383V22.5261H10.7586C11.1995 22.5261 11.5895 22.5946 11.9227 22.7348C12.2593 22.875 12.5371 23.0635 12.7582 23.2957C12.9799 23.5272 13.1456 23.7946 13.2551 24.09C13.3647 24.388 13.4182 24.6939 13.4182 25.0076ZM10.8786 27.1552C11.459 27.1552 11.8771 26.9687 12.134 26.5996C12.3917 26.2278 12.5188 25.6898 12.5188 24.9867C12.5188 24.7676 12.4934 24.5511 12.4425 24.3372C12.389 24.1233 12.2873 23.9296 12.1393 23.7567C11.9893 23.5833 11.7851 23.443 11.5282 23.3361C11.2706 23.2291 10.9393 23.1757 10.5297 23.1757H10.0301V27.1552H10.8786Z" fill="white"/>
<path fill-rule="evenodd" clip-rule="evenodd" d="M15.5289 23.1757V24.8289H17.7254V25.4152H15.5289V27.7813H14.6582V22.5261H17.9471V23.1757H15.5289Z" fill="white"/>
</svg>
