<svg width="20" height="20" viewBox="0 0 20 20" fill="none" xmlns="http://www.w3.org/2000/svg">
<path fill-rule="evenodd" clip-rule="evenodd" d="M18.8324 11.7045L13.4055 17.7468L10.3429 14.8316L9.26562 15.9633L13.4932 19.9875L19.9949 12.7486L18.8324 11.7045Z" fill="#98ACC1"/>
<path fill-rule="evenodd" clip-rule="evenodd" d="M5.78125 5.78125C5.78125 3.45504 7.67379 1.5625 10 1.5625C12.3262 1.5625 14.2188 3.45504 14.2188 5.78125C14.2188 8.10746 12.3262 10 10 10C7.67379 10 5.78125 8.10746 5.78125 5.78125ZM15.2263 13.3817L16.2754 12.2137C15.37 11.4812 14.3551 10.9199 13.2709 10.5455C14.7859 9.50215 15.7812 7.75586 15.7812 5.78125C15.7812 2.59348 13.1878 0 10 0C6.81223 0 4.21875 2.59348 4.21875 5.78125C4.21875 7.75578 5.21402 9.50199 6.72895 10.5454C5.31449 11.0335 4.01809 11.8398 2.92891 12.9289C1.0402 14.8177 0 17.3289 0 20H1.5625C1.5625 15.3475 5.34754 11.5625 10 11.5625C11.9723 11.5625 13.788 12.2435 15.2263 13.3817Z" fill="#98ACC1"/>
</svg>