<svg width="98" height="30" viewBox="0 0 98 30" fill="none" xmlns="http://www.w3.org/2000/svg">
<path fill-rule="evenodd" clip-rule="evenodd" d="M98.6369 13.2437C98.6369 13.2437 95.5399 13.9232 92.886 13.4318C90.2321 12.9404 90.5632 12.6699 89.5197 11.571C88.4762 10.4721 86.367 12.6563 84.0999 12.5513C80.9136 12.4037 80.1867 11.351 75.9941 7.82458C71.8015 4.29816 70.2596 5.85519 67.1904 8.19545C64.1211 10.5357 64.5513 8.9527 61.0797 9.0879C57.6081 9.22309 55.318 16.0896 49.9192 16.3332C44.5204 16.5769 44.2598 0.098447 40.7451 0.00106354C37.2305 -0.0963199 37.9701 6.52614 35.4389 6.65064C32.9077 6.77513 34.0439 15.6221 28.6008 15.9502C23.1578 16.2782 22.7982 6.02433 18.7 5.8372C14.6018 5.65007 12.9789 19.3876 8.07775 13.9448C3.17665 8.50207 2.4269 14.6652 1.71475 14.7377C1.00261 14.8101 0.004776 14.7659 0.004776 14.7659V30.0946H100V13.7753L98.9847 13.394L98.6369 13.2437Z" fill="#53A8E2" fill-opacity="0.1"/>
<path d="M40.5984 2.16853L40.5727 3.1682L40.5707 3.16814L40.5984 2.16853ZM39.9818 2.29421L40.4388 3.18369L39.5493 3.64067L39.0924 2.75119L39.9818 2.29421ZM40.5986 2.16853L40.5744 3.16824L40.573 3.1682L40.5986 2.16853ZM41.0158 2.51903L41.8079 1.90863V1.90864L41.0158 2.51903ZM41.8507 4.15778L42.783 3.79616V3.79616L41.8507 4.15778ZM43.1454 8.32628L44.1082 8.05585V8.05585L43.1454 8.32628ZM43.5455 9.73923L42.5844 10.0156V10.0156L43.5455 9.73923ZM45.7088 15.5506L44.8342 16.0356V16.0356L45.7088 15.5506ZM49.8452 18.5001L49.8903 19.499L49.8452 18.5001ZM56.8269 14.5277L56.1031 13.8377L56.1031 13.8377L56.8269 14.5277ZM57.3966 13.9243L58.1254 14.6091L58.1254 14.6091L57.3966 13.9243ZM59.1576 12.1738L58.5114 11.4106L59.1576 12.1738ZM60.9995 11.255L60.9606 10.2557L60.9995 11.255ZM63.1689 11.4617L63.3977 10.4882L63.1689 11.4617ZM64.0462 11.6291L63.9255 12.6218L64.0462 11.6291ZM65.6895 11.3962L66.0691 12.3213L66.0691 12.3213L65.6895 11.3962ZM67.6776 10.1585L67.0713 9.36329V9.36329L67.6776 10.1585ZM68.1665 9.78365L68.7761 10.5764V10.5764L68.1665 9.78365ZM69.6997 8.65887L70.2474 9.49559L69.6997 8.65887ZM71.2351 7.96093L71.4183 8.94401L71.2351 7.96093ZM75.2314 9.75772L75.875 8.99243V8.99243L75.2314 9.75772ZM76.7627 11.0623L77.414 10.3034V10.3034L76.7627 11.0623ZM79.7578 13.4596L79.2102 14.2964L79.2102 14.2964L79.7578 13.4596ZM83.9346 14.7181L83.8883 15.717L83.9346 14.7181ZM87.2747 13.8901L87.6693 14.8089L87.2747 13.8901ZM87.537 13.7782L87.1496 12.8563H87.1496L87.537 13.7782ZM88.5592 13.4351L88.4323 12.4432L88.4323 12.4432L88.5592 13.4351ZM88.6783 13.4304L88.79 12.4367L89.1526 12.4775L89.4037 12.7421L88.6783 13.4304ZM89.0742 13.8659L89.8232 13.2033L89.8232 13.2033L89.0742 13.8659ZM89.3235 14.1444L90.062 13.4702L90.062 13.4702L89.3235 14.1444ZM90.0825 14.846L90.6729 14.0389L90.0825 14.846ZM92.7188 15.8086L92.8947 14.8242L92.7188 15.8086ZM97.278 15.5186L97.5562 16.4791L97.5562 16.4791L97.278 15.5186ZM97.7749 15.3795L98.0259 16.3475H98.0259L97.7749 15.3795ZM99.0507 15.2934L98.9641 16.2896H98.9641L99.0507 15.2934ZM99.4841 15.3517L99.6673 14.3686L99.6673 14.3686L99.4841 15.3517ZM99.595 15.3744L99.8157 14.399L99.8227 14.4006L99.595 15.3744ZM99.6171 15.3795L99.8688 14.4117L99.8946 14.4184L99.92 14.4265L99.6171 15.3795ZM99.6164 15.3793L99.3647 16.3471L99.3646 16.3471L99.6164 15.3793ZM99.6159 15.3792L99.3642 16.347L99.3638 16.3469L99.6159 15.3792ZM100.12 13.4439L100.372 12.4761L100.373 12.4763L100.12 13.4439ZM100.12 13.4437L100.371 12.4759L100.372 12.476L100.12 13.4437ZM100.119 13.4435L100.369 12.4752L100.37 12.4756L100.119 13.4435ZM100.116 13.4428L100.363 12.4738L100.366 12.4746L100.116 13.4428ZM100.11 13.4412L100.351 12.4706L100.357 12.4722L100.11 13.4412ZM100.092 13.4367L100.329 12.4653L100.333 12.4662L100.092 13.4367ZM100.036 13.4237L100.257 12.4483L100.257 12.4483L100.036 13.4237ZM99.8505 13.3856L99.6673 14.3686L99.6673 14.3686L99.8505 13.3856ZM99.2237 13.3009L99.3102 12.3046H99.3102L99.2237 13.3009ZM97.2729 13.4435L97.5239 14.4115H97.5239L97.2729 13.4435ZM96.7015 13.6019L96.9769 14.5632L96.9769 14.5632L96.7015 13.6019ZM93.0706 13.8398L92.8947 14.8242L93.0706 13.8398ZM91.2633 13.2317L90.6729 14.0389H90.6729L91.2633 13.2317ZM90.8005 12.796L91.5391 12.1218V12.1218L90.8005 12.796ZM90.6133 12.5867L91.3612 11.9229L90.6133 12.5867ZM90.1257 12.0502L90.8509 11.3617L90.8509 11.3617L90.1257 12.0502ZM88.3054 11.4513L88.1785 10.4593H88.1785L88.3054 11.4513ZM86.7621 11.9344L87.1496 12.8563L87.1495 12.8563L86.7621 11.9344ZM86.5308 12.032L86.9204 12.953L86.9204 12.953L86.5308 12.032ZM84.0271 12.7202L84.0734 11.7213L84.0271 12.7202ZM80.8528 11.7861L81.4003 10.9493L81.4004 10.9493L80.8528 11.7861ZM78.182 9.64351L77.5308 10.4024V10.4024L78.182 9.64351ZM76.5187 8.22714L77.1624 7.46185V7.46186L76.5187 8.22714ZM70.8687 5.99478L71.0519 6.97785L70.8687 5.99478ZM68.6045 6.98542L68.0569 6.1487V6.1487L68.6045 6.98542ZM66.9125 8.22478L66.3027 7.43221L66.3027 7.4322L66.9125 8.22478ZM66.4649 8.56809L65.8586 7.77288V7.77288L66.4649 8.56809ZM64.9303 9.54587L65.3099 10.471L65.3099 10.471L64.9303 9.54587ZM64.2875 9.64373L64.1668 10.6364L64.1668 10.6364L64.2875 9.64373ZM63.8933 9.5634L63.6703 10.5382L63.8933 9.5634ZM60.9217 9.2565L60.8828 8.25726L60.9217 9.2565ZM57.8653 10.6474L57.2191 9.88422L57.2191 9.88422L57.8653 10.6474ZM55.8892 12.6072L55.1601 11.9228L55.1601 11.9228L55.8892 12.6072ZM55.3792 13.1478L56.1031 13.8377L55.3792 13.1478ZM49.755 16.5021L49.7099 15.5031L49.755 16.5021ZM47.4578 14.5807L48.3324 14.0957V14.0957L47.4578 14.5807ZM45.4676 9.18653L44.5065 9.46288V9.46288L45.4676 9.18653ZM45.0901 7.85242L46.0529 7.58216L46.0529 7.58216L45.0901 7.85242ZM43.7154 3.43454L44.6477 3.07291L44.6477 3.07292L43.7154 3.43454ZM42.6 1.29824L41.8079 1.90864V1.90863L42.6 1.29824ZM40.6537 0.169294L40.6814 -0.830323L40.6537 0.169294ZM39.0679 0.515254L38.1784 0.972231L37.7214 0.0827543L38.6109 -0.374224L39.0679 0.515254ZM99.6197 15.3802L99.3747 16.3497L99.372 16.349L99.6197 15.3802ZM99.6184 15.3798L99.8461 14.4061L99.8561 14.4084L99.866 14.411L99.6184 15.3798ZM40 2.24998V3.24998H39V2.24998H40ZM40.0138 2.24981L39.043 2.48956L39.043 2.48956L40.0138 2.24981ZM40 0.249981V-0.750019H41V0.249981H40ZM37.8328 1.7195L36.9942 1.17482V1.17482L37.8328 1.7195ZM36.6484 4.10713L37.5672 4.5019V4.5019L36.6484 4.10713ZM36.5763 4.2753L37.4952 4.66965V4.66965L36.5763 4.2753ZM35.6474 6.24869L36.5093 6.75578L36.5093 6.75578L35.6474 6.24869ZM35.2566 6.78343L35.9422 7.51149V7.51149L35.2566 6.78343ZM35.21 6.82356L35.8143 7.62028L35.5805 7.79762L35.288 7.82051L35.21 6.82356ZM33.7687 7.58329L33.0149 6.92621V6.92621L33.7687 7.58329ZM33.0181 8.91251L32.0873 8.5471L33.0181 8.91251ZM32.5181 10.4524L33.4791 10.7291V10.7291L32.5181 10.4524ZM32.4006 10.8636L31.4388 10.5898V10.5898L32.4006 10.8636ZM32.0387 12.0922L31.0847 11.7924V11.7924L32.0387 12.0922ZM30.7082 14.9213L31.4906 15.5441V15.5441L30.7082 14.9213ZM28.4216 16.1198L28.4818 17.118L28.4216 16.1198ZM25.9433 15.0176L26.6719 14.3326L25.9433 15.0176ZM23.9201 11.8048L23.027 12.2547V12.2547L23.9201 11.8048ZM23.6139 11.1913L22.7183 11.6362L23.6139 11.1913ZM21.9077 8.13274L21.0914 8.71028V8.71028L21.9077 8.13274ZM18.6265 6.00609L18.5809 7.00504L18.6265 6.00609ZM16.5348 6.73365L15.9208 5.94437L16.5348 6.73365ZM15.0562 8.39361L14.2309 7.82891V7.82891L15.0562 8.39361ZM13.3593 11.3243L12.4777 10.8524L13.3593 11.3243ZM12.6986 12.5408L11.8263 12.0518L12.6986 12.5408ZM11.5961 14.2856L10.7993 13.6813V13.6813L11.5961 14.2856ZM10.612 15.2484L11.1097 16.1157V16.1157L10.612 15.2484ZM9.92313 15.3562L10.1921 14.393L10.1921 14.393L9.92313 15.3562ZM8.70179 14.4435L9.44491 13.7744V13.7744L8.70179 14.4435ZM5.23212 11.9583L5.46729 10.9863L5.23212 11.9583ZM2.50713 12.726L1.80795 12.011L2.50713 12.726ZM1.30353 14.5448L0.40593 14.104L0.405937 14.104L1.30353 14.5448ZM1.24074 14.673L0.342537 14.2334L0.34256 14.2333L1.24074 14.673ZM1.11021 14.9368L2.00161 15.3901L1.73661 15.9112L1.15244 15.9359L1.11021 14.9368ZM0.479507 14.9468L0.485382 13.9468L0.479507 14.9468ZM0.0814667 14.94L0.110184 13.9404H0.110207L0.0814667 14.94ZM0.00871277 14.9377L-0.0249329 15.9371L-0.0249634 15.9371L0.00871277 14.9377ZM-0.0328827 14.9362L-0.0700302 15.9355L-0.0717087 15.9355L-0.0328827 14.9362ZM-0.062088 14.9351L-0.100914 15.9343L-0.1036 15.9342L-0.062088 14.9351ZM-0.0688553 14.9348L-0.110367 15.9339L-0.111572 15.9339L-0.0688553 14.9348ZM-0.0701752 14.9347L-1.0692 14.8906L-1.02512 13.893L-0.0274582 13.9357L-0.0701752 14.9347ZM-0.114304 15.9338L0.88472 15.9779V15.978L-0.114304 15.9338ZM-0.158417 16.9328L-0.125099 15.9334L-0.117477 15.9336L-0.109856 15.934L-0.158417 16.9328ZM-0.158279 16.9328L-0.200371 17.9319L-0.206833 17.9316L-0.158279 16.9328ZM-0.157936 16.9328L-0.115837 15.9337L-0.114151 15.9338L-0.157936 16.9328ZM-0.156982 16.9329L-0.199936 17.9319L-0.20076 17.9319L-0.156982 16.9329ZM-0.153984 16.933L-0.195663 17.9321L-0.196938 17.9321L-0.153984 16.933ZM-0.143768 16.9334L-0.182617 17.9327L-0.18544 17.9325L-0.143768 16.9334ZM-0.107193 16.9348L-0.144348 17.9341L-0.146049 17.9341L-0.107193 16.9348ZM0.0240021 16.9391L0.0527344 15.9395L0.0240021 16.9391ZM0.467758 16.9468L0.461884 17.9468H0.461876L0.467758 16.9468ZM1.69685 16.9004L1.59567 15.9055L1.69685 16.9004ZM2.45258 16.5168L3.17451 17.2088L3.1745 17.2088L2.45258 16.5168ZM2.73155 16.1393L1.87252 15.6274L1.87253 15.6274L2.73155 16.1393ZM3.04739 15.5314L3.94614 15.9699V15.9699L3.04739 15.5314ZM3.09869 15.4265L3.99628 15.8674L3.99627 15.8674L3.09869 15.4265ZM3.9055 14.1558L4.60468 14.8708L4.60468 14.8708L3.9055 14.1558ZM4.76177 13.9022L4.5266 14.8741L4.5266 14.8741L4.76177 13.9022ZM7.21555 15.7819L6.47243 16.451V16.451L7.21555 15.7819ZM9.38518 17.2825L9.65415 16.3193H9.65416L9.38518 17.2825ZM11.6075 16.9831L11.1097 16.1157V16.1157L11.6075 16.9831ZM13.1896 15.4942L13.9863 16.0985V16.0985L13.1896 15.4942ZM14.4432 13.5187L13.5709 13.0297V13.0297L14.4432 13.5187ZM15.1883 12.1477L14.3064 11.6761L15.1883 12.1477ZM16.7067 9.52301L17.532 10.0877V10.0877L16.7067 9.52301ZM17.7629 8.31221L17.1488 7.52293V7.52293L17.7629 8.31221ZM18.5353 8.004L18.4897 9.00296H18.4896L18.5353 8.004ZM20.275 9.28782L19.4587 9.86536V9.86535L20.275 9.28782ZM21.8001 12.0367L20.9049 12.4823V12.4823L21.8001 12.0367ZM22.1339 12.7046L21.2408 13.1546V13.1546L22.1339 12.7046ZM24.4862 16.3876L23.7576 17.0726L24.4862 16.3876ZM28.5419 18.1162L28.4818 17.118L28.5419 18.1162ZM32.273 16.1669L33.0554 16.7896V16.7896L32.273 16.1669ZM33.9468 12.6917L32.9928 12.3919V12.3919L33.9468 12.6917ZM34.3299 11.3914L33.368 11.1177L34.3299 11.3914ZM34.44 11.0059L35.401 11.2826V11.2826L34.44 11.0059ZM34.8798 9.64334L33.949 9.27793V9.27793L34.8798 9.64334ZM35.2764 8.89744L36.0302 9.55451V9.55452L35.2764 8.89744ZM35.363 8.8186L35.8402 9.69735L35.8402 9.69736L35.363 8.8186ZM35.3644 8.81766L34.8962 7.93408L34.8967 7.9338L35.3644 8.81766ZM35.369 8.81728L35.3198 7.81848L35.3198 7.81848L35.369 8.81728ZM36.6277 8.23955L37.3132 8.96761V8.96761L36.6277 8.23955ZM37.3712 7.26287L38.2331 7.76997L37.3712 7.26287ZM38.4005 5.09605L39.3197 5.48992V5.48992L38.4005 5.09605ZM38.486 4.89667L39.4048 5.29144V5.29144L38.486 4.89667ZM39.5101 2.80887L38.6715 2.26419V2.26419L39.5101 2.80887ZM35.1913 6.83641L34.7594 5.9345L35.6982 7.69845L35.1913 6.83641ZM40.5707 3.16814C40.5116 3.16651 40.4784 3.17196 40.4639 3.17517C40.4504 3.17814 40.4438 3.18113 40.4388 3.18369L39.5249 1.40473C39.8385 1.2436 40.2011 1.15714 40.626 1.16891L40.5707 3.16814ZM40.573 3.1682L40.5727 3.1682L40.624 1.16885L40.6242 1.16886L40.573 3.1682ZM40.2237 3.12942C40.1365 3.01623 40.1168 3.02127 40.1746 3.05796C40.2058 3.07778 40.2595 3.10669 40.3354 3.13013C40.3734 3.14185 40.4151 3.15165 40.4603 3.15841C40.4829 3.16179 40.5052 3.16425 40.5271 3.16589C40.538 3.16671 40.5481 3.16728 40.5573 3.16767C40.5618 3.16786 40.5657 3.16799 40.569 3.16809C40.5721 3.16818 40.5745 3.16824 40.5744 3.16824L40.6228 1.16883C41.0622 1.17947 41.4522 1.44708 41.8079 1.90863L40.2237 3.12942ZM40.9184 4.5194C40.6396 3.80054 40.4023 3.36114 40.2237 3.12942L41.8079 1.90864C42.1621 2.36823 42.4817 3.01915 42.783 3.79616L40.9184 4.5194ZM42.1827 8.5967C41.7388 7.01657 41.3461 5.62219 40.9184 4.5194L42.783 3.79616C43.253 5.0079 43.6728 6.50594 44.1082 8.05585L42.1827 8.5967ZM42.5844 10.0156C42.4459 9.53372 42.3123 9.05834 42.1827 8.5967L44.1082 8.05585C44.2381 8.51838 44.37 8.9879 44.5065 9.46288L42.5844 10.0156ZM44.8342 16.0356C43.8713 14.2992 43.17 12.0521 42.5844 10.0156L44.5065 9.46288C45.0961 11.5132 45.7447 13.5534 46.5833 15.0657L44.8342 16.0356ZM49.8903 19.499C47.3255 19.6148 45.7488 17.6849 44.8342 16.0356L46.5833 15.0657C47.4243 16.5822 48.4533 17.5619 49.8001 17.5011L49.8903 19.499ZM57.5508 15.2176C55.884 16.9663 53.4658 19.3377 49.8903 19.499L49.8001 17.5011C52.5 17.3792 54.4224 15.601 56.1031 13.8377L57.5508 15.2176ZM58.1254 14.6091C57.9426 14.8036 57.751 15.0076 57.5508 15.2176L56.1031 13.8377C56.2975 13.6337 56.4844 13.4349 56.6678 13.2396L58.1254 14.6091ZM59.8038 12.937C59.2873 13.3742 58.7686 13.9245 58.1254 14.6091L56.6678 13.2396C57.29 12.5773 57.8906 11.9362 58.5114 11.4106L59.8038 12.937ZM61.0385 12.2542C60.8366 12.2621 60.4685 12.3741 59.8038 12.937L58.5114 11.4106C59.2988 10.7439 60.0928 10.2895 60.9606 10.2557L61.0385 12.2542ZM62.9402 12.4352C62.4584 12.322 62.0229 12.2159 61.0385 12.2542L60.9606 10.2557C62.1887 10.2079 62.816 10.3515 63.3977 10.4882L62.9402 12.4352ZM63.9255 12.6218C63.5238 12.573 63.2082 12.4982 62.9402 12.4352L63.3977 10.4882C63.6653 10.5511 63.8855 10.6022 64.1668 10.6364L63.9255 12.6218ZM66.0691 12.3213C65.2913 12.6404 64.6028 12.7041 63.9255 12.6218L64.1668 10.6364C64.5219 10.6796 64.8644 10.6538 65.3099 10.471L66.0691 12.3213ZM68.284 10.9537C67.4741 11.5712 66.7596 12.038 66.0691 12.3213L65.3099 10.471C65.7555 10.2882 66.3042 9.94817 67.0713 9.36329L68.284 10.9537ZM68.7761 10.5764C68.6202 10.6963 68.4561 10.8224 68.284 10.9537L67.0713 9.36329C67.2397 9.23486 67.4007 9.11112 67.557 8.99091L68.7761 10.5764ZM70.2474 9.49559C69.8125 9.78023 69.3572 10.1296 68.7761 10.5764L67.557 8.99091C68.1217 8.55664 68.641 8.15669 69.1521 7.82215L70.2474 9.49559ZM71.4183 8.94401C71.1425 8.9954 70.7873 9.1422 70.2474 9.49559L69.1521 7.82215C69.7936 7.40232 70.4051 7.09838 71.0519 6.97785L71.4183 8.94401ZM74.5877 10.523C72.6363 8.88169 71.8131 8.87043 71.4183 8.94401L71.0519 6.97785C72.3442 6.73704 73.7775 7.22816 75.875 8.99243L74.5877 10.523ZM76.1115 11.8212C75.6469 11.4225 75.1439 10.9908 74.5877 10.523L75.875 8.99243C76.4398 9.46747 76.9499 9.90522 77.414 10.3034L76.1115 11.8212ZM79.2102 14.2964C78.2955 13.6979 77.3121 12.8515 76.1115 11.8212L77.414 10.3034C78.6515 11.3655 79.524 12.1116 80.3053 12.6229L79.2102 14.2964ZM83.8883 15.717C81.9993 15.6295 80.661 15.2457 79.2102 14.2964L80.3053 12.6229C81.4093 13.3452 82.3876 13.6454 83.9809 13.7192L83.8883 15.717ZM87.6693 14.8089C86.8473 15.162 85.4272 15.7883 83.8883 15.717L83.9809 13.7192C84.9916 13.766 86 13.3492 86.88 12.9712L87.6693 14.8089ZM87.9245 14.7C87.8458 14.7331 87.7619 14.7691 87.6693 14.8089L86.88 12.9712C86.9711 12.9322 87.0623 12.8929 87.1496 12.8563L87.9245 14.7ZM88.6861 14.427C88.6165 14.4359 88.4255 14.4894 87.9245 14.7L87.1496 12.8563C87.617 12.6598 88.0512 12.4919 88.4323 12.4432L88.6861 14.427ZM88.5666 14.4242C88.6052 14.4285 88.6354 14.4291 88.6554 14.4288C88.6655 14.4286 88.6732 14.4281 88.6783 14.4277C88.6834 14.4274 88.6861 14.427 88.6861 14.427L88.4323 12.4432C88.5607 12.4268 88.6794 12.4243 88.79 12.4367L88.5666 14.4242ZM88.3253 14.5286C88.2043 14.3919 88.0966 14.2702 87.9529 14.1188L89.4037 12.7421C89.5737 12.9212 89.7018 13.0662 89.8232 13.2033L88.3253 14.5286ZM88.5849 14.8187C88.4871 14.7115 88.403 14.6164 88.3253 14.5286L89.8232 13.2033C89.9015 13.2918 89.976 13.3761 90.062 13.4702L88.5849 14.8187ZM89.4922 15.6531C89.1073 15.3716 88.8156 15.0713 88.5849 14.8187L90.062 13.4702C90.2579 13.6848 90.4456 13.8726 90.6729 14.0389L89.4922 15.6531ZM92.5429 16.793C91.2541 16.5627 90.2993 16.2435 89.4922 15.6531L90.6729 14.0389C91.1274 14.3713 91.7402 14.6179 92.8947 14.8242L92.5429 16.793ZM97.5562 16.4791C96.4671 16.7946 94.9666 17.226 92.5429 16.793L92.8947 14.8242C94.8722 15.1775 96.0229 14.841 96.9998 14.5581L97.5562 16.4791ZM98.0259 16.3475C97.8828 16.3846 97.732 16.4282 97.5562 16.4791L96.9998 14.5581C97.1699 14.5088 97.3485 14.457 97.5239 14.4115L98.0259 16.3475ZM98.9641 16.2896C98.6587 16.2631 98.3188 16.2716 98.0259 16.3475L97.5239 14.4115C98.1121 14.259 98.6982 14.259 99.1372 14.2971L98.9641 16.2896ZM99.3009 16.3348C99.226 16.3208 99.1085 16.3022 98.9641 16.2896L99.1372 14.2971C99.3567 14.3162 99.5395 14.3448 99.6673 14.3686L99.3009 16.3348ZM99.3743 16.3497C99.3631 16.3472 99.3379 16.3417 99.3009 16.3348L99.6673 14.3686C99.7313 14.3806 99.7815 14.3913 99.8157 14.399L99.3743 16.3497ZM99.3899 16.3534L99.3674 16.3481L99.8227 14.4006L99.8451 14.4059L99.3899 16.3534ZM99.92 14.4265L99.9203 14.4266L99.3147 16.3327L99.3143 16.3326L99.92 14.4265ZM99.868 14.4115L99.8688 14.4117L99.3655 16.3473L99.3647 16.3471L99.868 14.4115ZM99.8677 14.4114L99.8681 14.4115L99.3646 16.3471L99.3642 16.347L99.8677 14.4114ZM100.836 14.6642C100.709 15.1481 100.646 15.3896 100.615 15.5102C100.599 15.5709 100.592 15.5998 100.588 15.6134C100.586 15.6216 100.586 15.6202 100.587 15.6158C100.588 15.6143 100.589 15.6106 100.59 15.6058C100.591 15.6026 100.594 15.5903 100.597 15.5743C100.598 15.5664 100.601 15.5501 100.605 15.5294C100.607 15.515 100.614 15.4659 100.616 15.4026C100.616 15.37 100.616 15.3107 100.606 15.2373C100.596 15.1673 100.57 15.0394 100.493 14.8979C100.403 14.7355 100.27 14.6002 100.107 14.5082C99.976 14.4342 99.8493 14.4066 99.8681 14.4115L99.3638 16.3469C99.3825 16.3518 99.2559 16.3242 99.1247 16.2502C98.9616 16.1582 98.8285 16.0228 98.7394 15.8604C98.6018 15.61 98.6158 15.3741 98.6162 15.3558C98.6177 15.2923 98.6251 15.2433 98.6273 15.2288C98.6305 15.208 98.6336 15.1917 98.6352 15.1836C98.6385 15.1674 98.6414 15.1547 98.6423 15.151C98.6435 15.1456 98.6446 15.1412 98.6452 15.1387C98.6472 15.1306 98.6495 15.1216 98.6513 15.1147C98.6556 15.098 98.6638 15.0665 98.6795 15.0061C98.7111 14.8848 98.7743 14.6426 98.9007 14.1588L100.836 14.6642ZM100.373 12.4763C100.355 12.4717 100.473 12.4976 100.596 12.5642C100.749 12.647 100.883 12.7713 100.978 12.93C101.129 13.1821 101.121 13.4242 101.12 13.4501C101.12 13.5181 101.112 13.5708 101.11 13.5865C101.107 13.6089 101.104 13.6265 101.102 13.6351C101.099 13.6526 101.095 13.6662 101.095 13.6702C101.093 13.676 101.092 13.6807 101.091 13.6833C101.089 13.6919 101.087 13.7013 101.085 13.7081C101.081 13.7249 101.073 13.7566 101.057 13.8169C101.025 13.9383 100.962 14.1805 100.836 14.6642L98.9007 14.1588C99.027 13.675 99.09 13.4335 99.1214 13.3129C99.1372 13.2522 99.1447 13.2234 99.1482 13.2099C99.1503 13.2016 99.1498 13.2034 99.1486 13.2082C99.1482 13.2099 99.1473 13.2139 99.146 13.2192C99.1453 13.2226 99.1422 13.2359 99.1388 13.2531C99.1372 13.2616 99.1339 13.2791 99.1306 13.3014C99.1284 13.3171 99.1209 13.3697 99.1205 13.4377C99.1202 13.4728 99.1216 13.5356 99.1348 13.6129C99.1477 13.6881 99.1785 13.8175 99.2626 13.9577C99.3576 14.1165 99.4917 14.2407 99.6448 14.3235C99.7679 14.3901 99.8855 14.4161 99.8678 14.4114L100.373 12.4763ZM100.372 12.476L100.372 12.4761L99.8684 14.4116L99.8679 14.4115L100.372 12.476ZM100.37 12.4756L100.371 12.4759L99.8685 14.4116L99.8674 14.4113L100.37 12.4756ZM100.366 12.4746L100.369 12.4752L99.8688 14.4117L99.8663 14.411L100.366 12.4746ZM100.357 12.4722L100.363 12.4738L99.8693 14.4118L99.863 14.4102L100.357 12.4722ZM100.333 12.4662L100.351 12.4706L99.869 14.4117L99.8511 14.4073L100.333 12.4662ZM100.257 12.4483C100.286 12.4548 100.31 12.4605 100.329 12.4653L99.8547 14.4082C99.8459 14.406 99.8328 14.4029 99.8157 14.399L100.257 12.4483ZM100.034 12.4025C100.125 12.4194 100.2 12.4354 100.257 12.4483L99.8157 14.399C99.7815 14.3913 99.7313 14.3806 99.6673 14.3686L100.034 12.4025ZM99.3102 12.3046C99.6049 12.3302 99.8529 12.3688 100.034 12.4025L99.6673 14.3686C99.5395 14.3448 99.3567 14.3162 99.1372 14.2971L99.3102 12.3046ZM97.0219 12.4756C97.9053 12.2465 98.7375 12.2549 99.3102 12.3046L99.1372 14.2971C98.6982 14.259 98.1121 14.259 97.5239 14.4115L97.0219 12.4756ZM96.4261 12.6406C96.6104 12.5878 96.8109 12.5303 97.0219 12.4756L97.5239 14.4115C97.3412 14.4589 97.1646 14.5094 96.9769 14.5632L96.4261 12.6406ZM93.2465 12.8554C94.7524 13.1244 95.4982 12.9065 96.4261 12.6406L96.9769 14.5632C95.9291 14.8635 94.8389 15.1716 92.8947 14.8242L93.2465 12.8554ZM91.8537 12.4246C91.9552 12.4989 92.2255 12.6729 93.2465 12.8554L92.8947 14.8242C91.7402 14.6179 91.1275 14.3713 90.6729 14.0389L91.8537 12.4246ZM91.5391 12.1218C91.7011 12.2993 91.7845 12.374 91.8537 12.4246L90.6729 14.0389C90.4455 13.8725 90.2577 13.6846 90.062 13.4702L91.5391 12.1218ZM91.3612 11.9229C91.434 12.0049 91.4924 12.0707 91.5391 12.1218L90.062 13.4702C90.0038 13.4065 89.935 13.329 89.8654 13.2505L91.3612 11.9229ZM90.8509 11.3617C91.0387 11.5594 91.2212 11.7652 91.3612 11.9229L89.8654 13.2505C89.7224 13.0894 89.5616 12.9084 89.4006 12.7388L90.8509 11.3617ZM88.1785 10.4593C88.9738 10.3576 90.0196 10.4863 90.8509 11.3617L89.4006 12.7388C89.1419 12.4664 88.8164 12.394 88.4323 12.4432L88.1785 10.4593ZM86.3746 11.0125C86.8197 10.8254 87.4903 10.5474 88.1785 10.4593L88.4323 12.4432C88.0517 12.4919 87.6182 12.6593 87.1496 12.8563L86.3746 11.0125ZM86.1413 11.111C86.2172 11.0789 86.2953 11.0459 86.3746 11.0125L87.1495 12.8563C87.0727 12.8886 86.9966 12.9208 86.9204 12.953L86.1413 11.111ZM84.0734 11.7213C84.5914 11.7453 85.1529 11.529 86.1413 11.111L86.9204 12.953C86.0531 13.3198 85.0428 13.7683 83.9809 13.7192L84.0734 11.7213ZM81.4004 10.9493C82.1579 11.445 82.7762 11.6612 84.0734 11.7213L83.9809 13.7192C82.3875 13.6453 81.4093 13.3452 80.3053 12.6229L81.4004 10.9493ZM78.8331 8.88459C80.0093 9.89377 80.735 10.5139 81.4003 10.9493L80.3053 12.6229C79.5061 12.0999 78.6683 11.3785 77.5308 10.4024L78.8331 8.88459ZM77.1624 7.46186C77.8017 7.99955 78.3517 8.47146 78.8331 8.88459L77.5308 10.4024C77.0491 9.98912 76.5059 9.52306 75.875 8.99243L77.1624 7.46186ZM70.6855 5.0117C72.8787 4.60301 74.9233 5.57854 77.1624 7.46185L75.875 8.99243C73.7779 7.22849 72.3445 6.73699 71.0519 6.97785L70.6855 5.0117ZM68.0569 6.1487C68.8006 5.66191 69.6684 5.20124 70.6855 5.0117L71.0519 6.97785C70.4052 7.09837 69.7936 7.40227 69.1521 7.82215L68.0569 6.1487ZM66.3027 7.4322C66.8774 6.9901 67.4757 6.52904 68.0569 6.1487L69.1521 7.82214C68.647 8.15271 68.1118 8.56382 67.5223 9.01735L66.3027 7.4322ZM65.8586 7.77288C66.0067 7.65997 66.1542 7.54647 66.3027 7.43221L67.5223 9.01735C67.3743 9.13119 67.2234 9.24732 67.0713 9.36329L65.8586 7.77288ZM64.5506 8.62072C64.7508 8.53861 65.1333 8.3259 65.8586 7.77288L67.0713 9.36329C66.3043 9.94812 65.7556 10.2881 65.3099 10.471L64.5506 8.62072ZM64.4082 8.65103C64.434 8.65417 64.4454 8.65461 64.4491 8.65468C64.4516 8.65472 64.4506 8.65463 64.449 8.65483C64.4444 8.65543 64.4709 8.65345 64.5507 8.62072L65.3099 10.471C64.8645 10.6538 64.5221 10.6796 64.1668 10.6364L64.4082 8.65103ZM64.1164 8.58859C64.2042 8.60868 64.2702 8.62375 64.3254 8.63534C64.3521 8.64094 64.3722 8.64489 64.3875 8.64762C64.4031 8.65042 64.4092 8.65115 64.4082 8.65103L64.1668 10.6364C64.0101 10.6174 63.8156 10.5715 63.6703 10.5382L64.1164 8.58859ZM60.8828 8.25726C62.4107 8.19776 63.521 8.45237 64.1164 8.58859L63.6703 10.5382C63.1218 10.4127 62.219 10.2067 60.9606 10.2557L60.8828 8.25726ZM57.2191 9.88422C58.1286 9.11412 59.3487 8.317 60.8828 8.25726L60.9606 10.2557C60.0928 10.2895 59.2988 10.744 58.5114 11.4106L57.2191 9.88422ZM55.1601 11.9228C55.7964 11.245 56.5023 10.4911 57.2191 9.88422L58.5114 11.4106C57.8987 11.9294 57.2736 12.5935 56.6183 13.2916L55.1601 11.9228ZM54.6553 12.4578C54.8206 12.2845 54.9881 12.106 55.1601 11.9228L56.6183 13.2916C56.4473 13.4738 56.2745 13.6579 56.1031 13.8377L54.6553 12.4578ZM49.7099 15.5031C51.5322 15.4209 52.9578 14.2388 54.6553 12.4578L56.1031 13.8377C54.4226 15.6008 52.5001 17.3792 49.8001 17.5011L49.7099 15.5031ZM48.3324 14.0957C49.0881 15.4584 49.5673 15.5095 49.7099 15.5031L49.8001 17.5011C48.4556 17.5618 47.4262 16.5856 46.5833 15.0657L48.3324 14.0957ZM46.4286 8.91018C47.0226 10.9757 47.6183 12.8081 48.3324 14.0957L46.5833 15.0657C45.7447 13.5534 45.0961 11.5132 44.5065 9.46288L46.4286 8.91018ZM46.0529 7.58216C46.1784 8.02929 46.303 8.47328 46.4286 8.91018L44.5065 9.46288C44.3789 9.01885 44.2525 8.56871 44.1273 8.12267L46.0529 7.58216ZM44.6477 3.07292C45.1561 4.3836 45.6124 6.01282 46.0529 7.58216L44.1273 8.12267C43.6787 6.52441 43.2492 4.99804 42.783 3.79616L44.6477 3.07292ZM43.3921 0.687849C43.9214 1.37468 44.3232 2.23639 44.6477 3.07291L42.783 3.79616C42.4816 3.01907 42.162 2.36819 41.8079 1.90864L43.3921 0.687849ZM40.6814 -0.830323C41.9863 -0.794167 42.8714 0.0121278 43.3921 0.687852L41.8079 1.90863C41.4518 1.44651 41.0632 1.18102 40.626 1.16891L40.6814 -0.830323ZM38.6109 -0.374224C39.2406 -0.697722 39.9392 -0.850889 40.6814 -0.830323L40.626 1.16891C40.2012 1.15714 39.8386 1.24356 39.5249 1.40473L38.6109 -0.374224ZM39.0924 2.75119L38.1784 0.972231L39.9574 0.0582758L40.8713 1.83723L39.0924 2.75119ZM99.8646 14.4106C99.8644 14.4106 99.864 14.4105 99.8634 14.4103C99.8634 14.4103 99.8631 14.4102 99.8627 14.4101C99.8626 14.4101 99.8624 14.4101 99.8622 14.41C99.8621 14.41 99.8615 14.4098 99.8607 14.4096C99.8602 14.4095 99.8588 14.4092 99.8578 14.4089C99.8551 14.4083 99.7679 14.3912 99.6823 14.3821C98.6327 15.2197 99.3663 16.3475 99.3696 16.3484C99.3707 16.3487 99.3723 16.3491 99.3728 16.3492C99.3736 16.3494 99.3743 16.3496 99.3744 16.3496C99.3746 16.3497 99.3748 16.3497 99.3749 16.3497C99.3751 16.3498 99.3753 16.3498 99.3754 16.3499C99.3755 16.3499 99.3757 16.3499 99.3758 16.35C99.376 16.35 99.3763 16.3501 99.3764 16.3501C99.377 16.3503 99.3776 16.3504 99.378 16.3505C99.3789 16.3507 99.3796 16.3509 99.38 16.351L99.855 14.4082C99.8572 14.4088 99.8591 14.4092 99.8607 14.4096C99.8615 14.4098 99.8623 14.41 99.863 14.4102C99.8632 14.4103 99.8634 14.4103 99.8637 14.4104C99.8638 14.4104 99.8639 14.4104 99.8641 14.4105C99.8642 14.4105 99.8643 14.4106 99.8646 14.4106C99.8647 14.4106 99.8649 14.4107 99.8651 14.4107C99.8652 14.4108 99.8659 14.4109 99.8667 14.4111C99.8672 14.4113 99.8688 14.4117 99.8699 14.412C99.8732 14.4128 100.607 15.5407 99.5571 16.3782C99.4716 16.3691 99.3844 16.3521 99.3817 16.3514C99.3807 16.3512 99.3793 16.3508 99.3788 16.3507C99.378 16.3505 99.3774 16.3504 99.3773 16.3503C99.377 16.3503 99.3769 16.3502 99.3767 16.3502C99.3764 16.3501 99.3761 16.35 99.3761 16.35C99.3755 16.3499 99.375 16.3498 99.3747 16.3497L99.8646 14.4106ZM99.866 14.411L99.8673 14.4113L99.372 16.349L99.3707 16.3487L99.866 14.411ZM99.3907 16.3536L99.3898 16.3534L99.8452 14.4059L99.8461 14.4061L99.3907 16.3536ZM40 1.24998C39.9807 1.24998 39.965 1.25075 39.9666 1.25068C39.9667 1.25067 39.9722 1.25043 39.9786 1.25021C39.9835 1.25005 40.001 1.24947 40.0233 1.2497C40.033 1.2498 40.1023 1.24981 40.1882 1.26505C40.2263 1.27182 40.3348 1.2924 40.4601 1.35488C40.5716 1.41048 40.882 1.59451 40.9846 2.01007L39.043 2.48956C39.1456 2.90506 39.456 3.08904 39.5674 3.1446C39.6926 3.20704 39.8009 3.22758 39.8389 3.23432C39.9245 3.2495 39.9934 3.24949 40.0025 3.24959C40.0242 3.24981 40.0409 3.24924 40.045 3.24911C40.0482 3.249 40.0507 3.2489 40.052 3.24885C40.0526 3.24882 40.0532 3.2488 40.0535 3.24879C40.0538 3.24878 40.054 3.24877 40.054 3.24877C40.0542 3.24876 40.046 3.24913 40.0365 3.24942C40.0264 3.24973 40.0141 3.24998 40 3.24998V1.24998ZM41 0.249981V2.24998H39V0.249981H41ZM36.9942 1.17482C37.4101 0.534493 38.3667 -0.750019 40 -0.750019V1.24998C39.5015 1.24998 39.0687 1.65261 38.6715 2.26419L36.9942 1.17482ZM35.7297 3.71236C36.0669 2.92741 36.4894 1.95205 36.9942 1.17482L38.6715 2.26419C38.2758 2.87344 37.9174 3.68689 37.5672 4.5019L35.7297 3.71236ZM35.6573 3.88094C35.6811 3.82538 35.7053 3.76911 35.7297 3.71236L37.5672 4.5019C37.5431 4.55816 37.5191 4.61402 37.4952 4.66965L35.6573 3.88094ZM34.7856 5.7416C35.0492 5.2935 35.3159 4.67652 35.6573 3.88094L37.4952 4.66965C37.1717 5.42352 36.8515 6.17427 36.5093 6.75578L34.7856 5.7416ZM34.5711 6.05537C34.5653 6.06088 34.5841 6.04375 34.6258 5.98765C34.6658 5.93374 34.7195 5.85394 34.7856 5.7416L36.5093 6.75578C36.3273 7.06522 36.1394 7.32575 35.9422 7.51149L34.5711 6.05537ZM34.6056 6.02684C34.5853 6.04222 34.5739 6.05279 34.5711 6.05537L35.9422 7.51149C35.8993 7.55183 35.8568 7.58805 35.8143 7.62028L34.6056 6.02684ZM33.0149 6.92621C33.4845 6.38744 34.1877 5.90049 35.132 5.8266L35.288 7.82051C34.9898 7.84384 34.7393 7.99167 34.5225 8.24036L33.0149 6.92621ZM32.0873 8.5471C32.2849 8.04372 32.5697 7.43693 33.0149 6.92621L34.5225 8.24036C34.3005 8.49505 34.116 8.85239 33.949 9.27793L32.0873 8.5471ZM31.5572 10.1757C31.7104 9.64348 31.8825 9.06868 32.0873 8.5471L33.949 9.27793C33.7817 9.70401 33.6317 10.1991 33.4791 10.7291L31.5572 10.1757ZM31.4388 10.5898C31.4778 10.4531 31.5172 10.3146 31.5572 10.1757L33.4791 10.7291C33.4401 10.8646 33.4015 11.0001 33.3624 11.1373L31.4388 10.5898ZM31.0847 11.7924C31.2098 11.3944 31.3222 10.9996 31.4388 10.5898L33.3624 11.1373C33.2469 11.5431 33.1273 11.9638 32.9928 12.3919L31.0847 11.7924ZM29.9258 14.2985C30.3836 13.7233 30.7431 12.8798 31.0847 11.7924L32.9928 12.3919C32.6366 13.5255 32.1892 14.6664 31.4906 15.5441L29.9258 14.2985ZM28.3614 15.1217C29.0842 15.0781 29.5331 14.7919 29.9258 14.2985L31.4906 15.5441C30.7915 16.4223 29.8417 17.0361 28.4818 17.118L28.3614 15.1217ZM26.6719 14.3326C27.2454 14.9426 27.7451 15.1588 28.3614 15.1217L28.4818 17.118C27.1226 17.1999 26.0793 16.6222 25.2148 15.7026L26.6719 14.3326ZM24.8131 11.3549C25.4607 12.6402 26.0312 13.6512 26.6719 14.3326L25.2148 15.7026C24.3514 14.7843 23.6679 13.5269 23.027 12.2547L24.8131 11.3549ZM24.5095 10.7465C24.6129 10.9545 24.7135 11.1572 24.8131 11.3549L23.027 12.2547C22.9244 12.0511 22.8212 11.8433 22.7183 11.6362L24.5095 10.7465ZM22.7241 7.5552C23.4053 8.51804 23.9943 9.70906 24.5095 10.7465L22.7183 11.6362C22.1853 10.5631 21.6656 9.52197 21.0914 8.71028L22.7241 7.5552ZM18.6721 5.00713C20.6355 5.09678 21.914 6.41003 22.7241 7.5552L21.0914 8.71028C20.3951 7.72606 19.6042 7.05177 18.5809 7.00504L18.6721 5.00713ZM15.9208 5.94437C16.6227 5.3983 17.5516 4.95596 18.6721 5.00713L18.5809 7.00504C18.0693 6.98169 17.5958 7.17524 17.1488 7.52293L15.9208 5.94437ZM14.2309 7.82891C14.685 7.16524 15.2401 6.47389 15.9208 5.94437L17.1488 7.52293C16.7026 7.8701 16.2839 8.3702 15.8814 8.95831L14.2309 7.82891ZM12.4777 10.8524C13.008 9.86147 13.6052 8.74323 14.2309 7.82891L15.8814 8.95831C15.3293 9.76527 14.7848 10.7801 14.241 11.7962L12.4777 10.8524ZM11.8263 12.0518C12.0341 11.6811 12.25 11.2778 12.4777 10.8524L14.241 11.7962C14.0154 12.2177 13.79 12.6389 13.5709 13.0297L11.8263 12.0518ZM10.7993 13.6813C11.1221 13.2557 11.4581 12.7086 11.8263 12.0518L13.5709 13.0297C13.1882 13.7123 12.7993 14.354 12.3928 14.8899L10.7993 13.6813ZM10.1143 14.3811C10.2329 14.313 10.4649 14.1222 10.7993 13.6813L12.3928 14.8899C11.9866 15.4255 11.5626 15.8558 11.1097 16.1157L10.1143 14.3811ZM10.1921 14.393C10.1943 14.3936 10.1854 14.391 10.1681 14.3897C10.15 14.3883 10.1299 14.3889 10.1104 14.3918C10.07 14.3978 10.0667 14.4084 10.1143 14.3811L11.1097 16.1157C10.6546 16.3769 10.1732 16.4643 9.65415 16.3193L10.1921 14.393ZM9.44491 13.7744C9.92169 14.3039 10.1753 14.3883 10.1921 14.393L9.65416 16.3193C9.13293 16.1738 8.57152 15.7933 7.95867 15.1127L9.44491 13.7744ZM5.46729 10.9863C6.82804 11.3156 8.12955 12.3136 9.44491 13.7744L7.95867 15.1127C6.73351 13.7521 5.76767 13.1167 4.99695 12.9302L5.46729 10.9863ZM1.80795 12.011C2.63564 11.2016 3.89024 10.6047 5.46729 10.9863L4.99695 12.9302C4.22856 12.7443 3.65283 13.0042 3.20631 13.4409L1.80795 12.011ZM0.405937 14.104C0.642204 13.6229 1.08643 12.7166 1.80795 12.011L3.20631 13.4409C2.7612 13.8762 2.44721 14.4846 2.20111 14.9857L0.405937 14.104ZM0.34256 14.2333C0.362099 14.1934 0.383247 14.1502 0.40593 14.104L2.20112 14.9857C2.17911 15.0305 2.15853 15.0725 2.13892 15.1126L0.34256 14.2333ZM0.218819 14.4836C0.251709 14.4189 0.290321 14.3401 0.342537 14.2334L2.13894 15.1126C2.08896 15.2147 2.04291 15.3088 2.00161 15.3901L0.218819 14.4836ZM0.485382 13.9468C0.674507 13.9479 0.878403 13.9457 1.06799 13.9377L1.15244 15.9359C0.921555 15.9457 0.683998 15.948 0.473633 15.9468L0.485382 13.9468ZM0.110207 13.9404C0.203049 13.943 0.33445 13.946 0.485382 13.9468L0.473633 15.9468C0.30439 15.9458 0.15741 15.9426 0.0527344 15.9395L0.110207 13.9404ZM0.0423584 13.9383C0.0615234 13.9389 0.0842743 13.9396 0.110184 13.9404L0.0527573 15.9395C0.0233612 15.9387 -0.00268555 15.9379 -0.0249329 15.9371L0.0423584 13.9383ZM0.00427246 13.9369C0.0146255 13.9373 0.0273972 13.9378 0.0423889 13.9383L-0.0249634 15.9371C-0.0423508 15.9365 -0.0574493 15.936 -0.0700302 15.9355L0.00427246 13.9369ZM-0.0232544 13.9358L0.00595093 13.937L-0.0717087 15.9355L-0.100914 15.9343L-0.0232544 13.9358ZM-0.0273438 13.9357L-0.0205688 13.9359L-0.1036 15.9342L-0.110367 15.9339L-0.0273438 13.9357ZM-0.0274582 13.9357L-0.0261383 13.9357L-0.111572 15.9339L-0.112885 15.9338L-0.0274582 13.9357ZM-1.11333 15.8896L-1.0692 14.8906L0.928856 14.9789L0.88472 15.9779L-1.11333 15.8896ZM-0.191727 17.9322C-0.191742 17.9322 -0.225021 17.9306 -0.258209 17.9278C-0.291039 17.924 -0.386734 17.9064 -0.448792 17.8897C-0.630432 17.8346 -0.791359 17.7293 -0.914062 17.5878C-1.10242 17.3705 -1.13791 17.135 -1.14106 17.1183C-1.15278 17.0562 -1.15578 17.0069 -1.15664 16.9924C-1.15788 16.9716 -1.1582 16.9551 -1.15832 16.9471C-1.15855 16.9307 -1.15832 16.918 -1.15825 16.9145C-1.15816 16.9092 -1.15804 16.905 -1.15797 16.9029C-1.15778 16.8963 -1.15753 16.8905 -1.15752 16.8902C-1.15738 16.8867 -1.15716 16.8814 -1.15682 16.8738C-1.15613 16.8578 -1.15475 16.8263 -1.15199 16.7639C-1.14648 16.6389 -1.13544 16.389 -1.11333 15.8895L0.88472 15.978C0.862602 16.4775 0.85157 16.7272 0.846069 16.852C0.843307 16.9145 0.841957 16.9453 0.841293 16.9606C0.841133 16.9643 0.841019 16.967 0.840935 16.9689C0.840851 16.9708 0.840828 16.9715 0.840828 16.9715C0.840828 16.9715 0.840858 16.9708 0.840897 16.9697C0.840919 16.9692 0.841034 16.9661 0.841148 16.9622C0.841209 16.9602 0.841324 16.9561 0.841415 16.9509C0.841476 16.9475 0.841713 16.9348 0.841484 16.9185C0.84137 16.9104 0.841049 16.894 0.839806 16.8732C0.838943 16.8587 0.835945 16.8094 0.824226 16.7473C0.818214 16.7154 0.805771 16.6574 0.780182 16.5878C0.755836 16.5215 0.70385 16.4008 0.597237 16.2778C0.474533 16.1363 0.313606 16.031 0.131966 15.9759C0.0699081 15.9592 -0.0257874 15.9416 -0.0586166 15.9378C-0.0918045 15.935 -0.125084 15.9334 -0.125099 15.9334L-0.191727 17.9322ZM-0.206833 17.9316L-0.20697 17.9316L-0.109856 15.934L-0.109718 15.934L-0.206833 17.9316ZM-0.200035 17.9319L-0.200371 17.9319L-0.11618 15.9337L-0.115837 15.9337L-0.200035 17.9319ZM-0.20076 17.9319L-0.201721 17.9319L-0.114151 15.9338L-0.113197 15.9338L-0.20076 17.9319ZM-0.196938 17.9321L-0.199936 17.9319L-0.114021 15.9338L-0.111031 15.9339L-0.196938 17.9321ZM-0.18544 17.9325L-0.195663 17.9321L-0.112305 15.9339L-0.102089 15.9343L-0.18544 17.9325ZM-0.146049 17.9341L-0.182617 17.9327L-0.104912 15.9342L-0.0683441 15.9356L-0.146049 17.9341ZM-0.00473785 17.9387C-0.0631943 17.937 -0.110588 17.9354 -0.144348 17.9341L-0.0700455 15.9355C-0.0413666 15.9366 0.000396729 15.938 0.0527344 15.9395L-0.00473785 17.9387ZM0.461876 17.9468C0.274338 17.9457 0.111763 17.9421 -0.00473785 17.9387L0.0527344 15.9395C0.15741 15.9426 0.30439 15.9458 0.473633 15.9468L0.461876 17.9468ZM1.79804 17.8952C1.33372 17.9425 0.820984 17.9489 0.461884 17.9468L0.473625 15.9468C0.811996 15.9488 1.23954 15.9417 1.59567 15.9055L1.79804 17.8952ZM3.1745 17.2088C3.00246 17.3883 2.54179 17.8196 1.79804 17.8952L1.59567 15.9055C1.61832 15.9032 1.6386 15.896 1.66191 15.8819C1.68785 15.8661 1.71081 15.8456 1.73064 15.8249L3.1745 17.2088ZM3.59058 16.6513C3.51229 16.7826 3.3747 16.9999 3.17451 17.2088L1.73064 15.8249C1.77679 15.7767 1.82384 15.7091 1.87252 15.6274L3.59058 16.6513ZM3.94614 15.9699C3.85316 16.1605 3.72253 16.4299 3.59057 16.6513L1.87253 15.6274C1.953 15.4924 2.04518 15.305 2.14865 15.093L3.94614 15.9699ZM3.99627 15.8674C3.98034 15.8998 3.96379 15.9337 3.94614 15.9699L2.14865 15.093C2.16611 15.0572 2.18383 15.0209 2.20112 14.9857L3.99627 15.8674ZM4.60468 14.8708C4.43851 15.0333 4.25633 15.3379 3.99628 15.8674L2.20111 14.9857C2.44675 14.4855 2.76093 13.8765 3.20632 13.4409L4.60468 14.8708ZM4.5266 14.8741C4.49767 14.8671 4.49524 14.8696 4.51241 14.8695C4.52116 14.8695 4.53358 14.8688 4.54876 14.8664C4.56403 14.8641 4.57977 14.8604 4.59521 14.8554C4.62735 14.8451 4.64623 14.8332 4.64941 14.8311C4.65057 14.8303 4.63645 14.8397 4.60468 14.8708L3.20631 13.4409C3.39292 13.2584 3.6451 13.0597 3.98464 12.9509C4.33578 12.8383 4.67956 12.8534 4.99695 12.9302L4.5266 14.8741ZM6.47243 16.451C5.33699 15.1901 4.7069 14.9177 4.5266 14.8741L4.99694 12.9302C5.76771 13.1167 6.73354 13.7522 7.95867 15.1127L6.47243 16.451ZM9.1162 18.2456C8.08982 17.959 7.2206 17.2819 6.47243 16.451L7.95867 15.1127C8.57143 15.7932 9.13284 16.1737 9.65415 16.3193L9.1162 18.2456ZM12.1052 17.8504C11.2551 18.3383 10.2241 18.555 9.1162 18.2456L9.65416 16.3193C10.1749 16.4647 10.6563 16.3759 11.1097 16.1157L12.1052 17.8504ZM13.9863 16.0985C13.5075 16.7298 12.8916 17.3991 12.1052 17.8504L11.1097 16.1157C11.5626 15.8559 11.9865 15.4256 12.3928 14.8899L13.9863 16.0985ZM15.3155 14.0077C14.9182 14.7163 14.4764 15.4524 13.9863 16.0985L12.3928 14.8899C12.7993 14.354 13.1882 13.7123 13.5709 13.0297L15.3155 14.0077ZM16.0701 12.6193C15.831 13.0664 15.5805 13.5349 15.3155 14.0077L13.5709 13.0297C13.8246 12.577 14.066 12.1258 14.3064 11.6761L16.0701 12.6193ZM17.532 10.0877C17.0431 10.8022 16.5868 11.6531 16.0701 12.6193L14.3064 11.6761C14.8102 10.7341 15.319 9.78026 15.8814 8.95831L17.532 10.0877ZM18.3769 9.10149C18.1655 9.266 17.8832 9.57446 17.532 10.0877L15.8814 8.95831C16.2838 8.37027 16.7026 7.87013 17.1488 7.52293L18.3769 9.10149ZM18.4896 9.00296C18.5036 9.0036 18.5171 9.00275 18.5285 9.00094C18.5396 8.99916 18.5434 8.99731 18.5386 8.99911C18.5276 9.00319 18.475 9.02518 18.3769 9.10149L17.1488 7.52293C17.5971 7.17421 18.0706 6.98175 18.5809 7.00504L18.4896 9.00296ZM19.4587 9.86535C18.8822 9.05051 18.579 9.00704 18.4897 9.00296L18.5809 7.00504C19.6031 7.05172 20.394 7.72453 21.0914 8.71028L19.4587 9.86535ZM20.9049 12.4823C20.3691 11.4057 19.9345 10.5379 19.4587 9.86536L21.0914 8.71027C21.6747 9.53478 22.1802 10.5561 22.6954 11.5912L20.9049 12.4823ZM21.2408 13.1546C21.1253 12.9251 21.0133 12.7001 20.9049 12.4823L22.6954 11.5912C22.8041 11.8096 22.914 12.0304 23.027 12.2547L21.2408 13.1546ZM23.7576 17.0726C22.6723 15.9182 21.8765 14.4164 21.2408 13.1546L23.027 12.2547C23.668 13.527 24.3514 14.7843 25.2148 15.7026L23.7576 17.0726ZM28.6021 19.1144C26.4943 19.2414 24.9083 18.2964 23.7576 17.0726L25.2148 15.7026C26.0788 16.6216 27.1219 17.2 28.4818 17.118L28.6021 19.1144ZM33.0554 16.7896C32.052 18.0502 30.6022 18.9939 28.6021 19.1144L28.4818 17.118C29.8421 17.036 30.7918 16.422 31.4906 15.5441L33.0554 16.7896ZM34.9008 12.9915C34.5294 14.1734 33.9941 15.6103 33.0554 16.7896L31.4906 15.5441C32.1892 14.6664 32.6365 13.5256 32.9928 12.3919L34.9008 12.9915ZM35.2917 11.6652C35.1745 12.077 35.0442 12.5349 34.9008 12.9915L32.9928 12.3919C33.1267 11.9655 33.2497 11.5335 33.368 11.1177L35.2917 11.6652ZM35.401 11.2826C35.3656 11.4054 35.3294 11.5328 35.2917 11.6652L33.368 11.1177C33.4056 10.986 33.4427 10.8555 33.4791 10.7291L35.401 11.2826ZM35.8107 10.0088C35.681 10.3391 35.5532 10.754 35.401 11.2826L33.4791 10.7291C33.6317 10.1991 33.7817 9.70402 33.949 9.27793L35.8107 10.0088ZM36.0302 9.55452C36.0379 9.54561 36.0167 9.56856 35.9727 9.64947C35.9305 9.72735 35.8756 9.84335 35.8107 10.0088L33.949 9.27793C34.1159 8.8528 34.3004 8.49523 34.5225 8.24036L36.0302 9.55452ZM35.8402 9.69736C35.9581 9.63334 36.0181 9.56832 36.0302 9.55451L34.5225 8.24036C34.6338 8.1127 34.7541 8.01133 34.8857 7.93983L35.8402 9.69736ZM35.8327 9.70123C35.8615 9.68598 35.8855 9.67148 35.9038 9.65971C35.9216 9.64834 35.9353 9.63875 35.9422 9.63383C35.9459 9.63125 35.9487 9.62919 35.9501 9.62817C35.9513 9.62731 35.9526 9.62638 35.952 9.62685C35.9516 9.62709 35.9474 9.63018 35.942 9.63398C35.9363 9.63803 35.9292 9.643 35.9209 9.64856C35.9126 9.65412 35.9038 9.65982 35.8946 9.6656C35.876 9.67728 35.8578 9.68782 35.8402 9.69735L34.8857 7.93984C34.8686 7.94911 34.8508 7.95943 34.8325 7.97091C34.8234 7.97659 34.8148 7.9822 34.8067 7.98767C34.7985 7.99314 34.7915 7.99803 34.7859 8.00201C34.7806 8.00572 34.7765 8.00874 34.7762 8.00892C34.7756 8.00935 34.777 8.0084 34.7782 8.00751C34.7796 8.00646 34.7825 8.00437 34.7862 8.00176C34.7933 7.99678 34.807 7.98715 34.8249 7.97572C34.8433 7.96391 34.8673 7.94937 34.8962 7.93408L35.8327 9.70123ZM35.4181 9.81607C35.4148 9.81623 35.4114 9.81638 35.4123 9.81634C35.4125 9.81633 35.413 9.81631 35.4137 9.81627C35.4144 9.81624 35.4156 9.81618 35.4172 9.8161C35.4198 9.81597 35.4261 9.81564 35.4342 9.81508C35.443 9.81448 35.4926 9.81134 35.5546 9.79934C35.634 9.784 35.7306 9.75529 35.8322 9.70151L34.8967 7.9338C34.9985 7.87991 35.0953 7.85111 35.175 7.8357C35.2375 7.82363 35.2875 7.82045 35.2969 7.8198C35.3053 7.81922 35.312 7.81887 35.315 7.81871C35.3183 7.81855 35.3209 7.81843 35.3214 7.81841C35.3234 7.81832 35.3213 7.81841 35.3198 7.81848L35.4181 9.81607ZM37.3132 8.96761C36.9166 9.34098 36.281 9.77363 35.4181 9.81607L35.3198 7.81848C35.5378 7.80776 35.7439 7.69812 35.9422 7.51149L37.3132 8.96761ZM38.2331 7.76997C38.0075 8.15347 37.7076 8.59628 37.3132 8.96761L35.9422 7.51149C36.1393 7.32586 36.3271 7.06545 36.5093 6.75578L38.2331 7.76997ZM39.3197 5.48992C39.0114 6.20929 38.6427 7.07375 38.2331 7.76997L36.5093 6.75578C36.8416 6.1911 37.1592 5.4539 37.4813 4.70218L39.3197 5.48992ZM39.4048 5.29144C39.3767 5.35671 39.3484 5.42278 39.3197 5.48992L37.4813 4.70218C37.51 4.6352 37.5387 4.56823 37.5672 4.5019L39.4048 5.29144ZM40.3488 3.35355C40.0627 3.79402 39.7691 4.44361 39.4048 5.29144L37.5672 4.5019C37.9174 3.68701 38.2757 2.87347 38.6715 2.26419L40.3488 3.35355ZM40.9846 2.01007C41.0646 2.33398 40.9646 2.59679 40.8892 2.73334C40.8168 2.86428 40.7321 2.94768 40.6932 2.98368C40.6135 3.05749 40.5396 3.10078 40.5237 3.1102C40.4962 3.12652 40.4738 3.13799 40.4644 3.14276C40.4533 3.14838 40.4443 3.15264 40.4402 3.15459C40.4338 3.15762 40.4256 3.16142 40.4291 3.1598C40.4296 3.15959 40.4323 3.15831 40.436 3.15657C40.4537 3.14811 40.4735 3.1378 40.4936 3.12586C40.5323 3.10281 40.5518 3.08564 40.553 3.08461C40.5534 3.08425 40.5353 3.10038 40.5 3.14318C40.4647 3.18595 40.414 3.25316 40.3488 3.35355L38.6715 2.26419C38.8708 1.95727 39.052 1.74371 39.2201 1.5935C39.3058 1.51687 39.3891 1.4558 39.4704 1.4074C39.5118 1.38278 39.5476 1.36442 39.576 1.35091C39.5823 1.3479 39.5874 1.34555 39.5898 1.34442C39.5953 1.34188 39.5887 1.34493 39.5836 1.34734C39.5801 1.34898 39.5718 1.35296 39.5611 1.35834C39.5522 1.36286 39.5302 1.37412 39.503 1.39024C39.489 1.3986 39.4677 1.41169 39.4426 1.4291C39.4195 1.4452 39.3795 1.47439 39.3342 1.51628C39.2954 1.55221 39.2107 1.63555 39.1384 1.76643C39.063 1.90294 38.963 2.16569 39.043 2.48956L40.9846 2.01007ZM36.187 6.89885C36.1984 6.71232 36.1586 6.47906 36.0078 6.26392C35.8641 6.05878 35.6791 5.95526 35.5502 5.90531C35.3278 5.8191 35.1366 5.83841 35.0992 5.84177C34.9821 5.85231 34.8934 5.8823 34.8818 5.88604C34.8298 5.90282 34.7907 5.9204 34.783 5.92381C34.756 5.9358 34.7356 5.94635 34.7283 5.95017C34.709 5.96019 34.6939 5.96887 34.6845 5.97437L35.6982 7.69845C35.6872 7.70492 35.6708 7.7143 35.6507 7.72474C35.6429 7.72878 35.6222 7.73948 35.595 7.75156C35.5872 7.75501 35.548 7.77263 35.496 7.78942C35.4843 7.79318 35.3957 7.82317 35.2785 7.83371C35.2412 7.83707 35.05 7.85638 34.8275 7.77017C34.6986 7.72022 34.5136 7.61669 34.3699 7.41155C34.2191 7.19642 34.1793 6.96315 34.1907 6.77663L36.187 6.89885ZM35.6233 7.73831C35.6346 7.73289 35.6505 7.72499 35.6694 7.71467C35.6773 7.71036 35.695 7.70058 35.7168 7.68697C35.7252 7.6818 35.7513 7.66551 35.783 7.6421C35.7958 7.63263 35.8344 7.60395 35.8788 7.56157C35.8995 7.54182 35.9456 7.49654 35.9942 7.43059C36.019 7.39683 36.0568 7.34127 36.0921 7.26688C36.1252 7.19711 36.1766 7.06876 36.187 6.89885L34.1907 6.77663C34.2093 6.47349 34.361 6.27558 34.3836 6.24487C34.4321 6.17891 34.4782 6.13363 34.4989 6.11387C34.5434 6.07148 34.582 6.04278 34.5948 6.0333C34.6266 6.00984 34.6528 5.99351 34.6612 5.98827C34.6833 5.97453 34.7013 5.96457 34.7096 5.96004C34.7293 5.94926 34.7464 5.94072 34.7594 5.9345L35.6233 7.73831Z" fill="#53A8E2"/>
</svg>
