<svg width="26" height="24" viewBox="0 0 26 24" fill="none" xmlns="http://www.w3.org/2000/svg">
<path fill-rule="evenodd" clip-rule="evenodd" d="M19.8928 12.9445C16.8656 12.9445 14.4103 15.3998 14.4103 18.4266C14.4103 21.4514 16.8656 23.9072 19.8928 23.9072C22.9195 23.9072 25.3729 21.4514 25.3729 18.4266C25.3729 15.3998 22.9195 12.9445 19.8928 12.9445ZM20.2443 22.4789V22.0045C20.2443 21.8086 20.0868 21.6511 19.8928 21.6511C19.6968 21.6511 19.5393 21.8086 19.5393 22.0045V22.4789C17.5762 22.3083 16.0087 20.7412 15.8404 18.7781H16.3148C16.5089 18.7781 16.6682 18.6206 16.6682 18.4266C16.6682 18.2287 16.5089 18.0731 16.3148 18.0731H15.8404C16.0087 16.1105 17.5762 14.543 19.5393 14.3747V14.8486C19.5393 15.0426 19.6968 15.202 19.8928 15.202C20.0868 15.202 20.2443 15.0426 20.2443 14.8486V14.3747C22.207 14.543 23.7764 16.1105 23.9428 18.0731H23.4684C23.2743 18.0731 23.1168 18.2306 23.1168 18.4266C23.1168 18.6206 23.2743 18.7781 23.4684 18.7781H23.9428C23.7764 20.7412 22.207 22.3083 20.2443 22.4789Z" fill="white"/>
<path fill-rule="evenodd" clip-rule="evenodd" d="M21.9342 17.8955H20.6634C20.4933 17.6522 20.213 17.4891 19.8928 17.4891C19.8872 17.4891 19.8815 17.4909 19.8759 17.4909L18.719 15.8597C18.5484 15.6234 18.2189 15.5667 17.9808 15.735C17.7431 15.9052 17.6859 16.2366 17.8565 16.4747L19.0153 18.1064C18.9806 18.2067 18.9567 18.3131 18.9567 18.4266C18.9567 18.9431 19.3744 19.3622 19.8928 19.3622C20.213 19.3622 20.4951 19.2009 20.6634 18.9558H21.9342C22.2272 18.9558 22.4634 18.7195 22.4634 18.4266C22.4634 18.1336 22.2272 17.8955 21.9342 17.8955Z" fill="white"/>
<path fill-rule="evenodd" clip-rule="evenodd" d="M5.27529 7.51548C6.23482 7.51548 7.01107 6.73923 7.01107 5.78157V2.01657C7.01107 1.05704 6.23482 0.280792 5.27529 0.280792C4.31763 0.280792 3.54138 1.05704 3.54138 2.01657V5.78157C3.54138 6.73923 4.31763 7.51548 5.27529 7.51548Z" fill="white"/>
<path fill-rule="evenodd" clip-rule="evenodd" d="M15.9029 7.51548C16.8624 7.51548 17.6386 6.73923 17.6386 5.78157V2.01657C17.6386 1.05704 16.8624 0.280792 15.9029 0.280792C14.9452 0.280792 14.1689 1.05704 14.1689 2.01657V5.78157C14.1689 6.73923 14.9452 7.51548 15.9029 7.51548Z" fill="white"/>
<path fill-rule="evenodd" clip-rule="evenodd" d="M7.62659 12.3328C7.62659 11.8383 7.22534 11.4375 6.72893 11.4375H5.06674C4.57221 11.4375 4.16956 11.8383 4.16956 12.3328V13.9955C4.16956 14.4919 4.57221 14.8945 5.06674 14.8945H6.72893C7.22534 14.8945 7.62659 14.4919 7.62659 13.9955V12.3328Z" fill="white"/>
<path fill-rule="evenodd" clip-rule="evenodd" d="M12.3192 12.3347C12.3192 11.8401 11.9166 11.4394 11.422 11.4394H9.75937C9.26343 11.4394 8.86218 11.8401 8.86218 12.3347V13.9973C8.86218 14.4919 9.26343 14.8945 9.75937 14.8945H11.422C11.9184 14.8945 12.3192 14.4919 12.3192 13.9973V12.3347Z" fill="white"/>
<path fill-rule="evenodd" clip-rule="evenodd" d="M14.4507 11.4375C13.9547 11.4375 13.5535 11.8383 13.5535 12.3328V13.9955C13.5535 14.4441 13.8867 14.7994 14.3171 14.865C14.9742 13.8417 15.9066 13.012 17.0086 12.4758V12.3328C17.0086 11.8383 16.6078 11.4375 16.1114 11.4375H14.4507Z" fill="white"/>
<path fill-rule="evenodd" clip-rule="evenodd" d="M5.06674 15.9417C4.57221 15.9417 4.16956 16.343 4.16956 16.8389V18.5016C4.16956 18.9961 4.57221 19.3969 5.06674 19.3969H6.73081C7.22534 19.3969 7.62659 18.9961 7.62659 18.5016V16.8389C7.62659 16.343 7.22534 15.9417 6.73081 15.9417H5.06674Z" fill="white"/>
<path fill-rule="evenodd" clip-rule="evenodd" d="M11.4202 15.9436H9.75937C9.26343 15.9436 8.86218 16.3449 8.86218 16.8408V18.5016C8.86218 18.9961 9.26343 19.3969 9.75937 19.3969H11.4202C11.9166 19.3969 12.3173 18.9961 12.3173 18.5016V16.8408C12.3173 16.3449 11.9166 15.9436 11.4202 15.9436Z" fill="white"/>
<path fill-rule="evenodd" clip-rule="evenodd" d="M13.8445 21.1148H5.40891C3.95672 21.1148 2.77594 19.9336 2.77594 18.4833V9.67219H18.4041V11.9775C18.8836 11.8678 19.38 11.8017 19.8928 11.8017C20.332 11.8017 20.7623 11.8477 21.18 11.932V3.64453H18.6787V5.78156C18.6787 7.31203 17.4352 8.55703 15.9028 8.55703C14.3719 8.55703 13.1269 7.31203 13.1269 5.78156V3.64453H8.05125V5.78156C8.05125 7.31203 6.80625 8.55703 5.27531 8.55703C3.74437 8.55703 2.49938 7.31203 2.49938 5.78156V3.64453H0V18.4814C0 21.4678 2.4225 23.8922 5.40891 23.8922H15.7692C15.8916 23.8922 16.0144 23.8814 16.1353 23.8739C15.1392 23.1853 14.3447 22.2314 13.8445 21.1148Z" fill="white"/>
</svg>
