<svg width="12" height="16" viewBox="0 0 12 16" fill="none" xmlns="http://www.w3.org/2000/svg">
<path fill-rule="evenodd" clip-rule="evenodd" d="M5.79457 8.70997C4.18703 8.70997 2.87922 7.40213 2.87922 5.79457C2.87922 4.18703 4.18706 2.87919 5.79457 2.87919C7.4021 2.87919 8.70994 4.18703 8.70994 5.79457C8.70994 7.40213 7.4021 8.70997 5.79457 8.70997ZM5.79457 0C2.59944 0 0 2.59944 0 5.79457C0 9.75982 5.1856 15.581 5.40638 15.8269C5.61375 16.0579 5.97578 16.0575 6.18278 15.8269C6.40357 15.581 11.5892 9.75982 11.5892 5.79457C11.5891 2.59944 8.98969 0 5.79457 0Z" fill="#246CF2"/>
</svg>
