<svg width="27" height="20" viewBox="0 0 27 20" fill="none" xmlns="http://www.w3.org/2000/svg">
<path fill-rule="evenodd" clip-rule="evenodd" d="M12.8841 10.431L8.01602 16.1105C7.93601 16.2032 7.82271 16.2523 7.70781 16.2523C7.63571 16.2523 7.5628 16.2333 7.49784 16.1937C7.32829 16.0907 7.25774 15.8803 7.33145 15.6961L8.73148 12.1956H6.89644C6.76413 12.1956 6.64052 12.1314 6.56446 12.0236C6.4892 11.9159 6.47018 11.7776 6.51456 11.6536L8.54292 5.9742C8.60077 5.81256 8.75369 5.70478 8.92484 5.70478H11.7645C11.8992 5.70478 12.0252 5.77175 12.1005 5.88307C12.1758 5.99439 12.1908 6.13621 12.1409 6.261L10.7409 9.76153H12.5759C12.7343 9.76153 12.8786 9.85383 12.9443 9.99763C13.0109 10.1415 12.9871 10.311 12.8841 10.431ZM19.2608 15.3594L11.2709 0.900474C10.9722 0.360497 10.4033 0.0253601 9.78687 0.0253601H9.68544C9.06901 0.0253601 8.50013 0.360497 8.20143 0.900893L0.211572 15.3594C0.0729072 15.6101 0 15.8934 0 16.1794C0 17.1144 0.760638 17.875 1.69558 17.875H17.7768C18.7117 17.875 19.4723 17.1144 19.4723 16.1794C19.4723 15.8934 19.3994 15.6101 19.2608 15.3594Z" fill="white"/>
<path d="M22.9171 11.9661C23.9157 12.2187 24.7987 12.6207 25.3367 13.4672C25.6395 13.9432 25.7761 14.4716 25.8465 15.0269C25.9147 15.5648 25.9266 16.1867 25.9395 16.8693L25.9401 16.8989L25.9401 16.8996L25.9443 17.1112C25.9443 17.1112 25.9443 17.1112 25.9443 17.1112C25.9509 17.4382 25.8257 17.7541 25.5963 17.9878C25.3674 18.2212 25.0543 18.3526 24.7276 18.3526H15.9041C15.5769 18.3526 15.2639 18.2207 15.0353 17.9876L15.0346 17.9869C14.8064 17.7536 14.6814 17.4384 14.6877 17.1119L14.6877 17.1122L15.4376 17.1262L14.6877 17.1112L14.6917 16.8999L14.6917 16.8994L14.6923 16.8675C14.7054 16.1856 14.7174 15.5643 14.7855 15.0269C14.8559 14.4716 14.9925 13.9432 15.2951 13.4672L22.9171 11.9661ZM22.9171 11.9661C23.5496 11.1899 23.9059 10.1514 23.9059 9.09446C23.9059 7.92395 23.7472 7.00757 23.2776 6.28795L23.2776 6.28792C22.6456 5.31953 21.3772 4.9375 20.3158 4.9375C19.2546 4.9375 17.9862 5.31955 17.3542 6.28792L17.3542 6.28795C16.8846 7.00757 16.7259 7.92395 16.7259 9.09446C16.7259 10.1515 17.0824 11.1899 17.7149 11.9661M22.9171 11.9661L17.7149 11.9661M17.7149 11.9661C16.7162 12.2187 15.8332 12.6207 15.2951 13.4671L17.7149 11.9661Z" fill="white" stroke="#EC4F4F" stroke-width="1.5"/>
</svg>
