<svg width="14" height="12" viewBox="0 0 14 12" fill="none" xmlns="http://www.w3.org/2000/svg">
<path fill-rule="evenodd" clip-rule="evenodd" d="M13.239 2.43489C12.8803 2.07621 12.4472 1.89687 11.9402 1.89687H10.3331L9.96716 0.92113C9.876 0.686744 9.70998 0.484616 9.46833 0.314304C9.22668 0.144873 8.9793 0.0596619 8.72565 0.0596619H5.05178C4.79802 0.0596619 4.55031 0.144873 4.3091 0.314304C4.06734 0.484616 3.90099 0.686744 3.81017 0.92113L3.44422 1.89687H1.83721C1.32969 1.89687 0.897027 2.07621 0.538018 2.43489C0.179339 2.79346 0 3.22656 0 3.73353V10.1632C0 10.6702 0.179339 11.1033 0.538018 11.462C0.897027 11.8207 1.32969 11.9999 1.83721 11.9999H11.9402C12.4472 11.9999 12.8803 11.8207 13.239 11.462C13.5977 11.1033 13.777 10.6702 13.777 10.1632V3.73353C13.777 3.22656 13.5977 2.79346 13.239 2.43489ZM9.15952 9.21974C8.53079 9.84836 7.77347 10.1632 6.88844 10.1632C6.00341 10.1632 5.24653 9.84836 4.61736 9.21974C3.98829 8.59056 3.67387 7.83324 3.67387 6.94865C3.67387 6.06363 3.98862 5.30674 4.61736 4.67757C5.24653 4.0484 6.00341 3.73353 6.88844 3.73353C7.77347 3.73353 8.53035 4.0484 9.15952 4.67757C9.7887 5.3063 10.1031 6.06363 10.1031 6.94865C10.1031 7.83324 9.7887 8.59056 9.15952 9.21974Z" fill="#246CF2"/>
<path fill-rule="evenodd" clip-rule="evenodd" d="M6.88858 4.88181C6.31918 4.88181 5.8328 5.08393 5.42865 5.48819C5.02439 5.89245 4.82227 6.37927 4.82227 6.94867C4.82227 7.51762 5.02439 8.00434 5.42865 8.40859C5.8328 8.81285 6.31918 9.01498 6.88858 9.01498C7.45797 9.01498 7.9448 8.81285 8.34905 8.40859C8.75331 8.00434 8.95544 7.51762 8.95544 6.94867C8.95544 6.37927 8.75331 5.89245 8.34905 5.48819C7.9448 5.08393 7.45797 4.88181 6.88858 4.88181Z" fill="#246CF2"/>
</svg>
