<svg width="20" height="19" viewBox="0 0 20 19" fill="none" xmlns="http://www.w3.org/2000/svg">
<path fill-rule="evenodd" clip-rule="evenodd" d="M4.97117 4.97041C4.97117 2.2328 7.20397 0 9.94159 0C12.6792 0 14.912 2.2328 14.912 4.97041C14.912 5.55011 14.8094 6.11594 14.6235 6.63462L13.2922 6.14645C13.4225 5.77755 13.4919 5.38646 13.4919 4.97041C13.4919 3.00111 11.9109 1.42012 9.94159 1.42012C7.97228 1.42012 6.39129 3.00111 6.39129 4.97041C6.39129 6.21024 7.03201 7.28643 7.98892 7.9216L8.52147 8.27663L6.50224 12.0266C6.86836 12.4094 7.10135 12.9253 7.10135 13.4911C7.10135 14.6588 6.13889 15.6213 4.97117 15.6213C3.80346 15.6213 2.84099 14.6588 2.84099 13.4911C2.84099 12.3234 3.80346 11.3609 4.97117 11.3609C5.07102 11.3609 5.16255 11.3693 5.25963 11.3831L6.74632 8.63166C5.70619 7.71912 4.97117 6.4571 4.97117 4.97041ZM7.81141 4.97041C7.81141 3.8027 8.77387 2.84024 9.94159 2.84024C11.1093 2.84024 12.0718 3.8027 12.0718 4.97041C12.0718 5.52515 11.8499 6.03273 11.4948 6.41272L13.1147 9.00888C13.168 8.98749 13.2213 8.96587 13.2746 8.94424C13.7952 8.73297 14.3182 8.52071 14.912 8.52071C17.6496 8.52071 19.8824 10.7535 19.8824 13.4911C19.8824 16.2287 17.6496 18.4615 14.912 18.4615C13.4447 18.4615 12.1161 17.8125 11.2064 16.7973L12.2715 15.8654C12.9205 16.5921 13.8552 17.0414 14.912 17.0414C16.8813 17.0414 18.4623 15.4604 18.4623 13.4911C18.4623 11.5218 16.8813 9.94083 14.912 9.94083C14.263 9.94083 13.6583 10.1045 13.1369 10.4068L12.5377 10.7618L12.1827 10.1849L10.23 7.0784C10.133 7.09227 10.0414 7.10059 9.94159 7.10059C8.77387 7.10059 7.81141 6.13813 7.81141 4.97041ZM9.94159 4.26035C10.341 4.26035 10.6516 4.57101 10.6516 4.97041C10.6516 5.36982 10.341 5.68047 9.94159 5.68047C9.54218 5.68047 9.23153 5.36982 9.23153 4.97041C9.23153 4.57101 9.54218 4.26035 9.94159 4.26035ZM2.48596 9.18639C3.01296 8.88129 3.58156 8.68436 4.15017 8.58728L4.37206 9.98521C3.9671 10.0545 3.57324 10.1877 3.19602 10.4068C1.49022 11.3915 0.9022 13.5605 1.88685 15.2663C2.8715 16.9721 5.04051 17.5601 6.74632 16.5754C7.88907 15.9153 8.52147 14.7171 8.52147 13.4911V12.7811H12.915C13.2117 11.9601 13.9939 11.3609 14.912 11.3609C16.0797 11.3609 17.0422 12.3234 17.0422 13.4911C17.0422 14.6588 16.0797 15.6213 14.912 15.6213C13.9939 15.6213 13.2117 15.0222 12.915 14.2012H9.76407C9.54495 15.6435 8.8127 17.0109 7.45638 17.7959C5.08489 19.1633 2.03386 18.345 0.666438 15.9763C-0.70098 13.6076 0.117252 10.5538 2.48596 9.18639ZM4.97117 12.7811C5.37058 12.7811 5.68123 13.0917 5.68123 13.4911C5.68123 13.8905 5.37058 14.2012 4.97117 14.2012C4.57176 14.2012 4.26111 13.8905 4.26111 13.4911C4.26111 13.0917 4.57176 12.7811 4.97117 12.7811ZM15.6221 13.4911C15.6221 13.0917 15.3114 12.7811 14.912 12.7811C14.5126 12.7811 14.2019 13.0917 14.2019 13.4911C14.2019 13.8905 14.5126 14.2012 14.912 14.2012C15.3114 14.2012 15.6221 13.8905 15.6221 13.4911Z" fill="#FFFFFF"/>
</svg>
