<svg width="23" height="20" viewBox="0 0 23 20" fill="none" xmlns="http://www.w3.org/2000/svg">
<path fill-rule="evenodd" clip-rule="evenodd" d="M22.1687 7.91514L11.5474 0.138469C11.3426 -0.0114221 11.0644 -0.0114221 10.8596 0.138469L0.23829 7.91514C-0.0211409 8.10512 -0.0774648 8.46941 0.112513 8.72884C0.302448 8.98827 0.666824 9.04455 0.926168 8.85466L11.2035 1.32976L21.4808 8.85466C21.5845 8.93055 21.7049 8.96713 21.8243 8.96713C22.0035 8.96713 22.1804 8.88464 22.2945 8.72884C22.4845 8.46941 22.4281 8.10512 22.1687 7.91514Z" fill="white"/>
<path d="M22.1687 7.91514L11.5474 0.138469C11.3426 -0.0114221 11.0644 -0.0114221 10.8596 0.138469L0.23829 7.91514C-0.0211409 8.10512 -0.0774648 8.46941 0.112513 8.72884C0.302448 8.98827 0.666824 9.04455 0.926168 8.85466L11.2035 1.32976L21.4808 8.85466C21.5845 8.93055 21.7049 8.96713 21.8243 8.96713C22.0035 8.96713 22.1804 8.88464 22.2945 8.72884C22.4845 8.46941 22.4281 8.10512 22.1687 7.91514" stroke="white" stroke-width="0.5"/>
<path fill-rule="evenodd" clip-rule="evenodd" d="M19.3543 8.98648C19.0328 8.98648 18.7721 9.24709 18.7721 9.56867V18.8356H14.1147V13.7771C14.1147 12.1719 12.8087 10.8659 11.2035 10.8659C9.59829 10.8659 8.2923 12.1719 8.2923 13.7771V18.8356H3.63488V9.56867C3.63488 9.24709 3.37418 8.98648 3.05269 8.98648C2.7312 8.98648 2.47046 9.24709 2.47046 9.56867V19.4178C2.47046 19.7393 2.7312 20 3.05269 20H8.87449C9.1807 20 9.4312 19.7635 9.45444 19.4632C9.45584 19.4495 9.45672 19.4347 9.45672 19.4178V13.7771C9.45672 12.8139 10.2403 12.0303 11.2035 12.0303C12.1667 12.0303 12.9502 12.814 12.9502 13.7771V19.4178C12.9502 19.4346 12.9511 19.4492 12.9525 19.4626C12.9754 19.7632 13.2261 20 13.5324 20H19.3543C19.6758 20 19.9365 19.7393 19.9365 19.4178V9.56867C19.9365 9.24709 19.6758 8.98648 19.3543 8.98648Z" fill="white"/>
<path d="M19.3543 8.98648C19.0328 8.98648 18.7721 9.24709 18.7721 9.56867V18.8356H14.1147V13.7771C14.1147 12.1719 12.8087 10.8659 11.2035 10.8659C9.59829 10.8659 8.2923 12.1719 8.2923 13.7771V18.8356H3.63488V9.56867C3.63488 9.24709 3.37418 8.98648 3.05269 8.98648C2.7312 8.98648 2.47046 9.24709 2.47046 9.56867V19.4178C2.47046 19.7393 2.7312 20 3.05269 20H8.87449C9.1807 20 9.4312 19.7635 9.45444 19.4632C9.45584 19.4495 9.45672 19.4347 9.45672 19.4178V13.7771C9.45672 12.8139 10.2403 12.0303 11.2035 12.0303C12.1667 12.0303 12.9502 12.814 12.9502 13.7771V19.4178C12.9502 19.4346 12.9511 19.4492 12.9525 19.4626C12.9754 19.7632 13.2261 20 13.5324 20H19.3543C19.6758 20 19.9365 19.7393 19.9365 19.4178V9.56867C19.9365 9.24709 19.6758 8.98648 19.3543 8.98648" stroke="white" stroke-width="0.5"/>
</svg>
