<svg width="19" height="22" viewBox="0 0 19 22" fill="none" xmlns="http://www.w3.org/2000/svg">
<path fill-rule="evenodd" clip-rule="evenodd" d="M18.2934 5.7399C18.2819 5.15124 18.2715 4.59539 18.2715 4.05747C18.2715 3.63617 17.9297 3.29447 17.5085 3.29447C14.2454 3.29447 11.761 2.35661 9.69012 0.343288C9.39357 0.0551263 8.92216 0.0551263 8.62611 0.343288C6.5557 2.35661 4.07148 3.29447 0.808228 3.29447C0.387049 3.29447 0.0452221 3.63617 0.0452221 4.05747C0.0452221 4.59539 0.0347943 5.15175 0.0234764 5.74041C-0.0809282 11.2171 -0.2245 18.718 8.9083 21.8837C8.9893 21.9116 9.07374 21.9259 9.15818 21.9259C9.24262 21.9259 9.32706 21.9116 9.40794 21.8837C18.5407 18.718 18.3977 11.2171 18.2934 5.7399ZM9.15818 20.3532C1.32593 17.5079 1.44407 11.2753 1.54949 5.76928C1.55585 5.4389 1.56182 5.11843 1.56627 4.80458C4.62237 4.67589 7.06577 3.74947 9.15818 1.92742C11.2505 3.74947 13.6945 4.67589 16.751 4.80458C16.7554 5.11843 16.7614 5.4389 16.7678 5.76877C16.8727 11.2747 16.9908 17.5079 9.15818 20.3532Z" fill="#FFFFFF"/>
<path fill-rule="evenodd" clip-rule="evenodd" d="M13.2626 12.4373L10.0256 6.68465C9.88263 6.43042 9.62638 6.27863 9.34024 6.27863C9.05409 6.27863 8.79784 6.43042 8.65486 6.68465L5.41791 12.4373C5.27476 12.6915 5.27476 12.9951 5.41791 13.2493C5.5609 13.5035 5.81715 13.6553 6.10329 13.6553H12.5773C12.8633 13.6553 13.1196 13.5035 13.2627 13.2493C13.4057 12.9951 13.4057 12.6915 13.2626 12.4373ZM9.34024 12.7195C9.05618 12.7195 8.82503 12.4824 8.82503 12.1909C8.82503 11.8995 9.05618 11.6623 9.34024 11.6623C9.62433 11.6623 9.85544 11.8995 9.85544 12.1909C9.85544 12.4824 9.62433 12.7195 9.34024 12.7195ZM9.85896 10.46C9.85896 10.7534 9.62625 10.992 9.34024 10.992C9.05426 10.992 8.82168 10.7534 8.82168 10.46V8.01758C8.82168 7.87826 8.93158 7.7655 9.06736 7.7655H9.61327C9.7491 7.7655 9.85896 7.87826 9.85896 8.01758V10.46Z" fill="#FFFFFF"/>
</svg>
