<svg width="26" height="20" viewBox="0 0 26 20" fill="none" xmlns="http://www.w3.org/2000/svg">
<path fill-rule="evenodd" clip-rule="evenodd" d="M13.2497 15.2046C13.1316 15.1633 13.005 15.1396 12.8729 15.1396H11.5381V13.6094H14.2743C14.8469 13.0908 15.5596 12.7699 16.3042 12.5489C16.1099 12.2693 15.941 11.9666 15.8006 11.6467H1.96231V2.03739H17.8652V4.46542C18.4537 4.23439 19.1234 4.10793 19.8275 4.10793V1.76673C19.8275 0.832405 19.0702 0.0750732 18.1357 0.0750732H1.69175C0.757332 0.0750732 0 0.832405 0 1.76673V11.9174C0 12.8517 0.757332 13.6094 1.69175 13.6094H8.28975V15.1396H6.95489C6.32377 15.1396 5.81246 15.6513 5.81246 16.2821C5.81246 16.9133 6.32377 17.4249 6.95489 17.4249H12.8726C12.8922 17.4249 12.9112 17.4229 12.9301 17.4219C12.9638 16.5747 13.0364 15.85 13.2497 15.2046Z" fill="white"/>
<path fill-rule="evenodd" clip-rule="evenodd" d="M25.6047 18.358C25.5728 16.6806 25.5515 15.5724 25.0281 14.7499C24.4283 13.8062 23.2911 13.4327 21.6487 13.136C21.648 13.136 21.6474 13.1358 21.6471 13.1358C21.6281 13.1321 21.475 13.1028 21.192 13.0738C21.0918 13.0691 21.0402 12.866 21.165 12.8045C22.3821 12.175 23.1936 10.6957 23.1936 9.09054C23.1936 7.76233 23.0086 6.88621 22.5935 6.25006C22.0788 5.46145 20.9417 5.05266 19.8275 5.05266C18.7137 5.05266 17.5766 5.46145 17.062 6.25006C16.6469 6.88621 16.4618 7.76233 16.4618 9.09054C16.4618 10.6957 17.2736 12.175 18.4906 12.8045C18.6151 12.866 18.5632 13.0691 18.4637 13.0738C18.1804 13.1028 18.0273 13.1321 18.0086 13.1358C18.008 13.1358 18.0074 13.136 18.007 13.136C16.3642 13.4327 15.2271 13.8062 14.6273 14.7499C14.1043 15.5724 14.083 16.6806 14.0507 18.358L14.046 18.6096C14.043 18.7584 14.1 18.9019 14.2038 19.0081C14.308 19.1143 14.4505 19.1742 14.5989 19.1742H25.0564C25.2052 19.1742 25.3477 19.1143 25.4516 19.0081C25.5558 18.9019 25.6127 18.7584 25.6097 18.6096L25.6047 18.358Z" fill="white"/>
</svg>
