<svg width="21" height="20" viewBox="0 0 21 20" fill="none" xmlns="http://www.w3.org/2000/svg">
<path fill-rule="evenodd" clip-rule="evenodd" d="M10.16 13.2H11.5667C11.2035 14.1158 10.6905 14.7523 10.16 14.9984V13.2ZM10.16 10.8H12.0534C12.0262 11.312 11.9702 11.8006 11.8688 12.24H10.1603V10.8H10.16ZM10.16 8.4H11.8685C11.9699 8.83935 12.0262 9.32797 12.0531 9.84H10.1597V8.4H10.16ZM10.16 5.64157C10.6905 5.88735 11.2035 6.52414 11.5667 7.44H10.16V5.64157ZM13.4957 7.44H12.5869C12.4233 6.95584 12.2202 6.51742 11.9846 6.13567C12.576 6.46301 13.0899 6.90397 13.4957 7.44ZM14.0733 8.4C14.2698 8.84733 14.3805 9.33438 14.4317 9.84H13.0259C13.0019 9.33855 12.9392 8.85694 12.8448 8.4H14.0733ZM14.0733 12.24H12.8448C12.9392 11.783 13.0019 11.3014 13.0259 10.8H14.4317C14.3805 11.3056 14.2698 11.7926 14.0733 12.24ZM11.9843 14.5043C12.2202 14.1225 12.423 13.6842 12.5869 13.2H13.4957C13.0899 13.736 12.576 14.1769 11.9843 14.5043ZM9.2 7.44H7.79326C8.15649 6.52414 8.66945 5.88769 9.2 5.64157V7.44ZM9.2 9.84H7.30655C7.33377 9.32797 7.38976 8.83935 7.4912 8.4H9.2V9.84ZM9.2 12.24H7.4912C7.38976 11.8006 7.33344 11.312 7.30655 10.8H9.2V12.24ZM9.2 14.9984C8.66945 14.7526 8.15649 14.1158 7.79326 13.2H9.2V14.9984ZM5.86464 13.2H6.77345C6.93695 13.6842 7.14016 14.1225 7.376 14.5043C6.78399 14.1769 6.27039 13.736 5.86464 13.2ZM5.28702 12.24C5.09056 11.7926 4.97982 11.3056 4.92864 10.8H6.33406C6.35806 11.3014 6.4208 11.783 6.51519 12.24H5.28702ZM5.28702 8.4H6.51552C6.42114 8.85694 6.3584 9.33855 6.3344 9.84H4.92897C4.97982 9.33438 5.09056 8.84733 5.28702 8.4ZM7.37566 6.13567C7.13982 6.51742 6.93695 6.95584 6.77311 7.44H5.86434C6.27039 6.90397 6.78399 6.46301 7.37566 6.13567ZM3.92 10.32C3.92 13.5011 6.49887 16.08 9.68 16.08C12.8611 16.08 15.44 13.5011 15.44 10.32C15.44 7.13887 12.8611 4.56 9.68 4.56C6.49887 4.56 3.92 7.13887 3.92 10.32Z" fill="#FFFFFF"/>
<path fill-rule="evenodd" clip-rule="evenodd" d="M19.8253 14.4921C19.7568 14.2362 19.4938 14.0841 19.2374 14.1526L18.3395 14.3933C18.9773 13.1706 19.3597 11.7945 19.3597 10.32C19.3597 6.15487 16.488 2.6691 12.6192 1.71037C12.6298 1.77952 12.64 1.84894 12.64 1.92C12.64 2.18302 12.5648 2.43326 12.4333 2.65376C15.857 3.52702 18.4 6.62816 18.4 10.32C18.4 11.5945 18.0848 12.7926 17.5475 13.8601L17.3309 13.0525C17.2624 12.7965 16.9994 12.6445 16.743 12.7129C16.615 12.7472 16.513 12.8301 16.4515 12.9366C16.3901 13.0432 16.3693 13.1728 16.4035 13.3008L16.9306 15.2678C16.9994 15.5241 17.2621 15.6758 17.5184 15.6073L19.4854 15.0803C19.7421 15.0115 19.8941 14.7485 19.8253 14.4921Z" fill="#FFFFFF"/>
<path d="M19.8253 14.4921C19.7568 14.2362 19.4938 14.0841 19.2374 14.1526L18.3395 14.3933C18.9773 13.1706 19.3597 11.7945 19.3597 10.32C19.3597 6.15487 16.488 2.6691 12.6192 1.71037C12.6298 1.77952 12.64 1.84894 12.64 1.92C12.64 2.18302 12.5648 2.43326 12.4333 2.65376C15.857 3.52702 18.4 6.62816 18.4 10.32C18.4 11.5945 18.0848 12.7926 17.5475 13.8601L17.3309 13.0525C17.2624 12.7965 16.9994 12.6445 16.743 12.7129C16.615 12.7472 16.513 12.8301 16.4515 12.9366C16.3901 13.0432 16.3693 13.1728 16.4035 13.3008L16.9306 15.2678C16.9994 15.5241 17.2621 15.6758 17.5184 15.6073L19.4854 15.0803C19.7421 15.0115 19.8941 14.7485 19.8253 14.4921" stroke="#FFFFFF" stroke-width="0.5"/>
<path fill-rule="evenodd" clip-rule="evenodd" d="M1.24511 12.4566C1.25055 12.4566 1.25599 12.4589 1.26176 12.4589C1.07006 11.7773 0.960338 11.0621 0.960338 10.32C0.960338 6.11168 4.26367 2.67488 8.41151 2.43008L7.82081 3.02078C7.63328 3.20832 7.63328 3.51199 7.82081 3.69953C7.91456 3.79328 8.03711 3.84 8.16 3.84C8.28289 3.84 8.40578 3.79328 8.49953 3.69953L9.93952 2.25953C10.127 2.07199 10.127 1.76832 9.93952 1.58078L8.49953 0.140778C8.31199 -0.0467224 8.00831 -0.0467224 7.82081 0.140778C7.63328 0.328315 7.63328 0.63199 7.82081 0.819528L8.4624 1.46112C3.75326 1.68064 0 5.55679 0 10.32C0 11.1722 0.12705 11.9933 0.351038 12.7734C0.5997 12.5754 0.910725 12.4566 1.24511 12.4566Z" fill="#FFFFFF"/>
<path d="M1.24511 12.4566C1.25055 12.4566 1.25599 12.4589 1.26176 12.4589C1.07006 11.7773 0.960338 11.0621 0.960338 10.32C0.960338 6.11168 4.26367 2.67488 8.41151 2.43008L7.82081 3.02078C7.63328 3.20832 7.63328 3.51199 7.82081 3.69953C7.91456 3.79328 8.03711 3.84 8.16 3.84C8.28289 3.84 8.40578 3.79328 8.49953 3.69953L9.93952 2.25953C10.127 2.07199 10.127 1.76832 9.93952 1.58078L8.49953 0.140778C8.31199 -0.0467224 8.00831 -0.0467224 7.82081 0.140778C7.63328 0.328315 7.63328 0.63199 7.82081 0.819528L8.4624 1.46112C3.75326 1.68064 0 5.55679 0 10.32C0 11.1722 0.12705 11.9933 0.351038 12.7734C0.5997 12.5754 0.910725 12.4566 1.24511 12.4566" stroke="#FFFFFF" stroke-width="0.5"/>
<path fill-rule="evenodd" clip-rule="evenodd" d="M15.3504 16.6378C13.9107 18.1171 11.9024 19.04 9.68 19.04C6.92607 19.04 4.51456 17.6141 3.09567 15.4745L3.88831 15.6871C4.14432 15.7558 4.40769 15.6038 4.47616 15.3475C4.5104 15.2195 4.48959 15.0896 4.42816 14.9834C4.36674 14.8771 4.26462 14.7943 4.13664 14.7597L2.16961 14.2326C1.91326 14.1641 1.65024 14.3158 1.58176 14.5721L1.05474 16.5392C0.986224 16.7955 1.13791 17.0582 1.39422 17.1271C1.65024 17.1958 1.9136 17.0438 1.98207 16.7875L2.22016 15.8995C3.79872 18.359 6.5408 20 9.68 20C12.1923 20 14.456 18.9523 16.0713 17.2755C15.7641 17.1542 15.5133 16.9289 15.3504 16.6378Z" fill="#FFFFFF"/>
<path d="M15.3504 16.6378C13.9107 18.1171 11.9024 19.04 9.68 19.04C6.92607 19.04 4.51456 17.6141 3.09567 15.4745L3.88831 15.6871C4.14432 15.7558 4.40769 15.6038 4.47616 15.3475C4.5104 15.2195 4.48959 15.0896 4.42816 14.9834C4.36674 14.8771 4.26462 14.7943 4.13664 14.7597L2.16961 14.2326C1.91326 14.1641 1.65024 14.3158 1.58176 14.5721L1.05474 16.5392C0.986224 16.7955 1.13791 17.0582 1.39422 17.1271C1.65024 17.1958 1.9136 17.0438 1.98207 16.7875L2.22016 15.8995C3.79872 18.359 6.5408 20 9.68 20C12.1923 20 14.456 18.9523 16.0713 17.2755C15.7641 17.1542 15.5133 16.9289 15.3504 16.6378" stroke="#FFFFFF" stroke-width="0.5"/>
</svg>
