<svg width="58" height="60" viewBox="0 0 58 60" fill="none" xmlns="http://www.w3.org/2000/svg">
<path fill-rule="evenodd" clip-rule="evenodd" d="M11.4901 10.0981H44.4133C44.4143 7.2776 42.1279 4.99071 39.3069 4.99173H6.38373C3.56322 4.99071 1.27683 7.2776 1.27734 10.0981V44.6808C1.27683 47.5013 3.56322 49.7882 6.38373 49.7872V15.2045C6.38322 12.384 8.6696 10.0971 11.4901 10.0981Z" fill="#D8E6FF"/>
<path fill-rule="evenodd" clip-rule="evenodd" d="M34.1619 48.5106C34.1643 44.2176 36.323 40.2133 39.908 37.8516C43.4929 35.4899 48.0248 35.087 51.9704 36.779C48.2906 33.2239 42.8441 32.2092 38.1307 34.1998C33.4178 36.191 30.3484 40.8032 30.3321 45.9195C30.3156 51.0359 33.3549 55.668 38.0555 57.6891C35.5646 55.2855 34.1588 51.9719 34.1619 48.5106Z" fill="#D8E6FF"/>
<path fill-rule="evenodd" clip-rule="evenodd" d="M48.7652 40.4043C48.5268 40.1654 48.2027 40.0307 47.865 40.0307C47.5275 40.0307 47.2039 40.1654 46.9649 40.4043L43.212 44.1572L39.2415 40.1874C38.7449 39.6901 37.939 39.6901 37.4419 40.1874C36.9447 40.6845 36.9447 41.4904 37.4419 41.987L41.4117 45.9575L37.4419 49.9279C37.2025 50.1663 37.0684 50.4899 37.0684 50.8274C37.0684 51.1656 37.2025 51.4892 37.4419 51.7275C37.6813 51.969 38.0083 52.1026 38.3479 52.0981C38.6871 52.0966 39.0117 51.964 39.2545 51.7275L43.225 47.7577L46.9779 51.5107C47.2173 51.7521 47.5445 51.8857 47.8846 51.8806C48.2231 51.8797 48.5478 51.7471 48.7906 51.5107C49.0299 51.2723 49.1641 50.9482 49.1641 50.6105C49.1641 50.273 49.0299 49.9494 48.7906 49.7104L45.0122 45.9575L48.7652 42.2045C49.004 41.9655 49.1387 41.6419 49.1387 41.3044C49.1387 40.9667 49.004 40.6426 48.7652 40.4043Z" fill="#FF2828"/>
<path fill-rule="evenodd" clip-rule="evenodd" d="M31.4681 26.6939H11.6809C10.9758 26.6939 10.4043 27.2653 10.4043 27.9705C10.4043 28.675 10.9758 29.2471 11.6809 29.2471H31.4681C32.1732 29.2471 32.7447 28.675 32.7447 27.9705C32.7447 27.2653 32.1732 26.6939 31.4681 26.6939Z" fill="#FF2828"/>
<path fill-rule="evenodd" clip-rule="evenodd" d="M23.5278 34.9918H11.6809C10.9758 34.9918 10.4043 35.5632 10.4043 36.2684C10.4043 36.9729 10.9758 37.545 11.6809 37.545H23.5278C24.2329 37.545 24.8044 36.9729 24.8044 36.2684C24.8044 35.5632 24.2329 34.9918 23.5278 34.9918Z" fill="#FF2828"/>
<path fill-rule="evenodd" clip-rule="evenodd" d="M12.8938 9.97047C13.598 9.96843 14.1683 9.39791 14.1704 8.69387V1.2766C14.1704 0.571532 13.5988 0 12.8938 0C12.1887 0 11.6172 0.571532 11.6172 1.2766V8.69387C11.6192 9.39791 12.1896 9.96843 12.8938 9.97047Z" fill="#FF2828"/>
<mask id="mask0" mask-type="alpha" maskUnits="userSpaceOnUse" x="0" y="0" width="58" height="60">
<path fill-rule="evenodd" clip-rule="evenodd" d="M0.0078125 0H57.1408V60H0.0078125V0Z" fill="white"/>
</mask>
<g mask="url(#mask0)">
<path fill-rule="evenodd" clip-rule="evenodd" d="M32.8078 0C32.1037 0.00204255 31.5333 0.572425 31.5312 1.2766V8.69387C31.5312 9.39843 32.1028 9.97047 32.8078 9.97047C33.5129 9.97047 34.0844 9.39843 34.0844 8.69387V1.2766C34.0824 0.572425 33.512 0.00204255 32.8078 0Z" fill="#FF2828"/>
<path fill-rule="evenodd" clip-rule="evenodd" d="M45.6891 32.1572V10.0981C45.6882 6.57294 42.8313 3.71604 39.3061 3.71515H6.38298C2.85843 3.71604 0.00153191 6.57294 0 10.0981V44.6809C0.00153191 48.2054 2.85843 51.0623 6.38298 51.0638H30.013C32.4694 57.355 39.0563 61.0069 45.6937 59.7577C52.331 58.5084 57.1397 52.7114 57.1407 45.9574C57.1407 39.1023 52.1997 33.383 45.6891 32.1572ZM6.38298 6.26834H39.3061C41.419 6.27421 43.13 7.98523 43.1359 10.0981V13.1874H2.55319V10.0981C2.55472 7.98319 4.26868 6.26974 6.38298 6.26834ZM6.38298 48.5106C4.2706 48.5046 2.55919 46.7932 2.55319 44.6809V15.7275H43.1359V31.9149H43.0981C38.9286 31.9214 34.9767 33.7769 32.3094 36.9818C29.6424 40.1863 28.5345 44.4096 29.2849 48.5106H6.38298ZM43.0981 57.4468C36.7526 57.4468 31.6088 52.303 31.6088 45.9574C31.6088 39.6119 36.7526 34.4681 43.0981 34.4681C49.4432 34.4681 54.5875 39.6119 54.5875 45.9574C54.5774 52.2991 49.4391 57.4374 43.0981 57.4468Z" fill="#246CF2"/>
</g>
</svg>
