<svg width="9" height="16" viewBox="0 0 9 16" fill="none" xmlns="http://www.w3.org/2000/svg">
<path fill-rule="evenodd" clip-rule="evenodd" d="M0.874286 13.5016H7.99352V2.38566H0.874286V13.5016ZM4.35175 15.5048C3.93956 15.5048 3.60432 15.1693 3.60432 14.7572C3.60432 14.345 3.93956 14.0097 4.35175 14.0097C4.76394 14.0097 5.09917 14.345 5.09917 14.7572C5.09917 15.1693 4.76381 15.5048 4.35175 15.5048ZM2.67708 1.09118C2.76965 0.998737 2.93816 0.997467 3.0306 1.09118C3.07695 1.1374 3.10438 1.20229 3.10438 1.26858C3.10438 1.33359 3.07695 1.39836 3.0306 1.44471C2.98451 1.49105 2.91937 1.51836 2.85448 1.51836C2.78832 1.51836 2.7247 1.49105 2.67708 1.44471C2.63098 1.39848 2.6047 1.33359 2.6047 1.26858C2.60457 1.20229 2.63098 1.1374 2.67708 1.09118ZM3.61867 1.01169H5.18565C5.3233 1.01169 5.43543 1.12344 5.43543 1.26147C5.43543 1.3995 5.3233 1.51124 5.18565 1.51124H3.61867C3.48063 1.51124 3.36889 1.3995 3.36889 1.26147C3.36889 1.12344 3.48063 1.01169 3.61867 1.01169ZM7.09943 0.0124512H1.69841C0.78019 0.0124512 0 0.76115 0 1.67912V14.3351C0 15.2531 0.763683 15.9999 1.6819 15.9999L7.09181 15.994C8.0099 15.994 8.76102 15.2471 8.76102 14.329L8.76889 1.67823C8.76876 0.756959 8.02133 0.0124512 7.09943 0.0124512Z" fill="#FFFFFF"/>
</svg>
