<svg width="20" height="5" viewBox="0 0 20 5" fill="none" xmlns="http://www.w3.org/2000/svg">
<path fill-rule="evenodd" clip-rule="evenodd" d="M19.2677 0.732305C20.2441 1.70866 20.2441 3.29147 19.2677 4.26783C18.2913 5.24423 16.7085 5.24423 15.7322 4.26783C14.7558 3.29147 14.7558 1.70866 15.7322 0.732305C16.7085 -0.244102 18.2913 -0.244102 19.2677 0.732305Z" fill="#D1DBEF"/>
<path fill-rule="evenodd" clip-rule="evenodd" d="M11.7677 0.732305C12.7441 1.70866 12.7441 3.29147 11.7677 4.26783C10.7913 5.24423 9.20854 5.24423 8.23218 4.26783C7.25578 3.29147 7.25578 1.70866 8.23218 0.732305C9.20854 -0.244102 10.7913 -0.244102 11.7677 0.732305Z" fill="#D1DBEF"/>
<path fill-rule="evenodd" clip-rule="evenodd" d="M4.2677 0.732305C5.24411 1.70866 5.24411 3.29147 4.2677 4.26783C3.29135 5.24423 1.70854 5.24423 0.732183 4.26783C-0.244224 3.29147 -0.244224 1.70866 0.732183 0.732305C1.70854 -0.244102 3.29135 -0.244102 4.2677 0.732305Z" fill="#D1DBEF"/>
</svg>
