<svg width="70" height="70" viewBox="0 0 70 70" fill="none" xmlns="http://www.w3.org/2000/svg">
<path fill-rule="evenodd" clip-rule="evenodd" d="M70 35C70 54.33 54.33 70 35 70C23.2014 70 12.7657 64.1614 6.42578 55.2156C6.42578 55.2156 6.42578 55.2156 6.42428 55.2156C4.81291 52.9415 3.46568 50.4671 2.42854 47.8357C1.90436 46.5057 1.45852 45.1371 1.09854 43.7329C1.09854 43.7329 1.09854 43.7329 1.09854 43.7314C0.381445 40.94 0 38.0142 0 35C0 15.67 15.67 0 35 0C45.8257 0 55.5029 4.91422 61.9214 12.6343C64.24 15.42 66.1329 18.5715 67.5015 21.9886C69.1128 26.0114 70 30.4028 70 35Z" fill="#EBE8E4"/>
<path fill-rule="evenodd" clip-rule="evenodd" d="M67.5016 21.9886C67.4987 22.0157 67.4958 22.0443 67.493 22.0728C67.3 23.8029 66.7544 25.6643 65.8829 27.5957L65.8816 27.5971L50.813 65.94L10.4529 56.4743C9.95719 56.3772 9.4758 56.2643 9.01014 56.1358C8.08291 55.8843 7.22008 55.5771 6.42588 55.2156C6.42588 55.2156 6.42588 55.2156 6.42438 55.2156C3.99871 51.7914 2.17146 47.9128 1.09863 43.7329C1.21867 43.2314 1.41158 42.4572 1.66588 41.5058C2.64588 37.8357 4.5501 31.5457 6.83863 28.2386L7.06148 35.89L22.1416 36.8957L42.5829 27.1771L51.4073 14.22L47.4987 7.96428C54.0186 9.5457 58.1501 10.9743 60.7515 12.1014C61.183 12.2872 61.5715 12.4657 61.9215 12.6343C64.5344 13.8957 65.0358 14.6628 65.0358 14.6628C65.8972 15.3885 66.5429 16.24 66.9358 17.2143C67.5073 18.6286 67.6859 20.2415 67.5016 21.9886Z" fill="#9C2B2E"/>
<path fill-rule="evenodd" clip-rule="evenodd" d="M23.7823 12.7688C35.0444 7.05127 46.2288 6.46324 48.7631 11.4554C51.2976 16.4477 44.2224 25.1296 32.9602 30.8472C21.6981 36.5647 10.5139 37.1528 7.97937 32.1606C5.44488 27.1685 12.5201 18.4864 23.7823 12.7688Z" fill="#D92E39"/>
<path fill-rule="evenodd" clip-rule="evenodd" d="M41.1769 50.4652L50.8124 65.9405L25.4302 55.9778C30.4412 54.9434 35.8219 53.1148 41.1769 50.4652Z" fill="#DF5359"/>
<path fill-rule="evenodd" clip-rule="evenodd" d="M6.83877 28.2387L7.0623 35.8903L1.66602 41.5056C2.64656 37.8361 4.54996 31.5461 6.83877 28.2387Z" fill="#DF5359"/>
<path fill-rule="evenodd" clip-rule="evenodd" d="M7.06148 35.89L2.42863 47.8357C1.90445 46.5057 1.45861 45.1372 1.09863 43.7329C1.09863 43.7329 1.09863 43.7329 1.09863 43.7314C1.22004 43.2301 1.41158 42.4557 1.66588 41.5058L7.06148 35.89Z" fill="#962B2E"/>
<path fill-rule="evenodd" clip-rule="evenodd" d="M51.4077 14.22L67.4928 22.0727C67.2995 23.803 66.7545 25.664 65.8821 27.5964L65.881 27.5976C65.2287 29.0454 64.392 30.5331 63.3844 32.0344L51.4077 14.22Z" fill="#962B2E"/>
<path fill-rule="evenodd" clip-rule="evenodd" d="M65.8811 27.5976L50.8125 65.9404L54.6718 41.6217C58.2842 38.5309 61.2276 35.2513 63.3846 32.0343C64.3922 30.533 65.2287 29.0451 65.8811 27.5976Z" fill="#D92E39"/>
<path fill-rule="evenodd" clip-rule="evenodd" d="M51.4077 14.22L63.3844 32.0343L42.583 27.1776L51.4077 14.22Z" fill="#D92E39"/>
<path fill-rule="evenodd" clip-rule="evenodd" d="M60.7514 12.101L51.4077 14.22L47.498 7.96359C54.018 9.54639 58.1499 10.974 60.7514 12.101Z" fill="#DF5359"/>
<path fill-rule="evenodd" clip-rule="evenodd" d="M42.583 27.1776L54.6716 41.6218C51.0357 44.7338 46.7228 47.6548 41.8493 50.1292C41.6246 50.2432 41.4014 50.3548 41.1768 50.4655L42.583 27.1776Z" fill="#962B2E"/>
<path fill-rule="evenodd" clip-rule="evenodd" d="M42.5831 27.1776L41.1768 50.4652L22.1416 36.8956L42.5831 27.1776Z" fill="#D92E39"/>
<path fill-rule="evenodd" clip-rule="evenodd" d="M22.1416 36.8956L41.1767 50.4651C35.8217 53.1147 30.441 54.9433 25.43 55.9777L22.1416 36.8956Z" fill="#962B2E"/>
<path fill-rule="evenodd" clip-rule="evenodd" d="M22.1417 36.8956L9.00998 56.1365L7.06201 35.8903L22.1417 36.8956Z" fill="#DF5359"/>
</svg>
