<svg width="17" height="20" viewBox="0 0 17 20" fill="none" xmlns="http://www.w3.org/2000/svg">
<path fill-rule="evenodd" clip-rule="evenodd" d="M3.07692 10C3.07692 10.425 2.73269 10.7692 2.30769 10.7692H0.769231C0.344231 10.7692 0 10.425 0 10C0 9.575 0.344231 9.23077 0.769231 9.23077H2.30769C2.73269 9.23077 3.07692 9.575 3.07692 10ZM3.07692 5.07654C3.07692 4.65154 2.73269 4.30731 2.30769 4.30731H0.769231C0.344231 4.30731 0 4.65154 0 5.07654C0 5.50192 0.344231 5.84577 0.769231 5.84577H2.30769C2.73269 5.84577 3.07692 5.50192 3.07692 5.07654ZM3.07692 14.9235C3.07692 14.4981 2.73269 14.1542 2.30769 14.1542H0.769231C0.344231 14.1542 0 14.4981 0 14.9235C0 15.3485 0.344231 15.6927 0.769231 15.6927H2.30769C2.73269 15.6927 3.07692 15.3485 3.07692 14.9235ZM16.615 2.46077V17.5392C16.615 18.8973 15.5138 20 14.1542 20H3.385C2.02538 20 0.922308 18.8973 0.922308 17.5392V16.3069H2.30769C3.07077 16.3069 3.69308 15.6865 3.69308 14.9235C3.69308 14.16 3.07077 13.5381 2.30769 13.5381H0.922308V11.3854H2.30769C3.07077 11.3854 3.69308 10.7631 3.69308 10C3.69308 9.23692 3.07077 8.61462 2.30769 8.61462H0.922308V6.46192H2.30769C3.07077 6.46192 3.69308 5.84 3.69308 5.07654C3.69308 4.31346 3.07077 3.69308 2.30769 3.69308H0.922308V2.46077C0.922308 1.10269 2.02538 0 3.385 0H14.1542C15.5138 0 16.615 1.10269 16.615 2.46077ZM6.85692 7.29731C6.85692 8.60731 7.92077 9.66961 9.23077 9.66961C10.5408 9.66961 11.6046 8.60731 11.6046 7.29731C11.6046 5.98538 10.5408 4.92346 9.23077 4.92346C7.92077 4.92346 6.85692 5.98538 6.85692 7.29731ZM12.9238 13.0996C12.9238 11.6423 11.7427 10.4612 10.2854 10.4612H8.17615C6.71885 10.4612 5.53769 11.6423 5.53769 13.0996V14.1542H12.9238V13.0996Z" fill="white"/>
</svg>
