<svg width="19" height="18" viewBox="0 0 19 18" fill="none" xmlns="http://www.w3.org/2000/svg">
<path fill-rule="evenodd" clip-rule="evenodd" d="M9.02005 0.1425C9.09922 0.0525 9.21338 0 9.33338 0C9.45338 0 9.56755 0.0525 9.64672 0.1425L12.5634 3.47583C12.6717 3.59833 12.6967 3.77333 12.6292 3.9225C12.5617 4.07167 12.4134 4.16667 12.2501 4.16667H10.5834V9.58333C10.5834 9.81333 10.3967 10 10.1667 10H8.50005C8.27005 10 8.08338 9.81333 8.08338 9.58333V4.16667H6.41672C6.25338 4.16667 6.10505 4.07083 6.03755 3.9225C5.96922 3.77333 5.99588 3.59917 6.10338 3.47583L9.02005 0.1425Z" fill="#246CF2"/>
<path fill-rule="evenodd" clip-rule="evenodd" d="M16.25 11V14.75H2.5V11H0V16C0 16.6912 0.56 17.25 1.25 17.25H17.5C18.1912 17.25 18.75 16.6912 18.75 16V11H16.25Z" fill="#246CF2"/>
</svg>
