<svg width="27" height="26" viewBox="0 0 27 26" fill="none" xmlns="http://www.w3.org/2000/svg">
<path fill-rule="evenodd" clip-rule="evenodd" d="M25.2053 3.94138C25.0629 3.70347 24.8285 3.53684 24.5581 3.4826L10.2038 0.0219721C9.73073 -0.0698604 9.26395 0.191548 9.10033 0.643603L3.62899 14.5434L5.4554 15.209L10.6405 1.99266L23.1127 5.1751C22.3338 7.58983 20.4804 12.63 18.7035 17.3229C17.1546 21.4173 16.2633 22.8195 14.569 23.1057C14.567 23.1036 14.5652 23.1019 14.5652 23.0989C11.1026 23.5842 11.1646 19.17 11.1646 19.17L0.106312 14.703C-0.679388 19.6841 3.14767 20.882 3.14767 20.882L11.2442 24.5578C11.2459 24.5588 12.51 25.1609 13.8836 25.0989C17.5888 25.0118 18.8909 22.3214 20.5224 18.011C22.8796 11.7815 25.2718 4.80162 25.2953 4.72759C25.3796 4.46343 25.3464 4.17851 25.2053 3.94138Z" fill="white"/>
<path fill-rule="evenodd" clip-rule="evenodd" d="M18.6623 9.54679C18.7465 9.56978 18.8339 9.58208 18.9201 9.58208C19.3464 9.58208 19.7366 9.29761 19.8562 8.86637C19.9983 8.34804 19.6914 7.81273 19.1741 7.67165L14.961 6.37133C14.4494 6.22974 13.9081 6.53393 13.7668 7.05175C13.6257 7.56983 13.9296 8.10513 14.4492 8.24698L18.6623 9.54679Z" fill="white"/>
<path fill-rule="evenodd" clip-rule="evenodd" d="M12.0797 10.9459C11.9105 11.4562 12.1848 12.0058 12.6938 12.1762L16.8846 13.6738C16.9864 13.7076 17.0863 13.7229 17.1873 13.7234C17.5961 13.7256 17.9788 13.4677 18.1154 13.0595C18.2847 12.5504 18.0111 12.0001 17.5 11.8297L13.3109 10.3333C12.7988 10.1637 12.2505 10.4378 12.0797 10.9459Z" fill="white"/>
<path fill-rule="evenodd" clip-rule="evenodd" d="M11.711 14.3911C11.2009 14.2204 10.6505 14.4988 10.4837 15.0106C10.3161 15.5185 10.5955 16.0695 11.1053 16.2362L15.3049 17.7276C15.4062 17.7618 15.507 17.7766 15.6091 17.7766C16.0169 17.7766 16.3974 17.5169 16.5317 17.1089C16.6993 16.5981 16.4209 16.0481 15.9111 15.8814L11.711 14.3911Z" fill="white"/>
<path fill-rule="evenodd" clip-rule="evenodd" d="M11.5553 5.23764C12.1505 5.23764 12.6335 5.70718 12.6335 6.28577C12.6335 6.86463 12.1505 7.33365 11.5553 7.33365C10.9598 7.33365 10.477 6.86463 10.477 6.28577C10.477 5.70718 10.9598 5.23764 11.5553 5.23764Z" fill="white"/>
<path fill-rule="evenodd" clip-rule="evenodd" d="M10.0301 9.13406C10.626 9.13406 11.1083 9.60309 11.1083 10.1817C11.1083 10.7596 10.626 11.2286 10.0301 11.2286C9.43451 11.2286 8.95172 10.7596 8.95172 10.1817C8.95172 9.60309 9.43451 9.13406 10.0301 9.13406Z" fill="white"/>
<path fill-rule="evenodd" clip-rule="evenodd" d="M8.40369 13.154C8.99926 13.154 9.48205 13.6236 9.48205 14.2032C9.48205 14.7815 8.99926 15.2501 8.40369 15.2501C7.80806 15.2501 7.32501 14.7815 7.32501 14.2032C7.32501 13.6236 7.80806 13.154 8.40369 13.154Z" fill="white"/>
<mask id="path-8-outside-1" maskUnits="userSpaceOnUse" x="11.3448" y="16.1031" width="16" height="10" fill="black">
<rect fill="white" x="11.3448" y="16.1031" width="16" height="10"/>
<path fill-rule="evenodd" clip-rule="evenodd" d="M19.4338 18.1031C18.8914 18.1031 18.4247 18.153 18.0283 18.2694C16.2417 18.7291 14.3448 21.1009 14.3448 21.1009C14.3448 21.1009 16.7679 23.9457 18.7034 23.9457C19.2458 23.9457 19.7136 23.8957 20.11 23.7783C21.8955 23.3186 23.7924 20.9479 23.7924 20.9479C23.7924 20.9479 21.3694 18.1031 19.4338 18.1031ZM18.9589 23.0153C17.919 23.0153 17.0762 22.1725 17.0762 21.1328C17.0762 20.0928 17.919 19.25 18.9589 19.25C19.9997 19.25 20.8425 20.0928 20.8425 21.1328C20.8425 22.1725 19.9997 23.0153 18.9589 23.0153Z"/>
</mask>
<path fill-rule="evenodd" clip-rule="evenodd" d="M19.4338 18.1031C18.8914 18.1031 18.4247 18.153 18.0283 18.2694C16.2417 18.7291 14.3448 21.1009 14.3448 21.1009C14.3448 21.1009 16.7679 23.9457 18.7034 23.9457C19.2458 23.9457 19.7136 23.8957 20.11 23.7783C21.8955 23.3186 23.7924 20.9479 23.7924 20.9479C23.7924 20.9479 21.3694 18.1031 19.4338 18.1031ZM18.9589 23.0153C17.919 23.0153 17.0762 22.1725 17.0762 21.1328C17.0762 20.0928 17.919 19.25 18.9589 19.25C19.9997 19.25 20.8425 20.0928 20.8425 21.1328C20.8425 22.1725 19.9997 23.0153 18.9589 23.0153Z" fill="white"/>
<path d="M18.0283 18.2694L18.5267 20.2063L18.5593 20.1979L18.5916 20.1884L18.0283 18.2694ZM14.3448 21.1009L12.7829 19.8517L11.7518 21.1409L12.8223 22.3977L14.3448 21.1009ZM20.11 23.7783L19.6113 21.8415L19.5765 21.8504L19.5421 21.8606L20.11 23.7783ZM23.7924 20.9479L25.354 22.1974L26.3856 20.9081L25.315 19.6511L23.7924 20.9479ZM19.4338 16.1031C18.7828 16.1031 18.1092 16.1613 17.465 16.3504L18.5916 20.1884C18.7402 20.1448 19.0001 20.1031 19.4338 20.1031V16.1031ZM17.5299 16.3325C16.1186 16.6956 14.8861 17.7109 14.1527 18.3947C13.7498 18.7704 13.4146 19.1263 13.1799 19.3882C13.0617 19.52 12.9671 19.6301 12.8999 19.7099C12.8663 19.7499 12.8394 19.7824 12.8197 19.8063C12.8099 19.8183 12.8019 19.8282 12.7958 19.8358C12.7927 19.8396 12.7901 19.8428 12.7879 19.8455C12.7869 19.8468 12.7859 19.848 12.7851 19.849C12.7847 19.8495 12.7843 19.85 12.7839 19.8505C12.7837 19.8507 12.7835 19.851 12.7834 19.8511C12.7832 19.8514 12.7829 19.8517 14.3448 21.1009C15.9068 22.35 15.9065 22.3503 15.9063 22.3506C15.9063 22.3506 15.9061 22.3509 15.9059 22.351C15.9057 22.3513 15.9055 22.3516 15.9053 22.3518C15.9049 22.3523 15.9047 22.3526 15.9045 22.3528C15.9042 22.3532 15.9044 22.353 15.9049 22.3523C15.9061 22.3509 15.9089 22.3474 15.9134 22.3419C15.9225 22.3309 15.9381 22.312 15.9598 22.2862C16.0033 22.2345 16.0708 22.1558 16.1584 22.058C16.3352 21.8609 16.5859 21.595 16.8805 21.3203C17.5422 20.7033 18.1514 20.3029 18.5267 20.2063L17.5299 16.3325ZM14.3448 21.1009C12.8223 22.3977 12.8225 22.398 12.8228 22.3983C12.8229 22.3984 12.8232 22.3988 12.8234 22.399C12.8238 22.3995 12.8242 22.4 12.8247 22.4006C12.8257 22.4017 12.8268 22.403 12.8281 22.4045C12.8306 22.4075 12.8338 22.4111 12.8375 22.4155C12.845 22.4241 12.8548 22.4355 12.8669 22.4493C12.8912 22.477 12.9246 22.5148 12.9664 22.5613C13.05 22.6541 13.168 22.7823 13.3146 22.9343C13.6055 23.2356 14.0208 23.6426 14.5128 24.0554C14.9985 24.4629 15.6 24.9109 16.2636 25.2653C16.9058 25.6083 17.757 25.9457 18.7034 25.9457V21.9457C18.7037 21.9457 18.656 21.9451 18.5514 21.9127C18.4474 21.8806 18.3125 21.8248 18.1481 21.737C17.813 21.558 17.4458 21.2948 17.0838 20.9911C16.7281 20.6927 16.4167 20.3885 16.1928 20.1565C16.082 20.0417 15.9956 19.9477 15.9391 19.8849C15.9109 19.8536 15.8903 19.8303 15.8781 19.8163C15.872 19.8093 15.868 19.8047 15.8662 19.8026C15.8653 19.8015 15.8649 19.8011 15.8651 19.8013C15.8652 19.8015 15.8655 19.8017 15.8659 19.8022C15.866 19.8024 15.8663 19.8027 15.8665 19.803C15.8667 19.8031 15.8669 19.8034 15.867 19.8035C15.8672 19.8037 15.8674 19.804 14.3448 21.1009ZM18.7034 25.9457C19.3536 25.9457 20.0307 25.8877 20.678 25.696L19.5421 21.8606C19.3965 21.9037 19.138 21.9457 18.7034 21.9457V25.9457ZM20.6087 25.7151C22.0192 25.352 23.2514 24.3371 23.9845 23.6536C24.3873 23.2781 24.7224 22.9225 24.9571 22.6607C25.0753 22.529 25.1699 22.4188 25.2371 22.3391C25.2707 22.2991 25.2976 22.2667 25.3172 22.2427C25.327 22.2308 25.335 22.2209 25.3412 22.2133C25.3443 22.2095 25.3469 22.2063 25.349 22.2036C25.3501 22.2023 25.351 22.2011 25.3519 22.2001C25.3523 22.1996 25.3527 22.1991 25.353 22.1986C25.3532 22.1984 25.3535 22.1981 25.3535 22.198C25.3538 22.1977 25.354 22.1974 23.7924 20.9479C22.2307 19.6984 22.231 19.6981 22.2312 19.6978C22.2312 19.6978 22.2314 19.6975 22.2315 19.6974C22.2318 19.6971 22.232 19.6968 22.2322 19.6966C22.2326 19.6961 22.2328 19.6958 22.233 19.6956C22.2333 19.6952 22.2331 19.6954 22.2326 19.6961C22.2314 19.6975 22.2286 19.701 22.2241 19.7065C22.215 19.7175 22.1994 19.7364 22.1777 19.7622C22.1341 19.8139 22.0667 19.8926 21.979 19.9903C21.8023 20.1874 21.5516 20.4531 21.257 20.7278C20.5953 21.3446 19.9863 21.7449 19.6113 21.8415L20.6087 25.7151ZM23.7924 20.9479C25.315 19.6511 25.3147 19.6508 25.3144 19.6504C25.3143 19.6503 25.314 19.65 25.3138 19.6498C25.3134 19.6493 25.313 19.6487 25.3125 19.6482C25.3115 19.647 25.3104 19.6457 25.3091 19.6442C25.3066 19.6413 25.3034 19.6376 25.2997 19.6333C25.2922 19.6246 25.2824 19.6133 25.2703 19.5994C25.2461 19.5717 25.2127 19.5339 25.1708 19.4874C25.0873 19.3946 24.9693 19.2664 24.8226 19.1145C24.5318 18.8131 24.1164 18.4061 23.6244 17.9933C23.1387 17.5858 22.5372 17.1379 21.8736 16.7834C21.2314 16.4404 20.3802 16.1031 19.4338 16.1031V20.1031C19.4336 20.1031 19.4812 20.1037 19.5858 20.136C19.6898 20.1682 19.8247 20.2239 19.9892 20.3117C20.3243 20.4907 20.6915 20.754 21.0535 21.0577C21.4091 21.3561 21.7205 21.6603 21.9445 21.8923C22.0552 22.007 22.1416 22.1011 22.1981 22.1638C22.2263 22.1952 22.2469 22.2185 22.2591 22.2324C22.2652 22.2394 22.2692 22.2441 22.271 22.2462C22.2719 22.2472 22.2723 22.2476 22.2721 22.2474C22.272 22.2473 22.2718 22.247 22.2714 22.2466C22.2712 22.2463 22.271 22.2461 22.2707 22.2458C22.2706 22.2456 22.2703 22.2453 22.2703 22.2453C22.27 22.245 22.2698 22.2447 23.7924 20.9479ZM18.9589 21.0153C19.0233 21.0153 19.0762 21.0677 19.0762 21.1328H15.0762C15.0762 23.2772 16.8146 25.0153 18.9589 25.0153V21.0153ZM19.0762 21.1328C19.0762 21.1974 19.0235 21.25 18.9589 21.25V17.25C16.8144 17.25 15.0762 18.9882 15.0762 21.1328H19.0762ZM18.9589 21.25C18.8956 21.25 18.8425 21.1979 18.8425 21.1328H22.8425C22.8425 18.9877 21.1037 17.25 18.9589 17.25V21.25ZM18.8425 21.1328C18.8425 21.0672 18.8958 21.0153 18.9589 21.0153V25.0153C21.1035 25.0153 22.8425 23.2778 22.8425 21.1328H18.8425Z" fill="#246CF2" mask="url(#path-8-outside-1)"/>
<path fill-rule="evenodd" clip-rule="evenodd" d="M19.0099 20.2419C19.0405 20.2991 19.0599 20.3634 19.0599 20.433C19.0599 20.6587 18.8771 20.8415 18.6514 20.8415C18.4746 20.8415 18.3256 20.7272 18.2694 20.5698C18.1436 20.723 18.0659 20.917 18.0659 21.1307C18.0659 21.6238 18.4655 22.0234 18.9589 22.0234C19.4531 22.0234 19.8524 21.6238 19.8524 21.1307C19.8524 20.6537 19.4788 20.2685 19.0099 20.2419Z" fill="white"/>
</svg>
