<svg width="18" height="20" viewBox="0 0 18 20" fill="none" xmlns="http://www.w3.org/2000/svg">
<mask id="mask0" mask-type="alpha" maskUnits="userSpaceOnUse" x="3" y="8" width="12" height="12">
<path fill-rule="evenodd" clip-rule="evenodd" d="M3.1124 8.62061H14.8366V19.9969H3.1124V8.62061Z" fill="white"/>
</mask>
<g mask="url(#mask0)">
<path fill-rule="evenodd" clip-rule="evenodd" d="M13.1124 15.1723C13.3026 15.1719 13.4566 15.0177 13.4572 14.8276V8.96545C13.4566 8.77519 13.3026 8.62118 13.1124 8.62061H4.83661C4.6464 8.62118 4.49218 8.77519 4.49177 8.96545V14.8276C4.49218 15.0177 4.6464 15.1719 4.83661 15.1723H13.1124ZM5.28135 10.4447L6.31593 9.4104C6.4512 9.27613 6.66974 9.27649 6.80458 9.41139C6.93927 9.54607 6.93989 9.76456 6.80562 9.89988L5.77109 10.9344C5.63494 11.0679 5.4175 11.0679 5.28135 10.9344C5.14687 10.7989 5.14687 10.5804 5.28135 10.4447ZM5.28135 12.169L8.38479 9.06555C8.52031 8.93123 8.73859 8.93165 8.87349 9.06654C9.00838 9.20123 9.0088 9.41972 8.87453 9.55524L5.77109 12.6587C5.63494 12.7919 5.4175 12.7919 5.28135 12.6587C5.14687 12.5232 5.14687 12.3045 5.28135 12.169Z" fill="#246CF2"/>
<path fill-rule="evenodd" clip-rule="evenodd" d="M3.1124 19.6549C3.11302 19.8451 3.26703 19.9991 3.45724 19.9997H14.4918C14.6822 19.9997 14.8366 19.8453 14.8366 19.6549C14.8366 19.4645 14.6822 19.3101 14.4918 19.3101H3.45724C3.26703 19.3107 3.11302 19.4647 3.1124 19.6549Z" fill="#246CF2"/>
</g>
<path fill-rule="evenodd" clip-rule="evenodd" d="M7.8951 17.9312L7.70547 18.6207H10.2435L10.0537 17.9312H7.8951Z" fill="#246CF2"/>
<path fill-rule="evenodd" clip-rule="evenodd" d="M4.29526 16.0791L3.4676 18.148C3.42427 18.2538 3.43666 18.374 3.50036 18.4688C3.56385 18.5636 3.67067 18.6206 3.78479 18.6204H6.98833L7.22963 17.748C7.31224 17.4485 7.58463 17.2412 7.8951 17.2412H10.0537C10.3634 17.241 10.6352 17.4467 10.7194 17.7445L10.9607 18.6204H14.1642C14.2784 18.6206 14.3849 18.5636 14.4486 18.4688C14.5123 18.374 14.5247 18.2538 14.4814 18.148L13.6537 16.0791C13.6031 15.9481 13.477 15.8618 13.3366 15.8618H4.61244C4.47203 15.8618 4.34588 15.9481 4.29526 16.0791Z" fill="#246CF2"/>
<path fill-rule="evenodd" clip-rule="evenodd" d="M4.14692 0.689687H4.83661V4.82766H4.14692C3.95651 4.82766 3.80208 4.98187 3.80208 5.17234C3.80208 5.36297 3.95651 5.51719 4.14692 5.51719H6.21583C6.40624 5.51719 6.56067 5.36297 6.56067 5.17234C6.56067 4.98187 6.40624 4.82766 6.21583 4.82766H5.52614V0.689687H6.21583C6.40624 0.689687 6.56067 0.53526 6.56067 0.344844C6.56067 0.154427 6.40624 0 6.21583 0H4.14692C3.95651 0 3.80208 0.154427 3.80208 0.344844C3.80208 0.53526 3.95651 0.689687 4.14692 0.689687Z" fill="#246CF2"/>
<mask id="mask1" mask-type="alpha" maskUnits="userSpaceOnUse" x="0" y="0" width="18" height="16">
<path fill-rule="evenodd" clip-rule="evenodd" d="M0.00895691 0H17.5952V15.662H0.00895691V0Z" fill="white"/>
</mask>
<g mask="url(#mask1)">
<path fill-rule="evenodd" clip-rule="evenodd" d="M11.3883 5.51719C11.5787 5.51719 11.7332 5.36297 11.7332 5.17234V3.10344H12.9401C13.797 3.10344 14.4918 2.40865 14.4918 1.55172C14.4918 0.694792 13.797 0 12.9401 0H11.3883C11.1979 0 11.0435 0.154427 11.0435 0.344844V5.17234C11.0435 5.36297 11.1979 5.51719 11.3883 5.51719ZM11.7332 0.689687H12.9401C13.4161 0.689687 13.8021 1.07562 13.8021 1.55172C13.8021 2.02781 13.4161 2.41375 12.9401 2.41375H11.7332V0.689687Z" fill="#246CF2"/>
<path fill-rule="evenodd" clip-rule="evenodd" d="M8.45724 3.10346H8.80208C9.27797 3.10387 9.66369 3.4896 9.66411 3.96549C9.66083 4.44033 9.27672 4.82424 8.80208 4.82767H8.45724C8.02979 4.82627 7.66765 4.51236 7.60557 4.08939C7.57692 3.90283 7.40317 3.77382 7.21619 3.80049C7.02922 3.8271 6.89838 3.99903 6.92281 4.18642C7.03448 4.94856 7.68698 5.51434 8.45724 5.51721H8.80208C9.65781 5.51392 10.3505 4.82116 10.3538 3.96549C10.3528 3.10892 9.65859 2.41476 8.80208 2.41377H8.45724C7.98135 2.41335 7.59562 2.02762 7.5952 1.55174C7.59437 1.32205 7.68677 1.10189 7.85156 0.94179C8.01104 0.779446 8.22958 0.688508 8.45724 0.689706H8.80208C9.22953 0.691165 9.59166 1.00486 9.65375 1.42783C9.68239 1.6146 9.85614 1.7434 10.0431 1.71674C10.2301 1.69028 10.3609 1.51814 10.3365 1.3308C10.2248 0.568664 9.57234 0.00288328 8.80208 1.86921e-05H8.45724C8.04645 -0.00201256 7.65218 0.161581 7.3639 0.454133C7.06911 0.74304 6.90369 1.13892 6.90552 1.55174C6.90651 2.40825 7.60073 3.10241 8.45724 3.10346Z" fill="#246CF2"/>
<path fill-rule="evenodd" clip-rule="evenodd" d="M0.353801 15.5171H2.76755C2.95797 15.5171 3.11239 15.3629 3.11239 15.1723V12.7585C3.11239 12.5681 2.95797 12.4137 2.76755 12.4137C2.57708 12.4137 2.42271 12.5681 2.42271 12.7585V14.4592C0.174374 11.1671 0.724478 6.71687 3.70687 4.07161C3.84583 3.94421 3.85703 3.72901 3.73187 3.58802C3.60677 3.44703 3.39151 3.43276 3.2489 3.55604C0.0144258 6.42573 -0.589168 11.2495 1.83859 14.8276H0.353801C0.163384 14.8276 0.00895691 14.9818 0.00895691 15.1723C0.00895691 15.3629 0.163384 15.5171 0.353801 15.5171Z" fill="#246CF2"/>
<path fill-rule="evenodd" clip-rule="evenodd" d="M14.1469 3.79309V6.20684C14.1469 6.39725 14.3014 6.55168 14.4918 6.55168C14.6822 6.55168 14.8366 6.39725 14.8366 6.20684V4.661C17.5098 7.59215 17.6031 12.0485 15.0552 15.0891C14.9721 15.1831 14.9469 15.3145 14.9888 15.4327C15.0307 15.5507 15.1336 15.6368 15.2572 15.6573C15.3808 15.6779 15.506 15.6296 15.5839 15.5316C18.3736 12.2031 18.2479 7.31809 15.2903 4.13793H16.9055C17.0959 4.13793 17.2504 3.9835 17.2504 3.79309C17.2504 3.60267 17.0959 3.44824 16.9055 3.44824H14.4918C14.3014 3.44824 14.1469 3.60267 14.1469 3.79309Z" fill="#246CF2"/>
</g>
</svg>
