<svg width="132" height="23" viewBox="0 0 132 23" fill="none" xmlns="http://www.w3.org/2000/svg">
<path fill-rule="evenodd" clip-rule="evenodd" d="M131.58 12.9699C131.58 13.2001 131.568 13.4425 131.544 13.6887H120.573C120.728 14.8844 121.217 15.8417 122.043 16.5646C122.869 17.2834 123.886 17.645 125.098 17.645C125.984 17.645 126.77 17.4503 127.461 17.0571C128.152 16.6679 128.696 16.1196 129.102 15.4247H131.242C130.69 16.7513 129.88 17.7799 128.804 18.5189C127.731 19.2575 126.496 19.6229 125.098 19.6229C123.874 19.6229 122.758 19.3331 121.753 18.753C120.748 18.1693 119.962 17.3668 119.39 16.3422C118.822 15.3174 118.536 14.1733 118.536 12.9103C118.536 11.6512 118.822 10.5111 119.39 9.48253C119.962 8.45376 120.748 7.65143 121.753 7.06753C122.758 6.48748 123.874 6.19368 125.098 6.19368C126.369 6.19368 127.505 6.49935 128.498 7.10329C129.491 7.70678 130.253 8.52528 130.782 9.55375C131.314 10.5787 131.58 11.7187 131.58 12.9699ZM125.098 8.11618C123.934 8.11618 122.949 8.44975 122.142 9.12091C121.336 9.79221 120.828 10.69 120.617 11.814H129.554C129.34 10.6741 128.827 9.77248 128.025 9.10889C127.223 8.44575 126.246 8.11618 125.098 8.11618Z" fill="black"/>
<path fill-rule="evenodd" clip-rule="evenodd" d="M118.137 6.56702V8.26694H114.192V19.3449H112.167V8.26694H109.629V6.56702H112.167V5.52223C112.167 4.13199 112.5 3.09921 113.168 2.4242C113.835 1.74874 114.88 1.41131 116.298 1.41131H118.113V3.05173H116.659C115.746 3.05173 115.094 3.24626 114.705 3.62762C114.316 4.01283 114.121 4.66039 114.121 5.566V6.56702H118.137Z" fill="black"/>
<path fill-rule="evenodd" clip-rule="evenodd" d="M106.355 6.47561H107.975V19.3449H106.299L106.077 17.3907C105.473 18.0977 104.738 18.646 103.872 19.0352C103.006 19.4285 102.057 19.6229 101.028 19.6229C99.777 19.6229 98.6449 19.3331 97.6282 18.753C96.6113 18.1693 95.817 17.3628 95.2371 16.3383C94.661 15.3094 94.3711 14.1653 94.3711 12.9103C94.3711 10.9878 95.0025 9.38712 96.2737 8.10817C97.5408 6.83308 99.1254 6.19368 101.028 6.19368C102.057 6.19368 103.014 6.39207 103.888 6.7893C104.766 7.18268 105.509 7.73868 106.112 8.45376L106.355 6.47561ZM97.791 16.3064C98.6926 17.216 99.8208 17.6689 101.179 17.6689C102.534 17.6689 103.662 17.216 104.559 16.3144C105.453 15.4088 105.902 14.2766 105.902 12.9103C105.902 11.5439 105.453 10.408 104.559 9.50612C103.662 8.60052 102.534 8.15165 101.179 8.15165C99.8208 8.15165 98.6926 8.60452 97.791 9.51013C96.8932 10.4197 96.4403 11.5518 96.4403 12.9103C96.4403 14.2688 96.8932 15.4008 97.791 16.3064Z" fill="black"/>
<path fill-rule="evenodd" clip-rule="evenodd" d="M86.9737 19.5555C85.1266 19.5555 83.6411 19.071 82.5132 18.0977C81.385 17.1286 80.8171 15.8298 80.8171 14.2011H82.95C82.95 15.218 83.3194 16.0243 84.0663 16.6162C84.809 17.2082 85.7701 17.506 86.9498 17.506C88.0223 17.506 88.9159 17.2439 89.6269 16.7195C90.3419 16.1991 90.6994 15.4999 90.6994 14.6301C90.6994 14.4237 90.6716 14.221 90.616 14.0345C90.5644 13.8436 90.5007 13.6768 90.4293 13.5339C90.3618 13.3869 90.2507 13.2517 90.0996 13.1208C89.9488 12.9858 89.8137 12.8745 89.6905 12.7831C89.5715 12.688 89.3967 12.5926 89.1621 12.4972C88.9279 12.3979 88.7411 12.3224 88.5984 12.2627C88.4552 12.2074 88.2366 12.1398 87.9389 12.0603C87.645 11.9808 87.4224 11.9251 87.2757 11.8854C87.1286 11.8457 86.8901 11.7901 86.5566 11.7107C85.1346 11.369 84.1177 11.0553 83.5062 10.7695C82.1636 10.1259 81.3929 9.16068 81.1905 7.86971C81.1507 7.62368 81.1308 7.36134 81.1308 7.09127C81.1308 5.65741 81.6433 4.52521 82.6681 3.69514C83.6927 2.86506 85.0749 2.44794 86.8109 2.44794C88.5347 2.44794 89.8932 2.89281 90.8902 3.78254C91.8869 4.66826 92.3874 5.87183 92.3874 7.39309H90.3142C90.3142 6.48748 89.9846 5.7687 89.3212 5.24029C88.6579 4.71203 87.8038 4.44998 86.7633 4.44998C85.7344 4.44998 84.8844 4.68028 84.221 5.14102C83.5578 5.60577 83.228 6.22143 83.228 6.99986C83.228 7.25405 83.2677 7.4885 83.3511 7.70292C83.4306 7.91749 83.5301 8.1003 83.6451 8.25908C83.7642 8.42186 83.9352 8.57292 84.1575 8.71581C84.3839 8.85886 84.5903 8.97401 84.7771 9.06526C84.9599 9.15266 85.218 9.24808 85.5477 9.34735C85.8774 9.45077 86.1515 9.52601 86.37 9.58165C86.5883 9.6373 86.8901 9.70882 87.2757 9.80423C88.6975 10.1537 89.7144 10.4714 90.326 10.7575C91.7083 11.3929 92.5226 12.3501 92.7689 13.6291C92.8323 13.943 92.8641 14.2688 92.8641 14.6102C92.8641 15.6311 92.602 16.5248 92.0778 17.2795C91.5534 18.0342 90.8505 18.6023 89.9726 18.9836C89.0909 19.3648 88.0899 19.5555 86.9737 19.5555Z" fill="black"/>
<path fill-rule="evenodd" clip-rule="evenodd" d="M74.0625 6.19368C75.5918 6.19368 76.7995 6.68617 77.6931 7.66716C78.5828 8.64815 79.0317 9.97488 79.0317 11.6393V19.3449H77.0059V12.1198C77.0059 10.8171 76.7081 9.8121 76.1082 9.10503C75.5124 8.39812 74.6544 8.04466 73.5384 8.04466C72.4381 8.04466 71.5126 8.45762 70.7698 9.27983C70.023 10.102 69.6496 11.1189 69.6496 12.3264V19.3449H67.6161V1.87992H69.6496V8.23118C70.1542 7.58792 70.7899 7.08741 71.5484 6.72995C72.307 6.37219 73.1451 6.19368 74.0625 6.19368Z" fill="black"/>
<path fill-rule="evenodd" clip-rule="evenodd" d="M64.2611 17.4702H65.6592V19.3449H63.9948C62.6048 19.3449 61.5164 18.9438 60.7181 18.1415C59.9235 17.339 59.5264 16.2389 59.5264 14.8406V8.3027H57.2583V7.94138L61.2385 3.75078H61.5522V6.47561H65.5877V8.3027H61.5522V14.7851C61.5522 15.651 61.7825 16.3183 62.2511 16.7792C62.7158 17.2399 63.3873 17.4702 64.2611 17.4702Z" fill="black"/>
<path fill-rule="evenodd" clip-rule="evenodd" d="M50.4273 19.6229C48.6953 19.6229 47.3131 19.1028 46.2766 18.066C45.2398 17.0253 44.7234 15.6391 44.7234 13.9113V6.47561H46.7492V13.5856C46.7492 14.8487 47.0788 15.8457 47.7381 16.5765C48.3975 17.3033 49.2912 17.6689 50.4273 17.6689C51.5672 17.6689 52.4648 17.3033 53.1204 16.5685C53.7756 15.8378 54.1015 14.8406 54.1015 13.5856V6.47561H56.1271V13.9113C56.1271 15.6391 55.6106 17.0253 54.5781 18.066C53.5494 19.1028 52.1631 19.6229 50.4273 19.6229Z" fill="black"/>
<path fill-rule="evenodd" clip-rule="evenodd" d="M42.3261 19.3449L40.6735 15.3532H34.5209L35.3011 13.4345H39.8951L36.634 5.54211L34.5629 10.6542L31.7507 17.5675L31.0255 19.3449H28.8052L35.6211 2.65835H37.5793L44.594 19.3449H42.3261Z" fill="black"/>
<path fill-rule="evenodd" clip-rule="evenodd" d="M23.5447 0V7.04319C23.5447 11.3335 22.0382 14.4152 19.1611 17.1988L12.8319 22.4622L12.6003 22.651C12.1131 23.0481 11.4317 23.0481 10.9444 22.651L5.91961 18.5568C2.04492 15.3995 0 12.0419 0 7.04319V0L0.240535 0.1334C7.30124 4.04978 16.2435 4.04948 23.3043 0.1334L23.5447 0Z" fill="#246CF2"/>
<path fill-rule="evenodd" clip-rule="evenodd" d="M2.2307 8.30953H5.33703C6.75235 8.30953 8.25521 9.44944 8.67663 10.8426L8.91494 11.63C9.20281 12.5817 10.0578 13.2091 11.0666 13.2091H12.5489C13.5575 13.2091 14.4127 12.5814 14.7006 11.63L14.9387 10.8426C15.3603 9.44944 16.863 8.30953 18.2783 8.30953H21.3847L20.5347 11.1191C20.113 12.5124 18.6103 13.6524 17.1948 13.6524H16.0167C15.1781 13.6524 14.4559 13.9751 13.904 14.5968L11.8075 16.9581L9.71134 14.5968C9.15934 13.9751 8.43714 13.6524 7.59845 13.6524H6.4207C5.00524 13.6524 3.50238 12.5124 3.08081 11.1191L2.2307 8.30953Z" fill="#246CF2"/>
<path fill-rule="evenodd" clip-rule="evenodd" d="M2.2307 8.30953H5.33703C6.75235 8.30953 8.25521 9.44944 8.67663 10.8426L8.91494 11.63C9.20281 12.5817 10.0578 13.2091 11.0666 13.2091H12.5489C13.5575 13.2091 14.4127 12.5814 14.7006 11.63L14.9387 10.8426C15.3603 9.44944 16.863 8.30953 18.2783 8.30953H21.3847L20.5347 11.1191C20.113 12.5124 18.6103 13.6524 17.1948 13.6524H16.0167C15.1781 13.6524 14.4559 13.9751 13.904 14.5968L11.8075 16.9581L9.71134 14.5968C9.15934 13.9751 8.43714 13.6524 7.59845 13.6524H6.4207C5.00524 13.6524 3.50238 12.5124 3.08081 11.1191L2.2307 8.30953Z" fill="#61ECFF"/>
<path fill-rule="evenodd" clip-rule="evenodd" d="M1.81522 0.927716V3.09906H4.23734V1.87443C4.52611 1.9691 4.81665 2.05902 5.10882 2.14241V4.70194H6.10717C6.31417 4.70194 6.48304 4.87096 6.48304 5.07781V5.19726C6.48304 5.40411 6.31402 5.57327 6.10717 5.57327H5.5479C4.82644 5.57327 4.23734 4.98447 4.23734 4.26272V3.97039H2.25445C1.53269 3.97039 0.943893 3.38159 0.943893 2.65999V0.507187C1.23162 0.653794 1.52231 0.793723 1.81522 0.927716ZM8.71953 4.70194H12.1789V3.06701C12.4694 3.06212 12.76 3.05173 13.0502 3.03659V4.26272C13.0502 4.98403 12.461 5.57327 11.7398 5.57327H8.71953C8.51297 5.57327 8.34351 5.40441 8.34351 5.19726V5.07781C8.34351 4.87081 8.51253 4.70194 8.71953 4.70194Z" fill="#61ECFF"/>
<path fill-rule="evenodd" clip-rule="evenodd" d="M4.673 5.8555C4.91368 5.8555 5.10852 6.05034 5.10852 6.29102C5.10852 6.5317 4.91368 6.72654 4.673 6.72654C4.43232 6.72654 4.23734 6.5317 4.23734 6.29102C4.23734 6.05034 4.43232 5.8555 4.673 5.8555Z" fill="#61ECFF"/>
<path fill-rule="evenodd" clip-rule="evenodd" d="M13.862 4.70209C14.1027 4.70209 14.2977 4.89707 14.2977 5.13761C14.2977 5.37829 14.1027 5.57327 13.862 5.57327C13.6213 5.57327 13.4265 5.37829 13.4265 5.13761C13.4265 4.89707 13.6213 4.70209 13.862 4.70209Z" fill="#61ECFF"/>
<path fill-rule="evenodd" clip-rule="evenodd" d="M15.3791 4.70194H17.303C17.5431 4.70194 17.7386 4.89766 17.7386 5.13746V5.13761C17.7386 5.3774 17.5431 5.57327 17.303 5.57327H15.3791C15.1392 5.57327 14.9436 5.3774 14.9436 5.13761V5.13746C14.9436 4.89766 15.1392 4.70194 15.3791 4.70194Z" fill="#61ECFF"/>
<path fill-rule="evenodd" clip-rule="evenodd" d="M18.6655 4.70209C18.906 4.70209 19.101 4.89707 19.101 5.13761C19.101 5.37829 18.906 5.57327 18.6655 5.57327C18.4248 5.57327 18.2298 5.37829 18.2298 5.13761C18.2298 4.89707 18.4248 4.70209 18.6655 4.70209Z" fill="#61ECFF"/>
<path fill-rule="evenodd" clip-rule="evenodd" d="M7.40882 4.70209C7.64951 4.70209 7.84449 4.89707 7.84449 5.13761C7.84449 5.37829 7.64951 5.57327 7.40882 5.57327C7.16814 5.57327 6.97316 5.37829 6.97316 5.13761C6.97316 4.89707 7.16814 4.70209 7.40882 4.70209Z" fill="#61ECFF"/>
<path fill-rule="evenodd" clip-rule="evenodd" d="M10.6655 5.57327V7.49711C10.6655 7.73705 10.4696 7.93263 10.2298 7.93263H10.2297C9.98986 7.93263 9.79399 7.73705 9.79399 7.49711V5.57327C9.79399 5.33333 9.98986 5.13761 10.2297 5.13761H10.2298C10.4696 5.13761 10.6655 5.33333 10.6655 5.57327Z" fill="#61ECFF"/>
<path fill-rule="evenodd" clip-rule="evenodd" d="M10.2297 8.33535C10.4703 8.33535 10.6652 8.53033 10.6652 8.77101C10.6652 9.0117 10.4703 9.20653 10.2297 9.20653C9.98897 9.20653 9.79399 9.0117 9.79399 8.77101C9.79399 8.53033 9.98897 8.33535 10.2297 8.33535Z" fill="#61ECFF"/>
<path fill-rule="evenodd" clip-rule="evenodd" d="M7.84464 2.75258V3.82898C7.84464 4.06892 7.64877 4.2645 7.40897 4.2645H7.40882C7.16903 4.2645 6.97316 4.06892 6.97316 3.82898V2.59455C7.26266 2.65272 7.5532 2.70525 7.84464 2.75258Z" fill="#61ECFF"/>
<path fill-rule="evenodd" clip-rule="evenodd" d="M20.4469 1.46785V5.13761C20.4469 5.3774 20.2508 5.57327 20.0113 5.57327H20.011C19.7716 5.57327 19.5755 5.3777 19.5755 5.13761V1.78495C19.868 1.68523 20.1582 1.57928 20.4469 1.46785Z" fill="#61ECFF"/>
<path fill-rule="evenodd" clip-rule="evenodd" d="M14.5885 19.139V21.0014L13.7172 21.7259V19.139C13.7172 18.899 13.9131 18.7033 14.1527 18.7033H14.153C14.3928 18.7033 14.5885 18.8999 14.5885 19.139Z" fill="#61ECFF"/>
<path fill-rule="evenodd" clip-rule="evenodd" d="M17.9237 18.2279H15.4812C15.2416 18.2279 15.0456 18.0316 15.0456 17.7922V17.7921C15.0456 17.5527 15.2413 17.3564 15.4812 17.3564H18.9714L17.9237 18.2279Z" fill="#61ECFF"/>
<path fill-rule="evenodd" clip-rule="evenodd" d="M14.153 17.3564C14.3937 17.3564 14.5885 17.5514 14.5885 17.7921C14.5885 18.0326 14.3937 18.2276 14.153 18.2276C13.9123 18.2276 13.7175 18.0326 13.7175 17.7921C13.7175 17.5514 13.9123 17.3564 14.153 17.3564Z" fill="#61ECFF"/>
<path fill-rule="evenodd" clip-rule="evenodd" d="M17.993 16.4647V17.454C17.993 17.6938 17.7969 17.8895 17.5573 17.8895H17.5572C17.3177 17.8895 17.1215 17.694 17.1215 17.454V16.4647C17.1215 16.2248 17.3174 16.0291 17.5572 16.0291H17.5573C17.7971 16.0291 17.993 16.2252 17.993 16.4647Z" fill="#61ECFF"/>
<path fill-rule="evenodd" clip-rule="evenodd" d="M17.5572 14.788C17.7978 14.788 17.9927 14.9829 17.9927 15.2235C17.9927 15.4642 17.7978 15.6591 17.5572 15.6591C17.3165 15.6591 17.1215 15.4642 17.1215 15.2235C17.1215 14.9829 17.3165 14.788 17.5572 14.788Z" fill="#61ECFF"/>
<path fill-rule="evenodd" clip-rule="evenodd" d="M14.153 19.5748H11.2946C11.0553 19.5748 10.8591 19.3783 10.8591 19.1391V19.139C10.8591 18.8999 11.0547 18.7033 11.2946 18.7033H14.153C14.393 18.7033 14.5885 18.8992 14.5885 19.139V19.1391C14.5885 19.3789 14.3916 19.5748 14.153 19.5748Z" fill="#61ECFF"/>
<path fill-rule="evenodd" clip-rule="evenodd" d="M9.95767 18.7033C10.1982 18.7033 10.3932 18.8983 10.3932 19.139C10.3932 19.3797 10.1982 19.5746 9.95767 19.5746C9.71698 19.5746 9.522 19.3797 9.522 19.139C9.522 18.8983 9.71698 18.7033 9.95767 18.7033Z" fill="#61ECFF"/>
<path fill-rule="evenodd" clip-rule="evenodd" d="M7.48762 17.3098V19.8342L6.61629 19.1241V17.3098C6.61629 17.0699 6.81201 16.8743 7.0518 16.8743H7.0521C7.29175 16.8743 7.48762 17.0707 7.48762 17.3098Z" fill="#61ECFF"/>
<path fill-rule="evenodd" clip-rule="evenodd" d="M7.0518 15.6287C7.29249 15.6287 7.48732 15.8236 7.48732 16.0642C7.48732 16.3049 7.29249 16.4999 7.0518 16.4999C6.81112 16.4999 6.61629 16.3049 6.61629 16.0642C6.61629 15.8236 6.81112 15.6287 7.0518 15.6287Z" fill="#61ECFF"/>
</svg>
