<svg width="24" height="23" viewBox="0 0 24 23" fill="none" xmlns="http://www.w3.org/2000/svg">
<path fill-rule="evenodd" clip-rule="evenodd" d="M23.5447 0V7.04319C23.5447 11.3335 22.0382 14.4152 19.1611 17.1988L12.8319 22.4622L12.6003 22.651C12.1131 23.0481 11.4317 23.0481 10.9444 22.651L5.91961 18.5568C2.04492 15.3995 0 12.0419 0 7.04319V0L0.240535 0.1334C7.30124 4.04978 16.2435 4.04948 23.3043 0.1334L23.5447 0Z" fill="#246CF2"/>
<path fill-rule="evenodd" clip-rule="evenodd" d="M2.23047 8.30953H5.3368C6.75212 8.30953 8.25498 9.44944 8.6764 10.8426L8.91471 11.63C9.20258 12.5817 10.0576 13.2091 11.0663 13.2091H12.5487C13.5573 13.2091 14.4125 12.5814 14.7003 11.63L14.9385 10.8426C15.3601 9.44944 16.8628 8.30953 18.2781 8.30953H21.3844L20.5345 11.1191C20.1127 12.5124 18.61 13.6524 17.1946 13.6524H16.0165C15.1778 13.6524 14.4556 13.9751 13.9038 14.5968L11.8072 16.9581L9.71111 14.5968C9.15911 13.9751 8.43691 13.6524 7.59822 13.6524H6.42048C5.00501 13.6524 3.50215 12.5124 3.08058 11.1191L2.23047 8.30953Z" fill="#61ECFF"/>
<path fill-rule="evenodd" clip-rule="evenodd" d="M1.81664 0.927716V3.09906H4.23876V1.87443C4.52753 1.9691 4.81807 2.05902 5.11024 2.14241V4.70194H6.10859C6.31559 4.70194 6.48445 4.87095 6.48445 5.07781V5.19726C6.48445 5.40411 6.31544 5.57327 6.10859 5.57327H5.54932C4.82786 5.57327 4.23876 4.98447 4.23876 4.26272V3.97039H2.25587C1.53411 3.97039 0.945312 3.38159 0.945312 2.65999V0.507187C1.23304 0.653793 1.52373 0.793722 1.81664 0.927716ZM8.72094 4.70194H12.1803V3.06701C12.4708 3.06212 12.7614 3.05173 13.0516 3.03659V4.26272C13.0516 4.98403 12.4624 5.57327 11.7412 5.57327H8.72094C8.51439 5.57327 8.34493 5.40441 8.34493 5.19726V5.07781C8.34493 4.87081 8.51395 4.70194 8.72094 4.70194Z" fill="#61ECFF"/>
<path fill-rule="evenodd" clip-rule="evenodd" d="M4.67395 5.8555C4.91463 5.8555 5.10946 6.05034 5.10946 6.29102C5.10946 6.5317 4.91463 6.72654 4.67395 6.72654C4.43326 6.72654 4.23828 6.5317 4.23828 6.29102C4.23828 6.05034 4.43326 5.8555 4.67395 5.8555Z" fill="#61ECFF"/>
<path fill-rule="evenodd" clip-rule="evenodd" d="M13.8613 4.70209C14.102 4.70209 14.297 4.89707 14.297 5.13761C14.297 5.37829 14.102 5.57327 13.8613 5.57327C13.6206 5.57327 13.4258 5.37829 13.4258 5.13761C13.4258 4.89707 13.6206 4.70209 13.8613 4.70209Z" fill="#61ECFF"/>
<path fill-rule="evenodd" clip-rule="evenodd" d="M15.3808 4.70194H17.3047C17.5448 4.70194 17.7403 4.89767 17.7403 5.13746V5.13761C17.7403 5.3774 17.5448 5.57327 17.3047 5.57327H15.3808C15.1409 5.57327 14.9453 5.3774 14.9453 5.13761V5.13746C14.9453 4.89767 15.1409 4.70194 15.3808 4.70194Z" fill="#61ECFF"/>
<path fill-rule="evenodd" clip-rule="evenodd" d="M18.6661 4.70209C18.9067 4.70209 19.1016 4.89707 19.1016 5.13761C19.1016 5.37829 18.9067 5.57327 18.6661 5.57327C18.4254 5.57327 18.2305 5.37829 18.2305 5.13761C18.2305 4.89707 18.4254 4.70209 18.6661 4.70209Z" fill="#61ECFF"/>
<path fill-rule="evenodd" clip-rule="evenodd" d="M7.40832 4.70209C7.649 4.70209 7.84399 4.89707 7.84399 5.13761C7.84399 5.37829 7.649 5.57327 7.40832 5.57327C7.16764 5.57327 6.97266 5.37829 6.97266 5.13761C6.97266 4.89707 7.16764 4.70209 7.40832 4.70209Z" fill="#61ECFF"/>
<path fill-rule="evenodd" clip-rule="evenodd" d="M10.6644 5.57327V7.49711C10.6644 7.73705 10.4686 7.93263 10.2288 7.93263H10.2286C9.98884 7.93263 9.79297 7.73705 9.79297 7.49711V5.57327C9.79297 5.33333 9.98884 5.13761 10.2286 5.13761H10.2288C10.4686 5.13761 10.6644 5.33333 10.6644 5.57327Z" fill="#61ECFF"/>
<path fill-rule="evenodd" clip-rule="evenodd" d="M10.2286 8.33535C10.4693 8.33535 10.6641 8.53033 10.6641 8.77101C10.6641 9.0117 10.4693 9.20653 10.2286 9.20653C9.98795 9.20653 9.79297 9.0117 9.79297 8.77101C9.79297 8.53033 9.98795 8.33535 10.2286 8.33535Z" fill="#61ECFF"/>
<path fill-rule="evenodd" clip-rule="evenodd" d="M7.84413 2.75258V3.82898C7.84413 4.06892 7.64826 4.2645 7.40847 4.2645H7.40832C7.16853 4.2645 6.97266 4.06892 6.97266 3.82898V2.59455C7.26216 2.65272 7.5527 2.70524 7.84413 2.75258Z" fill="#61ECFF"/>
<path fill-rule="evenodd" clip-rule="evenodd" d="M20.4455 1.46785V5.13761C20.4455 5.3774 20.2495 5.57327 20.01 5.57327H20.0097C19.7702 5.57327 19.5742 5.3777 19.5742 5.13761V1.78495C19.8667 1.68523 20.1569 1.57928 20.4455 1.46785Z" fill="#61ECFF"/>
<path fill-rule="evenodd" clip-rule="evenodd" d="M14.5901 19.139V21.0014L13.7188 21.7259V19.139C13.7188 18.899 13.9146 18.7033 14.1543 18.7033H14.1546C14.3944 18.7033 14.5901 18.8999 14.5901 19.139Z" fill="#61ECFF"/>
<path fill-rule="evenodd" clip-rule="evenodd" d="M17.925 18.2279H15.4825C15.2429 18.2279 15.0469 18.0316 15.0469 17.7922V17.7921C15.0469 17.5527 15.2426 17.3564 15.4825 17.3564H18.9728L17.925 18.2279Z" fill="#61ECFF"/>
<path fill-rule="evenodd" clip-rule="evenodd" d="M14.1543 17.3564C14.3949 17.3564 14.5898 17.5514 14.5898 17.7921C14.5898 18.0326 14.3949 18.2276 14.1543 18.2276C13.9136 18.2276 13.7188 18.0326 13.7188 17.7921C13.7188 17.5514 13.9136 17.3564 14.1543 17.3564Z" fill="#61ECFF"/>
<path fill-rule="evenodd" clip-rule="evenodd" d="M17.9926 16.4647V17.454C17.9926 17.6938 17.7966 17.8895 17.5569 17.8895H17.5568C17.3173 17.8895 17.1211 17.694 17.1211 17.454V16.4647C17.1211 16.2248 17.317 16.0291 17.5568 16.0291H17.5569C17.7967 16.0291 17.9926 16.2252 17.9926 16.4647Z" fill="#61ECFF"/>
<path fill-rule="evenodd" clip-rule="evenodd" d="M17.5568 14.788C17.7974 14.788 17.9923 14.9829 17.9923 15.2235C17.9923 15.4642 17.7974 15.6591 17.5568 15.6591C17.3161 15.6591 17.1211 15.4642 17.1211 15.2235C17.1211 14.9829 17.3161 14.788 17.5568 14.788Z" fill="#61ECFF"/>
<path fill-rule="evenodd" clip-rule="evenodd" d="M14.1533 19.5748H11.2949C11.0555 19.5748 10.8594 19.3783 10.8594 19.1391V19.139C10.8594 18.8999 11.0549 18.7033 11.2949 18.7033H14.1533C14.3932 18.7033 14.5888 18.8992 14.5888 19.139V19.1391C14.5888 19.3789 14.3919 19.5748 14.1533 19.5748Z" fill="#61ECFF"/>
<path fill-rule="evenodd" clip-rule="evenodd" d="M9.9591 18.7033C10.1996 18.7033 10.3946 18.8983 10.3946 19.139C10.3946 19.3797 10.1996 19.5746 9.9591 19.5746C9.71842 19.5746 9.52344 19.3797 9.52344 19.139C9.52344 18.8983 9.71842 18.7033 9.9591 18.7033Z" fill="#61ECFF"/>
<path fill-rule="evenodd" clip-rule="evenodd" d="M7.48852 17.3098V19.8342L6.61719 19.1241V17.3098C6.61719 17.0699 6.81291 16.8743 7.0527 16.8743H7.053C7.29265 16.8743 7.48852 17.0707 7.48852 17.3098Z" fill="#61ECFF"/>
<path fill-rule="evenodd" clip-rule="evenodd" d="M7.0527 15.6287C7.29339 15.6287 7.48822 15.8236 7.48822 16.0642C7.48822 16.3049 7.29339 16.4999 7.0527 16.4999C6.81202 16.4999 6.61719 16.3049 6.61719 16.0642C6.61719 15.8236 6.81202 15.6287 7.0527 15.6287Z" fill="#61ECFF"/>
</svg>
